<svg xmlns="http://www.w3.org/2000/svg" viewBox="0 0 261.5542 234.1415"><defs><style>.cls-1{fill:#fff;}</style></defs><g id="Layer_2" data-name="Layer 2"><g id="_02_Final_Logo" data-name="02_Final Logo"><polygon class="cls-1" points="156.054 26.237 169.216 27.129 178.856 27.782 172.51 35.05 163.834 44.988 173.772 36.312 180.937 30.057 181.576 39.489 182.469 52.652 183.361 39.489 184.004 30 191.126 36.217 201.065 44.894 192.388 34.955 186.113 27.768 195.543 27.129 208.706 26.237 195.543 25.344 186.26 24.715 192.388 17.696 201.065 7.758 191.126 16.434 184.004 22.652 183.361 13.162 182.469 0 181.576 13.162 180.937 22.595 173.772 16.34 163.834 7.663 172.51 17.602 178.709 24.701 169.216 25.344 156.054 26.237"/><polygon class="cls-1" points="58.535 54.8 36.685 54.8 16.905 72.479 16.905 25.992 0 25.992 0 115.864 16.905 115.864 16.905 92.059 22.147 87.304 39.272 115.864 58.018 115.864 33.46 77.205 58.535 54.8"/><path class="cls-1" d="M119.5542,114.0243a12.2238,12.2238,0,0,1-1.4375-3.334,18.5089,18.5089,0,0,1-.6616-3.9394q-.1436-2.1562-.1436-4.5137V75.8446a18.4676,18.4676,0,0,0-4.1689-12.42,25.3237,25.3237,0,0,0-11.0113-7.332,44.0067,44.0067,0,0,0-14.892-2.4434,43.055,43.055,0,0,0-15.4678,2.6172,24.6623,24.6623,0,0,0-10.8389,7.6758,19.4142,19.4142,0,0,0-3.9961,12.42H74.4741a7.6159,7.6159,0,0,1,3.2486-6.7559q3.2482-2.2134,9.4013-2.2148,5.8074,0,9.0562,1.9551a5.994,5.994,0,0,1,3.249,5.3476v.1152q0,2.0127-3.8237,2.8184T81.7192,79.4091a52.2718,52.2718,0,0,0-12.7939,2.8466,22.5371,22.5371,0,0,0-9.459,6.2393,15.4992,15.4992,0,0,0-3.5649,10.58A16.1451,16.1451,0,0,0,58.834,108.85a18.38,18.38,0,0,0,8.1362,6.1533,31.1822,31.1822,0,0,0,11.874,2.127,36.9224,36.9224,0,0,0,10.6084-1.4668,26.3447,26.3447,0,0,0,8.51-4.1973,17.97,17.97,0,0,0,2.2935-2.0717c.16.6254.34,1.2491.5527,1.87a12.954,12.954,0,0,0,1.4087,2.9326,12.0449,12.0449,0,0,0,1.2363,1.667h17.5376A9.7782,9.7782,0,0,1,119.5542,114.0243Zm-22.1377-16.56a13.492,13.492,0,0,1-5.9512,4.8018,20.1824,20.1824,0,0,1-7.8486,1.5234q-4.8882,0-7.36-1.582a5.2543,5.2543,0,0,1-2.4721-4.7432,4.8757,4.8757,0,0,1,2.9038-4.7431,27.1168,27.1168,0,0,1,8.7685-1.9844q4.9446-.5186,9.919-1.4082c1.5339-.2747,2.9747-.5885,4.3408-.9333v.5016A14.6091,14.6091,0,0,1,97.4165,97.4647Z"/><path class="cls-1" d="M133.5249,94.3016v5.2325a18.9659,18.9659,0,0,0,1.9551,9.2578,13.48,13.48,0,0,0,5.1465,5.3183,20.5341,20.5341,0,0,0,6.9,2.416,44.8916,44.8916,0,0,0,7.2163.6036,26.74,26.74,0,0,0,5.1172-.4317,17.5665,17.5665,0,0,0,3.3925-.9492V102.3524a15.9484,15.9484,0,0,1-2.5586.6895,17.978,17.978,0,0,1-3.5937.3457q-3.7955,0-4.7437-2.4727a18.2669,18.2669,0,0,1-.9487-6.44V68.6h17.7671V54.8H151.4077V34.6747H133.5249V42.38a65.1857,65.1857,0,0,1-.2876,6.957,6.8954,6.8954,0,0,1-1.2935,3.709,4.6977,4.6977,0,0,1-3.0473,1.4668,41.3479,41.3479,0,0,1-5.4917.2871h-3.9673V68.6h14.0874Z"/><rect class="cls-1" x="173.6025" y="54.7997" width="17.6523" height="61.0645"/><path class="cls-1" d="M257.5293,69.03A28.3087,28.3087,0,0,0,246.0864,57.704a36.15,36.15,0,0,0-17.5947-4.0547,36.92,36.92,0,0,0-17.5088,3.9961,29.2717,29.2717,0,0,0-11.7876,11.1553,32.1307,32.1307,0,0,0-4.2261,16.6464,32.4228,32.4228,0,0,0,4.14,16.5313A29.1051,29.1051,0,0,0,210.7817,113.19a36.6941,36.6941,0,0,0,17.6524,4.0547,46.9859,46.9859,0,0,0,13.311-1.7256,32.3757,32.3757,0,0,0,9.919-4.6865,23.7882,23.7882,0,0,0,6.3823-6.67,17.1765,17.1765,0,0,0,2.645-7.5606H243.0967a5.911,5.911,0,0,1-1.0352,2.4727,8.35,8.35,0,0,1-2.501,2.2988,14.751,14.751,0,0,1-4.2265,1.6973,25.0643,25.0643,0,0,1-6.1524.6611,17.5477,17.5477,0,0,1-9.229-2.2432,13.93,13.93,0,0,1-5.5771-6.41,20.1415,20.1415,0,0,1-1.36-4.3994h48.3088a15.9906,15.9906,0,0,0,.1724-1.9551q.0564-1.3227.0576-2.76A34.4241,34.4241,0,0,0,257.5293,69.03Zm-37.519.1152a16.828,16.828,0,0,1,8.7114-2.1563,16.1083,16.1083,0,0,1,8.3086,1.9268,12.2521,12.2521,0,0,1,4.8012,4.9443,13.7034,13.7034,0,0,1,1.4771,5.0313H213.1878a18.1291,18.1291,0,0,1,1.2448-3.5645A14.0017,14.0017,0,0,1,220.01,69.1454Z"/><path class="cls-1" d="M163.6548,207.7489V194.3524a15.9484,15.9484,0,0,1-2.5586.69,17.979,17.979,0,0,1-3.5938.3457q-3.7953,0-4.7436-2.4727a18.2669,18.2669,0,0,1-.9487-6.44V160.6h17.767V146.8H151.81v-20.125H133.9272V134.38a65.159,65.159,0,0,1-.2876,6.957,6.8954,6.8954,0,0,1-1.2934,3.709,4.698,4.698,0,0,1-3.0474,1.4668,41.3479,41.3479,0,0,1-5.4917.2871H119.84v13.8h14.0874v30.9346a18.9659,18.9659,0,0,0,1.9551,9.2578,13.481,13.481,0,0,0,5.1465,5.3183,20.5349,20.5349,0,0,0,6.9,2.416,44.8935,44.8935,0,0,0,7.2163.6036,26.7391,26.7391,0,0,0,5.1172-.4317A17.5678,17.5678,0,0,0,163.6548,207.7489Z"/><path class="cls-1" d="M173.58,212.7528a13.9625,13.9625,0,0,1-.3159,2.875,7.1686,7.1686,0,0,1-1.2075,2.7305,6.312,6.312,0,0,1-2.6451,2.0127,11.405,11.405,0,0,1-4.5713.7763q-1.667,0-3.249-.1445t-2.6162-.3164v13.168q1.0356.0572,2.6162.1728,1.5828.1143,3.249.1143,8.6814,0,13.9439-1.84a18.8479,18.8479,0,0,0,7.9922-4.8867,15.7123,15.7123,0,0,0,3.6513-6.7558,31.0874,31.0874,0,0,0,.92-7.5039V146.8H173.58Z"/><path class="cls-1" d="M189.8809,122.3046a13.01,13.01,0,0,0-14.4322,0,7.7474,7.7474,0,0,0,0,12.3623,13.0058,13.0058,0,0,0,14.4322,0,7.7474,7.7474,0,0,0,0-12.3623Z"/><path class="cls-1" d="M237.7959,177.7352a19.9054,19.9054,0,0,1-1.5527,7.7051,15.2867,15.2867,0,0,1-4.4849,6.1231,10.9289,10.9289,0,0,1-7.13,2.3867q-4.3125,0-6.6411-1.9551a9.8963,9.8963,0,0,1-3.1914-5.1758,27.2818,27.2818,0,0,1-.8623-7.0723V146.8H196.1084v37.6621a40.4057,40.4057,0,0,0,.9775,8.8555,22.9208,22.9208,0,0,0,3.3926,7.9355,16.9459,16.9459,0,0,0,6.6123,5.6631,23.8746,23.8746,0,0,0,10.6948,2.0986,25.2865,25.2865,0,0,0,10.4366-2.07,22.3051,22.3051,0,0,0,7.8486-5.7783,25.2679,25.2679,0,0,0,1.7251-2.2548v8.953h17.8252V146.8H237.7959Z"/></g></g></svg>