<svg xmlns="http://www.w3.org/2000/svg" viewBox="0 0 129.7056 113.1298"><defs><style>.cls-1{fill:#c7242c;}</style></defs><g id="Layer_2" data-name="Layer 2"><g id="_02_Final_Logo" data-name="02_Final Logo"><polygon class="cls-1" points="107.113 27.768 116.543 27.129 129.706 26.237 116.543 25.344 107.26 24.715 113.388 17.696 122.065 7.758 112.126 16.434 105.004 22.652 104.361 13.162 103.469 0 102.576 13.162 101.937 22.595 94.772 16.34 84.834 7.663 93.51 17.602 99.709 24.701 90.216 25.344 77.054 26.237 90.216 27.129 99.856 27.782 93.51 35.05 84.834 44.988 94.772 36.312 101.937 30.057 102.576 39.489 103.469 52.652 104.361 39.489 105.004 30 112.126 36.217 122.065 44.894 113.388 34.955 107.113 27.768"/><path class="cls-1" d="M75.81,30.6747H57.9272V38.38a65.159,65.159,0,0,1-.2876,6.957,6.8954,6.8954,0,0,1-1.2934,3.709,4.698,4.698,0,0,1-3.0474,1.4668,41.3479,41.3479,0,0,1-5.4917.2871H36.6851l-19.78,17.68V21.9921H0v89.872H16.9048V88.0586l5.2419-4.7546,17.1258,28.56H58.0176L33.46,73.2051,43.0913,64.6H57.9272V95.5341a18.9659,18.9659,0,0,0,1.9551,9.2578,13.481,13.481,0,0,0,5.1465,5.3183,20.5349,20.5349,0,0,0,6.9,2.416,44.8935,44.8935,0,0,0,7.2163.6036,26.7391,26.7391,0,0,0,5.1172-.4317,17.5678,17.5678,0,0,0,3.3926-.9492V98.3524a15.9484,15.9484,0,0,1-2.5586.6895,17.979,17.979,0,0,1-3.5938.3457q-3.7953,0-4.7436-2.4727a18.2669,18.2669,0,0,1-.9487-6.44V64.6h17.767V50.8H75.81Z"/></g></g></svg>