<svg xmlns="http://www.w3.org/2000/svg" viewBox="0 0 52.6517 52.6517"><defs><style>.cls-1{fill:#fff;}</style></defs><g id="Layer_2" data-name="Layer 2"><g id="_02_Final_Logo" data-name="02_Final Logo"><polygon class="cls-1" points="30.059 27.768 39.489 27.129 52.652 26.237 39.489 25.344 30.206 24.715 36.334 17.696 45.011 7.758 35.072 16.434 27.95 22.652 27.308 13.162 26.415 0 25.523 13.162 24.884 22.595 17.719 16.34 7.78 7.663 16.457 17.602 22.655 24.701 13.162 25.344 0 26.237 13.162 27.129 22.802 27.782 16.457 35.05 7.78 44.988 17.719 36.312 24.884 30.057 25.523 39.489 26.415 52.652 27.308 39.489 27.95 30 35.072 36.217 45.011 44.894 36.334 34.955 30.059 27.768"/></g></g></svg>