<?xml version="1.0" standalone="no"?>
<!DOCTYPE svg PUBLIC "-//W3C//DTD SVG 20010904//EN"
 "http://www.w3.org/TR/2001/REC-SVG-20010904/DTD/svg10.dtd">
<svg version="1.0" xmlns="http://www.w3.org/2000/svg"
 width="700.000000pt" height="700.000000pt" viewBox="0 0 700.000000 700.000000"
 preserveAspectRatio="xMidYMid meet">
<metadata>
Created by potrace 1.14, written by Peter Selinger 2001-2017
</metadata>
<g transform="translate(0.000000,700.000000) scale(0.100000,-0.100000)"
fill="#000000" stroke="none">
<path d="M3509 6919 c-2 -7 -6 -49 -13 -169 -5 -63 -9 -131 -11 -150 -2 -19
-6 -82 -10 -140 -4 -58 -8 -125 -10 -150 -2 -25 -7 -88 -10 -140 -7 -111 -13
-209 -20 -300 -2 -36 -7 -105 -10 -155 -3 -49 -8 -112 -10 -140 -3 -27 -7 -90
-10 -140 -5 -87 -11 -175 -20 -300 -2 -33 -7 -100 -10 -150 -3 -49 -8 -117
-10 -150 -3 -33 -7 -98 -10 -145 -10 -161 -16 -245 -20 -300 -2 -30 -7 -100
-11 -155 -4 -55 -8 -111 -9 -125 -2 -14 -3 -44 -4 -68 l-1 -43 -25 19 c-26 20
-148 127 -175 152 -8 8 -42 38 -75 65 -33 28 -72 61 -86 75 -14 14 -47 43 -74
65 -26 22 -67 57 -89 77 -23 20 -77 67 -120 105 -44 37 -105 91 -136 118 -30
28 -84 75 -119 105 -36 30 -69 60 -75 65 -6 6 -45 39 -86 75 -41 36 -80 70
-86 75 -13 12 -102 90 -224 195 -47 41 -87 77 -90 80 -4 5 -70 62 -255 221
-16 14 -55 48 -85 75 -81 71 -190 166 -217 189 -13 11 -39 34 -56 50 -18 17
-59 53 -92 80 -33 28 -66 57 -73 65 -12 13 -12 13 -5 -2 4 -9 24 -34 43 -55
19 -21 64 -72 100 -113 36 -41 79 -91 96 -110 17 -19 82 -93 144 -165 62 -71
127 -146 144 -165 17 -19 76 -87 132 -150 55 -63 192 -221 305 -350 113 -129
216 -248 230 -264 13 -16 35 -41 49 -56 46 -50 135 -153 155 -179 11 -14 27
-33 36 -41 9 -8 92 -103 185 -210 93 -107 171 -197 174 -200 22 -20 140 -162
140 -169 0 -4 -6 -8 -12 -8 -39 -1 -259 -15 -293 -18 -22 -3 -80 -7 -130 -10
-101 -6 -186 -12 -290 -20 -65 -4 -101 -7 -315 -20 -97 -6 -233 -16 -290 -20
-25 -2 -92 -7 -150 -10 -58 -3 -125 -8 -150 -10 -25 -2 -90 -7 -145 -10 -55
-4 -118 -8 -140 -10 -22 -2 -94 -6 -160 -10 -66 -4 -136 -9 -155 -11 -19 -2
-78 -6 -130 -9 -52 -4 -115 -8 -140 -10 -25 -1 -97 -6 -160 -10 -63 -4 -124
-9 -135 -10 -11 -1 -44 -3 -74 -4 -30 0 -51 -4 -47 -8 7 -7 14 -8 171 -18 55
-3 126 -8 158 -11 31 -2 90 -6 130 -9 95 -6 294 -20 437 -30 36 -2 106 -7 155
-10 50 -3 115 -7 145 -10 30 -2 100 -7 155 -10 55 -4 123 -8 150 -10 145 -11
316 -23 445 -30 52 -3 118 -7 145 -10 28 -2 91 -7 140 -10 50 -3 117 -8 150
-10 54 -4 150 -10 290 -20 194 -12 270 -18 272 -19 2 -1 -184 -218 -276 -321
-52 -60 -176 -201 -196 -224 -11 -13 -24 -29 -30 -35 -5 -6 -39 -45 -75 -86
-36 -41 -69 -80 -75 -86 -5 -6 -37 -42 -70 -79 -33 -38 -69 -79 -80 -91 -11
-12 -40 -46 -65 -75 -25 -29 -191 -220 -369 -423 -342 -392 -356 -408 -411
-472 -60 -69 -154 -176 -234 -267 -43 -49 -76 -90 -75 -91 3 -3 122 98 284
242 17 15 61 54 100 87 38 33 76 67 85 75 9 8 45 40 80 70 35 30 71 62 80 70
9 8 65 58 125 110 61 52 124 107 140 121 17 15 91 80 165 144 74 65 153 134
176 154 22 20 69 61 104 91 64 55 148 129 205 179 17 15 77 67 135 116 58 50
107 93 110 96 3 3 46 41 95 84 50 43 119 104 155 135 114 101 194 169 196 167
2 -3 12 -130 29 -392 3 -49 8 -117 10 -150 5 -60 10 -140 20 -290 3 -44 7
-107 10 -140 5 -70 14 -202 20 -295 2 -36 6 -99 9 -140 3 -41 8 -113 11 -160
3 -47 7 -114 10 -150 7 -91 14 -202 20 -290 6 -102 15 -234 21 -300 2 -30 6
-98 10 -150 11 -183 12 -206 19 -300 11 -146 12 -161 19 -167 3 -4 6 11 7 33
0 21 2 59 4 84 2 25 6 92 10 150 3 58 8 125 10 150 2 25 6 86 9 135 7 108 16
230 21 305 4 54 11 155 20 295 2 39 7 104 9 145 3 41 8 111 11 155 3 44 8 109
10 145 3 36 7 101 10 145 5 88 14 209 20 295 4 50 7 95 20 305 6 88 15 215 20
280 6 83 18 268 19 293 0 27 -1 27 30 0 13 -13 50 -45 82 -73 32 -27 99 -86
149 -130 50 -44 120 -105 155 -135 34 -30 71 -62 80 -70 88 -78 163 -143 265
-231 66 -57 122 -106 125 -109 3 -3 39 -34 80 -69 41 -36 80 -70 85 -75 6 -6
57 -51 115 -101 58 -49 107 -92 110 -95 3 -3 57 -50 120 -105 63 -55 120 -104
126 -110 9 -9 83 -73 158 -138 51 -44 140 -123 150 -132 6 -6 81 -70 166 -144
85 -74 160 -139 165 -145 28 -30 65 -58 65 -50 0 5 -17 27 -38 50 -32 35 -76
86 -165 188 -24 27 -47 55 -126 146 -36 41 -70 80 -75 85 -6 6 -38 42 -71 80
-33 39 -74 86 -91 105 -32 36 -148 169 -244 280 -30 35 -71 82 -91 104 -20 23
-105 120 -188 216 -84 96 -176 202 -204 234 -29 33 -60 69 -70 80 -10 12 -30
35 -45 51 -15 17 -117 134 -227 260 -110 127 -214 246 -231 265 -18 19 -42 47
-54 63 l-21 27 38 1 c21 0 49 2 63 4 14 1 79 6 145 10 66 4 136 8 155 10 19 2
89 6 155 10 66 3 131 8 145 10 14 2 75 7 135 10 61 4 130 8 155 10 25 2 92 6
150 10 58 4 121 8 140 10 19 2 87 7 150 10 63 4 131 9 150 10 19 1 82 5 140 9
99 7 134 9 290 21 36 2 106 7 155 10 50 3 117 8 150 10 33 3 98 7 145 10 47 3
114 8 150 10 36 2 108 7 160 10 126 8 172 13 178 20 3 3 -19 5 -49 6 -30 1
-67 2 -84 3 -16 2 -79 6 -140 10 -60 4 -132 9 -160 11 -27 3 -88 7 -135 10
-47 3 -114 7 -150 10 -36 2 -105 7 -155 10 -49 3 -121 7 -160 10 -38 3 -101 8
-140 10 -229 16 -375 26 -430 30 -27 2 -97 7 -155 11 -58 3 -123 7 -145 9 -22
1 -87 6 -145 9 -58 4 -123 9 -145 11 -22 3 -87 7 -145 10 -58 3 -121 8 -140 9
-19 2 -93 7 -165 11 -71 5 -146 9 -165 11 -19 1 -54 4 -77 5 -24 1 -43 4 -43
5 0 2 37 45 81 96 45 51 93 107 108 123 14 17 55 64 91 105 36 41 67 77 70 80
6 6 248 283 345 395 38 44 81 94 96 110 15 17 64 73 109 125 45 52 95 109 111
127 15 17 74 85 130 150 57 65 105 120 109 123 3 3 35 39 70 80 36 41 77 89
92 105 14 17 63 73 108 125 46 52 97 111 114 130 17 19 58 66 91 105 33 38 67
76 75 85 8 9 30 34 49 56 19 21 45 51 59 67 40 42 12 32 -39 -16 -25 -23 -76
-69 -115 -102 -38 -33 -74 -64 -80 -70 -6 -5 -39 -35 -75 -65 -66 -57 -150
-131 -159 -140 -3 -3 -34 -30 -70 -60 -35 -30 -72 -62 -80 -70 -9 -8 -30 -26
-46 -40 -36 -31 -416 -363 -504 -440 -64 -56 -104 -91 -230 -200 -35 -30 -68
-60 -74 -66 -6 -5 -45 -39 -86 -74 -41 -35 -77 -67 -80 -70 -3 -3 -39 -34 -80
-70 -84 -73 -81 -71 -280 -245 -80 -70 -161 -140 -181 -156 l-36 -28 -2 57
c-1 31 -4 75 -6 97 -1 22 -6 87 -9 145 -4 58 -9 132 -12 165 -2 33 -6 98 -9
145 -5 79 -8 125 -20 290 -2 36 -7 108 -10 160 -4 52 -8 115 -10 140 -2 25 -7
90 -10 145 -3 55 -8 127 -10 160 -7 93 -14 192 -20 280 -3 44 -7 109 -10 145
-3 36 -7 106 -10 155 -3 50 -8 119 -10 155 -6 75 -11 143 -20 290 -3 58 -8
123 -10 145 -3 22 -7 87 -10 145 -5 89 -11 127 -16 109z"/>
<path d="M3511 44 c0 -11 3 -14 6 -6 3 7 2 16 -1 19 -3 4 -6 -2 -5 -13z"/>
</g>
</svg>
