<svg xmlns="http://www.w3.org/2000/svg" viewBox="0 0 479.3055 176.0498"><defs><style>.cls-1{fill:#a1a468;}.cls-2{fill:#a2a9ad;}.cls-3{fill:#ff9e18;}.cls-4{fill:#231f20;}</style></defs><g id="Layer_2" data-name="Layer 2"><g id="white_logos" data-name="white logos"><rect class="cls-1" x="65.7302" y="37.716" width="81.7056" height="81.7056"/><rect class="cls-2" x="175.9439" y="37.7149" width="81.7079" height="81.7079"/><rect class="cls-3" x="286.1587" y="37.7149" width="81.7079" height="81.7079"/><rect class="cls-4" x="397.5976" y="37.7149" width="81.7079" height="81.7079"/></g><g id="headers"><path class="cls-4" d="M10.416,19.5156a4.6066,4.6066,0,0,1-4.5361,4.62c-2.1836,0-4.7041-1.0634-4.7041-4.7041V8.4561A4.456,4.456,0,0,1,5.8232,3.8643a4.5335,4.5335,0,0,1,4.5928,4.76v1.12H7.56V8.792A1.8752,1.8752,0,0,0,5.7959,6.72c-1.4277,0-1.7637.9805-1.7637,2.3242V19.2363c0,1.1475.4473,2.044,1.7364,2.044A1.7634,1.7634,0,0,0,7.56,19.2637v-.98H10.416Z" transform="translate(-1.1758 -3.8643)"/><path class="cls-4" d="M13.2324,8.7363a4.6757,4.6757,0,0,1,4.7881-4.872,4.6757,4.6757,0,0,1,4.7881,4.872V19.2637a4.6757,4.6757,0,0,1-4.7881,4.872,4.6757,4.6757,0,0,1-4.7881-4.872Zm2.8565,10.5274A1.8447,1.8447,0,0,0,18.0205,21.28a1.8442,1.8442,0,0,0,1.9316-2.0166V8.7363A1.8442,1.8442,0,0,0,18.0205,6.72a1.8447,1.8447,0,0,0-1.9316,2.0166Z" transform="translate(-1.1758 -3.8643)"/><path class="cls-4" d="M25.8408,4.0322h2.8565v17.08h5.6552v2.8555H25.8408Z" transform="translate(-1.1758 -3.8643)"/><path class="cls-4" d="M36.8506,8.7363a4.7888,4.7888,0,1,1,9.5762,0V19.2637a4.7888,4.7888,0,1,1-9.5762,0Zm2.8555,10.5274a1.9339,1.9339,0,1,0,3.8642,0V8.7363a1.9339,1.9339,0,1,0-3.8642,0Z" transform="translate(-1.1758 -3.8643)"/><path class="cls-4" d="M49.458,4.0322h4.5928c3.3877,0,5.04,1.9883,5.04,5.8516,0,2.2959-.6445,3.9766-2.4648,4.9844l3.08,9.1H56.6826l-2.66-8.5117H52.3154v8.5117H49.458Zm2.8574,8.9043h1.6231c1.9883,0,2.2969-1.12,2.2969-3.1084,0-2.0156-.336-3.1084-2.4366-3.1084H52.3154Z" transform="translate(-1.1758 -3.8643)"/><path class="cls-4" d="M71.4307,9.7725H68.5742V9.1279c0-1.3154-.56-2.4082-2.0166-2.4082-1.5674,0-1.9316,1.2608-1.9316,2.5762,0,1.54.1406,2.0723,1.624,2.66l2.1846.8681c2.5195.9522,2.9961,2.5479,2.9961,5.46,0,3.3594-1.2325,5.8515-4.9287,5.8515A4.7067,4.7067,0,0,1,61.63,19.4043V18.34h2.8564v.8965A1.8822,1.8822,0,0,0,66.502,21.28c1.9326,0,2.0722-1.1485,2.0722-2.9678,0-2.1289-.2519-2.4648-1.6513-3.0244l-2.045-.84c-2.4638-1.0078-3.1074-2.6318-3.1074-5.124,0-3.0244,1.6231-5.46,4.9-5.46a4.6711,4.6711,0,0,1,4.76,4.5078Z" transform="translate(-1.1758 -3.8643)"/><path class="cls-1" d="M67.0127,134.45h2.3232a2.1058,2.1058,0,0,1,1.4405.4492,1.9109,1.9109,0,0,1,.6933,1.5313,1.9325,1.9325,0,0,1-2.0078,1.9257H67.9854v2.504h-.9727Zm.9727,2.9883h1.44a1.0153,1.0153,0,0,0,1.0713-1.0352.9492.9492,0,0,0-.4141-.8554,1.1322,1.1322,0,0,0-.6934-.18H67.9854Z" transform="translate(-1.1758 -3.8643)"/><path class="cls-1" d="M72.6748,134.45h2.502a1.89,1.89,0,0,1,1.3066.4228,1.8463,1.8463,0,0,1-.6035,3.1416l1.4853,2.8458H76.2129L74.89,138.123H73.6475V140.86h-.9727Zm.9727,2.8086h1.4668a.9933.9933,0,0,0,1.09-1.0176.8666.8666,0,0,0-.3242-.7285,1.0828,1.0828,0,0,0-.711-.1982H73.6475Z" transform="translate(-1.1758 -3.8643)"/><path class="cls-1" d="M78.5283,134.45h.9727v6.41h-.9727Z" transform="translate(-1.1758 -3.8643)"/><path class="cls-1" d="M81.0635,134.45h.9179l2.8985,4.5547h.0185V134.45H85.87v6.41h-.918l-2.8984-4.5557h-.0176V140.86h-.9726Z" transform="translate(-1.1758 -3.8643)"/><path class="cls-1" d="M88.7275,135.3145H86.9717V134.45h4.4844v.8643H89.7V140.86h-.9727Z" transform="translate(-1.1758 -3.8643)"/><path class="cls-1" d="M94.6582,134.45H95.63v5.4912h3.125v.919H94.6582Z" transform="translate(-1.1758 -3.8643)"/><path class="cls-1" d="M103.5723,139.4287h-2.4307l-.4951,1.4317H99.62l2.332-6.41h.8106l2.3311,6.41h-1.0264Zm-.2784-.8652-.9277-2.7989h-.0176l-.9277,2.7989Z" transform="translate(-1.1758 -3.8643)"/><path class="cls-1" d="M106.1963,134.45h2.4844a1.6713,1.6713,0,0,1,1.8994,1.7187,1.4009,1.4009,0,0,1-.9453,1.378v.0185a1.4365,1.4365,0,0,1,1.0439,1.4766,1.75,1.75,0,0,1-1.7822,1.8184h-2.7Zm.9717.8643v1.8369h1.4043a.9251.9251,0,1,0,0-1.8369Zm0,2.7v1.9268h1.4951a.9664.9664,0,1,0,0-1.9268Z" transform="translate(-1.1758 -3.8643)"/><path class="cls-4" d="M71.335,152.0684a2.2047,2.2047,0,0,1-2.252,1.8457,2.2773,2.2773,0,0,1-2.0068-1.1524c-.2071-.3779-.2793-.5674-.2793-2.1064s.0722-1.7285.2793-2.1074a2.3,2.3,0,0,1,4.2588.748H70.3076a1.2929,1.2929,0,0,0-1.2246-.9277,1.2362,1.2362,0,0,0-.99.4687c-.252.3242-.3233.5039-.3233,1.8184s.0713,1.4941.3233,1.8183a1.2354,1.2354,0,0,0,.99.4678,1.3174,1.3174,0,0,0,1.2246-.873Z" transform="translate(-1.1758 -3.8643)"/><path class="cls-4" d="M72.4326,147.45h.918l1.8359,4.1768,1.8008-4.1768h.918v6.41h-.9717v-3.9981H76.915l-1.3408,3.0791h-.8105l-1.3408-3.0791h-.0186V153.86h-.9717Z" transform="translate(-1.1758 -3.8643)"/><path class="cls-4" d="M80.8623,151.2217,78.9355,147.45h1.0264l1.3594,2.8447,1.3594-2.8447H83.707L81.78,151.2217V153.86h-.918Z" transform="translate(-1.1758 -3.8643)"/><path class="cls-4" d="M84.73,147.45h.9726v3.3037H85.72l2.6377-3.3037H89.51L87.457,149.98l2.2686,3.8809H88.5732l-1.7461-3.1329-1.125,1.1787V153.86H84.73Z" transform="translate(-1.1758 -3.8643)"/><path class="cls-4" d="M92.5322,152.9951l2.502-3.1328a.9513.9513,0,0,0,.2344-.6387.8881.8881,0,0,0-.8829-.9091.9313.9313,0,0,0-.9355.9267h-.918a1.8272,1.8272,0,1,1,3.6543-.0088,1.7182,1.7182,0,0,1-.3867,1.126l-2.0615,2.583h2.4482v.919H92.5322Z" transform="translate(-1.1758 -3.8643)"/><path class="cls-4" d="M97.36,147.45h3.4121v.918H98.2246v1.4492a1.5651,1.5651,0,0,1,1.0264-.3506,1.5959,1.5959,0,0,1,1.1426.4678c.3515.3789.5048.6933.5048,1.7558a2.1279,2.1279,0,0,1-.3955,1.5391,1.8368,1.8368,0,0,1-3.26-.9805h.9179a.8718.8718,0,0,0,.918.7461c.9,0,.9-.7734.9-1.3769,0-.711-.17-1.2334-.9268-1.2334a.88.88,0,0,0-.8281.5312H97.36Z" transform="translate(-1.1758 -3.8643)"/><path class="cls-4" d="M102.0908,152.9414h.918v.919l-.918.666Z" transform="translate(-1.1758 -3.8643)"/><path class="cls-4" d="M106.4912,149.2412a1.8186,1.8186,0,1,1,3.6367,0v2.8272a1.8186,1.8186,0,1,1-3.6367,0Zm2.7188.0547a.9037.9037,0,1,0-1.8008,0v2.7187a.9037.9037,0,1,0,1.8008,0Z" transform="translate(-1.1758 -3.8643)"/><path class="cls-4" d="M111.3408,152.9414h.919v.919l-.919.666Z" transform="translate(-1.1758 -3.8643)"/><path class="cls-4" d="M115.8594,147.45h3.6465v.918l-2.17,5.4922H116.31l2.17-5.4922h-1.7012v.9277h-.9189Z" transform="translate(-1.1758 -3.8643)"/><path class="cls-4" d="M121.81,150.1514h.3144a.9025.9025,0,0,0,.99-.91.9269.9269,0,0,0-.9356-.9267.8948.8948,0,0,0-.8828.7744h-.918a1.83,1.83,0,0,1,3.6553.1347,1.4724,1.4724,0,0,1-.6846,1.3233,1.6132,1.6132,0,0,1,.7569,1.4043,1.8819,1.8819,0,0,1-1.9444,1.9629,1.8236,1.8236,0,0,1-1.8183-1.6475h.9179a.9572.9572,0,0,0,.9541.7285,1.0178,1.0178,0,0,0-.0185-2.0342H121.81Z" transform="translate(-1.1758 -3.8643)"/><path class="cls-4" d="M125.3545,152.9414h.918v.919l-.918.666Z" transform="translate(-1.1758 -3.8643)"/><path class="cls-4" d="M129.7012,152.9951l2.5029-3.1328a.9559.9559,0,0,0,.2344-.6387.8887.8887,0,0,0-.8828-.9091.9307.9307,0,0,0-.9356.9267h-.9189a1.8277,1.8277,0,1,1,3.6552-.0088,1.7177,1.7177,0,0,1-.3867,1.126l-2.0625,2.583h2.4492v.919h-3.6552Z" transform="translate(-1.1758 -3.8643)"/><path class="cls-4" d="M135.6426,148.4229l-.9092.666v-.9727l.9092-.666h.9179v6.41h-.9179Z" transform="translate(-1.1758 -3.8643)"/><path class="cls-4" d="M67.0127,160.45h2.3232a2.1058,2.1058,0,0,1,1.4405.4492,1.9109,1.9109,0,0,1,.6933,1.5313,1.9325,1.9325,0,0,1-2.0078,1.9257H67.9854v2.504h-.9727Zm.9727,2.9883h1.44a1.0153,1.0153,0,0,0,1.0713-1.0352.9492.9492,0,0,0-.4141-.8554,1.1322,1.1322,0,0,0-.6934-.18H67.9854Z" transform="translate(-1.1758 -3.8643)"/><path class="cls-4" d="M75.0234,166.4541h-.0185c-.1885.3164-.5039.46-1.125.46a1.4284,1.4284,0,0,1-1.6113-1.3955,1.3391,1.3391,0,0,1,1.4863-1.3506h1.2685V163.69c0-.4316-.2783-.584-.9365-.584-.4765,0-.7012.09-.8633.3506l-.7207-.55a1.7263,1.7263,0,0,1,1.5391-.666c1.125,0,1.9.3789,1.9,1.5039V166.86h-.919Zm0-1.5293H73.9248c-.5391,0-.792.2148-.792.5488,0,.3057.2432.5762.8643.5762.7656,0,1.0263-.081,1.0263-.793Z" transform="translate(-1.1758 -3.8643)"/><path class="cls-4" d="M77.3613,162.2959h.918v.4863h.0186a1.4577,1.4577,0,0,1,1.1875-.541,1.5308,1.5308,0,0,1,1.5214,1.585V166.86h-.9179v-2.7188a.9079.9079,0,1,0-1.81,0V166.86h-.918Z" transform="translate(-1.1758 -3.8643)"/><path class="cls-4" d="M82.4512,160.9092h.9179v1.3867h.6661v.7012h-.6661v2.6562c0,.252.0987.3418.3243.3418h.3418v.8653h-.4776a1.0447,1.0447,0,0,1-1.1064-1.126v-2.7373h-.46v-.7012h.46Z" transform="translate(-1.1758 -3.8643)"/><path class="cls-4" d="M85.4131,162.8271a1.9328,1.9328,0,0,1,2.7724,0,3.3433,3.3433,0,0,1,0,3.502,1.9349,1.9349,0,0,1-2.7724,0,3.3381,3.3381,0,0,1,0-3.502Zm2.124.6661a.983.983,0,0,0-1.4766,0c-.1709.2422-.2246.4228-.2246,1.08,0,.6661.0537.8457.2246,1.09a.9869.9869,0,0,0,1.4766,0c.1709-.2442.2256-.4238.2256-1.0811C87.7627,163.916,87.708,163.7354,87.5371,163.4932Z" transform="translate(-1.1758 -3.8643)"/><path class="cls-4" d="M89.9131,162.2959h.9189v.4863H90.85a1.46,1.46,0,0,1,1.1885-.541,1.5315,1.5315,0,0,1,1.5215,1.585V166.86h-.918v-2.7188a.9079.9079,0,1,0-1.81,0V166.86h-.9189Z" transform="translate(-1.1758 -3.8643)"/><path class="cls-4" d="M95.6738,164.9248a1.022,1.022,0,0,0,1.0889,1.125,1.4348,1.4348,0,0,0,1-.4414l.666.5674a2.1016,2.1016,0,0,1-1.6484.7383c-.9356,0-2.0254-.45-2.0254-2.3233,0-1.7734,1-2.35,1.8818-2.35a1.8529,1.8529,0,0,1,1.8819,1.9268v.7568Zm1.9268-.7568c-.0274-.6934-.4238-1.0616-.9639-1.0616a.9589.9589,0,0,0-.9629,1.0616Z" transform="translate(-1.1758 -3.8643)"/><path class="cls-4" d="M101.8564,160.45h3.4122v.918h-2.5479v1.4492a1.5651,1.5651,0,0,1,1.0264-.3506,1.5956,1.5956,0,0,1,1.1425.4678c.3516.3789.5049.6933.5049,1.7558a2.1279,2.1279,0,0,1-.3955,1.5391,1.8368,1.8368,0,0,1-3.26-.9805h.9179a.8718.8718,0,0,0,.918.7461c.9,0,.9-.7734.9-1.3769,0-.711-.17-1.2334-.9268-1.2334a.88.88,0,0,0-.8281.5312h-.8643Z" transform="translate(-1.1758 -3.8643)"/><path class="cls-4" d="M106.4893,160.45h3.6464v.918l-2.17,5.4922H106.94l2.17-5.4922h-1.7022v.9277h-.9179Z" transform="translate(-1.1758 -3.8643)"/><path class="cls-4" d="M111.2285,160.45h3.6465v.918l-2.17,5.4922h-1.0264l2.17-5.4922h-1.7011v.9277h-.919Z" transform="translate(-1.1758 -3.8643)"/><path class="cls-4" d="M115.9678,160.45h3.6465v.918l-2.17,5.4922H116.418l2.17-5.4922h-1.7022v.9277h-.9179Z" transform="translate(-1.1758 -3.8643)"/><path class="cls-4" d="M125.12,165.0684a2.204,2.204,0,0,1-2.25,1.8457,2.2791,2.2791,0,0,1-2.0078-1.1524c-.207-.3779-.2793-.5674-.2793-2.1064s.0723-1.7285.2793-2.1074a2.3,2.3,0,0,1,4.2578.748h-1.0254a1.2958,1.2958,0,0,0-1.2246-.9277,1.2332,1.2332,0,0,0-.99.4687c-.252.3242-.3242.5039-.3242,1.8184s.0722,1.4941.3242,1.8183a1.2324,1.2324,0,0,0,.99.4678,1.3192,1.3192,0,0,0,1.2246-.873Z" transform="translate(-1.1758 -3.8643)"/><path class="cls-4" d="M68.7783,177.8975h-.8828l-.2793,1.9629h-.7021l.2793-1.9629h-.8291v-.5938h.8925l.1973-1.2969H66.626v-.5937h.8906l.2793-1.9629h.7031l-.2793,1.9629h.8819l.2793-1.9629h.7021l-.2793,1.9629h.8281v.5937h-.8906l-.1982,1.2969h.8281v.5938H69.48L69.2,179.86H68.499Zm.26-1.8907h-.8819l-.1982,1.2969h.8828Z" transform="translate(-1.1758 -3.8643)"/><path class="cls-4" d="M74.9092,178.4287H72.4785l-.4951,1.4317H70.957l2.3321-6.41h.8095l2.3321,6.41H75.4053Zm-.2793-.8652-.9268-2.7989h-.0185l-.9268,2.7989Z" transform="translate(-1.1758 -3.8643)"/><path class="cls-4" d="M77.3291,178.9951l2.5029-3.1328a.9489.9489,0,0,0,.2334-.6387.8872.8872,0,0,0-.8818-.9091.9316.9316,0,0,0-.9365.9267h-.918a1.8277,1.8277,0,1,1,3.6553-.0088,1.7138,1.7138,0,0,1-.3877,1.126l-2.0606,2.583h2.4483v.919H77.3291Z" transform="translate(-1.1758 -3.8643)"/><path class="cls-4" d="M82.2764,173.45h2.4843a1.6713,1.6713,0,0,1,1.9,1.7187,1.4009,1.4009,0,0,1-.9454,1.378v.0185a1.4364,1.4364,0,0,1,1.044,1.4766,1.75,1.75,0,0,1-1.7822,1.8184h-2.7Zm.9716.8643v1.8369h1.4043a.9251.9251,0,1,0,0-1.8369Zm0,2.7v1.9268h1.4952a.9664.9664,0,1,0,0-1.9268Z" transform="translate(-1.1758 -3.8643)"/><path class="cls-4" d="M89.8086,173.45H90.835l-1.3506,2.709h.0185a1.4756,1.4756,0,0,1,.4864-.08c.8095,0,1.5293.54,1.5293,1.7822a1.8436,1.8436,0,1,1-3.6719.0987,2.3907,2.3907,0,0,1,.2422-1.07Zm-1.044,4.4922c0,.7207.3594,1.0527.918,1.0527a.9312.9312,0,0,0,.918-1.0527c0-.7207-.4141-1.0528-.918-1.0528S88.7646,177.2217,88.7646,177.9424Z" transform="translate(-1.1758 -3.8643)"/><path class="cls-4" d="M92.7158,173.45h3.4121v.918H93.5791v1.4492a1.5694,1.5694,0,0,1,1.0273-.3506,1.5994,1.5994,0,0,1,1.1426.4678c.3516.3789.5039.6933.5039,1.7558a2.1279,2.1279,0,0,1-.3955,1.5391,1.8361,1.8361,0,0,1-3.2588-.9805h.918a.8718.8718,0,0,0,.918.7461c.9,0,.9-.7734.9-1.3769,0-.711-.1709-1.2334-.9278-1.2334a.8806.8806,0,0,0-.8281.5312h-.8633Z" transform="translate(-1.1758 -3.8643)"/><path class="cls-4" d="M97.5205,173.45h2.4854a1.6713,1.6713,0,0,1,1.8994,1.7187,1.4009,1.4009,0,0,1-.9453,1.378v.0185a1.4373,1.4373,0,0,1,1.0449,1.4766,1.7517,1.7517,0,0,1-1.7832,1.8184H97.5205Zm.9727.8643v1.8369h1.4043a.925.925,0,1,0,0-1.8369Zm0,2.7v1.9268h1.4941a.9666.9666,0,1,0,0-1.9268Z" transform="translate(-1.1758 -3.8643)"/><path class="cls-3" d="M287.585,134.45h2.2421a2.1708,2.1708,0,0,1,1.9532,1.08c.3154.54.3418.7832.3418,2.125,0,1.4394-.0713,1.6924-.3594,2.1426a2.2891,2.2891,0,0,1-1.999,1.0625H287.585Zm.9726,5.4912h1.1612a1.33,1.33,0,0,0,1.1884-.5576c.2158-.3242.2432-.5039.2432-1.6934,0-1.1523-.0274-1.4316-.2881-1.7822a1.2383,1.2383,0,0,0-1.1435-.54h-1.1612Z" transform="translate(-1.1758 -3.8643)"/><path class="cls-3" d="M293.626,135.5479a2.3244,2.3244,0,0,1,4.0146,0c.2071.3789.2793.5673.2793,2.1074s-.0722,1.7285-.2793,2.1064a2.3244,2.3244,0,0,1-4.0146,0c-.2071-.3779-.2793-.5674-.2793-2.1064S293.4189,135.9268,293.626,135.5479Zm1.0166,3.9257a1.2829,1.2829,0,0,0,1.9814,0c.252-.3242.3233-.5039.3233-1.8183s-.0713-1.4942-.3233-1.8184a1.2814,1.2814,0,0,0-1.9814,0c-.252.3242-.3233.5039-.3233,1.8184S294.3906,139.1494,294.6426,139.4736Z" transform="translate(-1.1758 -3.8643)"/><path class="cls-3" d="M299.4238,135.5479a2.3245,2.3245,0,0,1,4.0147,0c.207.3789.2793.5673.2793,2.1074s-.0723,1.7285-.2793,2.1064a2.3245,2.3245,0,0,1-4.0147,0c-.207-.3779-.2793-.5674-.2793-2.1064S299.2168,135.9268,299.4238,135.5479Zm1.0166,3.9257a1.2831,1.2831,0,0,0,1.9815,0c.2519-.3242.3232-.5039.3232-1.8183s-.0713-1.4942-.3232-1.8184a1.2815,1.2815,0,0,0-1.9815,0c-.2519.3242-.3232.5039-.3232,1.8184S300.1885,139.1494,300.44,139.4736Z" transform="translate(-1.1758 -3.8643)"/><path class="cls-3" d="M305.1143,134.45h2.5019a1.8862,1.8862,0,0,1,1.3057.4228,1.8457,1.8457,0,0,1-.6026,3.1416l1.4854,2.8458h-1.1524l-1.3242-2.7374h-1.2422V140.86h-.9716Zm.9716,2.8086h1.4678a.9926.9926,0,0,0,1.0889-1.0176.8658.8658,0,0,0-.3233-.7285,1.0855,1.0855,0,0,0-.7119-.1982h-1.5215Z" transform="translate(-1.1758 -3.8643)"/><path class="cls-3" d="M314.4775,138.06H311.94V140.86h-.9727v-6.41h.9727v2.7461h2.538V134.45h.9727v6.41h-.9727Z" transform="translate(-1.1758 -3.8643)"/><path class="cls-3" d="M317.0264,134.45h.9716v6.41h-.9716Z" transform="translate(-1.1758 -3.8643)"/><path class="cls-3" d="M319.5615,134.45h.918l2.8984,4.5547h.0186V134.45h.9717v6.41h-.918l-2.8984-4.5557h-.0186V140.86h-.9717Z" transform="translate(-1.1758 -3.8643)"/><path class="cls-3" d="M328.0635,137.3311h2.2783v1.3046a2.3011,2.3011,0,0,1-4.2949,1.126c-.2071-.3779-.2793-.5674-.2793-2.1064s.0722-1.7285.2793-2.1074a2.3,2.3,0,0,1,4.2588.748h-1.0264a1.2948,1.2948,0,0,0-1.2246-.9277,1.2347,1.2347,0,0,0-.99.4687c-.252.3242-.3243.5039-.3243,1.8184s.0723,1.4941.3243,1.8183a1.2339,1.2339,0,0,0,.99.4678,1.2989,1.2989,0,0,0,1.3144-1.3594v-.333h-1.3056Z" transform="translate(-1.1758 -3.8643)"/><path class="cls-3" d="M331.7148,134.45h4.0967v.918h-3.124v1.8281h2.665v.8633h-2.665v1.8818h3.124v.919h-4.0967Z" transform="translate(-1.1758 -3.8643)"/><path class="cls-4" d="M291.9062,152.0684a2.2042,2.2042,0,0,1-2.2509,1.8457,2.2776,2.2776,0,0,1-2.0069-1.1524c-.207-.3779-.2793-.5674-.2793-2.1064s.0723-1.7285.2793-2.1074a2.3,2.3,0,0,1,4.2578.748H290.88a1.294,1.294,0,0,0-1.2246-.9277,1.2351,1.2351,0,0,0-.99.4687c-.2519.3242-.3232.5039-.3232,1.8184s.0713,1.4941.3232,1.8183a1.2342,1.2342,0,0,0,.99.4678,1.3174,1.3174,0,0,0,1.2246-.873Z" transform="translate(-1.1758 -3.8643)"/><path class="cls-4" d="M293.0039,147.45h.918l1.8369,4.1768L297.56,147.45h.9179v6.41h-.9716v-3.9981h-.0186l-1.3408,3.0791h-.8106l-1.3418-3.0791h-.0175V153.86h-.9727Z" transform="translate(-1.1758 -3.8643)"/><path class="cls-4" d="M301.4346,151.2217l-1.9268-3.7715h1.0264l1.3594,2.8447,1.3593-2.8447h1.0264l-1.9268,3.7715V153.86h-.9179Z" transform="translate(-1.1758 -3.8643)"/><path class="cls-4" d="M305.3018,147.45h.9716v3.3037h.0186L308.93,147.45h1.1523l-2.0527,2.5293,2.2686,3.8809h-1.1524l-1.7461-3.1329-1.126,1.1787V153.86h-.9716Z" transform="translate(-1.1758 -3.8643)"/><path class="cls-4" d="M313.1582,149.2412a1.8186,1.8186,0,1,1,3.6367,0v2.8272a1.8186,1.8186,0,1,1-3.6367,0Zm2.7188.0547a.9037.9037,0,1,0-1.8008,0v2.7187a.9037.9037,0,1,0,1.8008,0Z" transform="translate(-1.1758 -3.8643)"/><path class="cls-4" d="M318.0078,152.9414h.918v.919l-.918.666Z" transform="translate(-1.1758 -3.8643)"/><path class="cls-4" d="M322.1748,152.042l2.1426-4.5918h1.0264l-2.17,4.5918h1.6748v-1.8457h.918v1.8457h.5137v.8633h-.5137v.9551h-.918v-.9551h-2.6738Z" transform="translate(-1.1758 -3.8643)"/><path class="cls-4" d="M328.6035,150.1514h.3145a.903.903,0,0,0,.99-.91.9275.9275,0,0,0-.9355-.9267.8942.8942,0,0,0-.8829.7744h-.9179a1.83,1.83,0,0,1,3.6552.1347,1.4725,1.4725,0,0,1-.6845,1.3233,1.6153,1.6153,0,0,1,.7568,1.4043,1.8821,1.8821,0,0,1-1.9453,1.9629,1.825,1.825,0,0,1-1.8184-1.6475h.918a.99.99,0,1,0,.9365-1.3057h-.3867Z" transform="translate(-1.1758 -3.8643)"/><path class="cls-4" d="M332.14,152.9414h.919v.919h-.919Z" transform="translate(-1.1758 -3.8643)"/><path class="cls-4" d="M334.3711,147.45h3.4121v.918h-2.5478v1.4492a1.5684,1.5684,0,0,1,1.0263-.3506,1.6,1.6,0,0,1,1.1436.4678c.3506.3789.5039.6933.5039,1.7558a2.1279,2.1279,0,0,1-.3955,1.5391,1.8369,1.8369,0,0,1-3.26-.9805h.919a.871.871,0,0,0,.9179.7461c.9,0,.9-.7734.9-1.3769,0-.711-.1709-1.2334-.9277-1.2334a.88.88,0,0,0-.8281.5312h-.8643Z" transform="translate(-1.1758 -3.8643)"/><path class="cls-4" d="M340.3438,150.1514h.3144a.903.903,0,0,0,.99-.91.9275.9275,0,0,0-.9355-.9267.8941.8941,0,0,0-.8828.7744h-.918a1.83,1.83,0,0,1,3.6553.1347,1.4724,1.4724,0,0,1-.6846,1.3233,1.6151,1.6151,0,0,1,.7568,1.4043,1.8821,1.8821,0,0,1-1.9453,1.9629,1.8249,1.8249,0,0,1-1.8183-1.6475h.9179a.99.99,0,1,0,.9366-1.3057h-.3867Z" transform="translate(-1.1758 -3.8643)"/><path class="cls-4" d="M343.8887,152.9414h.9179v.919l-.9179.666Z" transform="translate(-1.1758 -3.8643)"/><path class="cls-4" d="M349.9824,153.86h-1.0263l1.3505-2.711h-.0185a1.4323,1.4323,0,0,1-.4863.082c-.81,0-1.53-.541-1.53-1.7832a1.844,1.844,0,1,1,3.6728-.0986,2.3983,2.3983,0,0,1-.2431,1.0713Zm1.044-4.4922c0-.7207-.36-1.0537-.918-1.0537a.9327.9327,0,0,0-.9189,1.0537c0,.72.415,1.0527.9189,1.0527S351.0264,150.0879,351.0264,149.3682Z" transform="translate(-1.1758 -3.8643)"/><path class="cls-4" d="M353.0947,147.45h3.6465v.918l-2.17,5.4922h-1.0264l2.17-5.4922h-1.7021v.9277h-.918Z" transform="translate(-1.1758 -3.8643)"/><path class="cls-4" d="M357.1719,152.9414h.9189v.919h-.9189Z" transform="translate(-1.1758 -3.8643)"/><path class="cls-4" d="M359.4111,152.9951l2.503-3.1328a.9511.9511,0,0,0,.2343-.6387.8881.8881,0,0,0-.8828-.9091.9307.9307,0,0,0-.9355.9267h-.919a1.8277,1.8277,0,1,1,3.6553-.0088,1.7182,1.7182,0,0,1-.3867,1.126l-2.0615,2.583h2.4482v.919h-3.6553Z" transform="translate(-1.1758 -3.8643)"/><path class="cls-4" d="M364.24,147.45h3.4121v.918h-2.5478v1.4492a1.5651,1.5651,0,0,1,1.0264-.3506,1.5975,1.5975,0,0,1,1.1425.4678c.3516.3789.5049.6933.5049,1.7558a2.1226,2.1226,0,0,1-.3965,1.5391,1.8361,1.8361,0,0,1-3.2588-.9805h.918a.8718.8718,0,0,0,.918.7461c.9,0,.9-.7734.9-1.3769,0-.711-.1709-1.2334-.9268-1.2334a.8788.8788,0,0,0-.8281.5312H364.24Z" transform="translate(-1.1758 -3.8643)"/><path class="cls-4" d="M368.97,152.9414h.919v.919l-.919.666Z" transform="translate(-1.1758 -3.8643)"/><path class="cls-4" d="M373.3721,149.2412a1.8186,1.8186,0,1,1,3.6367,0v2.8272a1.8186,1.8186,0,1,1-3.6367,0Zm2.7187.0547a.9037.9037,0,1,0-1.8008,0v2.7187a.9037.9037,0,1,0,1.8008,0Z" transform="translate(-1.1758 -3.8643)"/><path class="cls-4" d="M287.585,160.45h2.3232a2.1054,2.1054,0,0,1,1.44.4492,1.91,1.91,0,0,1,.6924,1.5313,1.9317,1.9317,0,0,1-2.0068,1.9257h-1.4766v2.504h-.9726Zm.9726,2.9883h1.44a1.0152,1.0152,0,0,0,1.0713-1.0352.9493.9493,0,0,0-.414-.8554,1.1322,1.1322,0,0,0-.6934-.18h-1.4043Z" transform="translate(-1.1758 -3.8643)"/><path class="cls-4" d="M295.5957,166.4541h-.0186c-.1884.3164-.5039.46-1.125.46a1.4285,1.4285,0,0,1-1.6113-1.3955,1.3388,1.3388,0,0,1,1.4854-1.3506h1.27V163.69c0-.4316-.2793-.584-.9365-.584-.4766,0-.7022.09-.8643.3506l-.72-.55a1.7242,1.7242,0,0,1,1.5391-.666c1.125,0,1.8994.3789,1.8994,1.5039V166.86h-.918Zm0-1.5293h-1.0986c-.54,0-.792.2148-.792.5488,0,.3057.2431.5762.8642.5762.7657,0,1.0264-.081,1.0264-.793Z" transform="translate(-1.1758 -3.8643)"/><path class="cls-4" d="M297.9336,162.2959h.918v.4863h.0175a1.4612,1.4612,0,0,1,1.1885-.541,1.5309,1.5309,0,0,1,1.5215,1.585V166.86h-.918v-2.7188a.9078.9078,0,1,0-1.8095,0V166.86h-.918Z" transform="translate(-1.1758 -3.8643)"/><path class="cls-4" d="M303.0234,160.9092h.918v1.3867h.666v.7012h-.666v2.6562c0,.252.0986.3418.3242.3418h.3418v.8653H304.13a1.0448,1.0448,0,0,1-1.1065-1.126v-2.7373h-.46v-.7012h.46Z" transform="translate(-1.1758 -3.8643)"/><path class="cls-4" d="M305.9844,162.8271a1.934,1.934,0,0,1,2.7734,0,3.3439,3.3439,0,0,1,0,3.502,1.936,1.936,0,0,1-2.7734,0,3.3439,3.3439,0,0,1,0-3.502Zm2.125.6661a.983.983,0,0,0-1.4766,0c-.1709.2422-.2246.4228-.2246,1.08,0,.6661.0537.8457.2246,1.09a.9869.9869,0,0,0,1.4766,0c.1709-.2442.2246-.4238.2246-1.0811C308.334,163.916,308.28,163.7354,308.1094,163.4932Z" transform="translate(-1.1758 -3.8643)"/><path class="cls-4" d="M310.4854,162.2959h.9189v.4863h.0176a1.46,1.46,0,0,1,1.1885-.541,1.5314,1.5314,0,0,1,1.5214,1.585V166.86h-.9189v-2.7188a.9074.9074,0,1,0-1.8086,0V166.86h-.9189Z" transform="translate(-1.1758 -3.8643)"/><path class="cls-4" d="M316.2461,164.9248a1.022,1.022,0,0,0,1.0889,1.125,1.4309,1.4309,0,0,0,.999-.4414l.666.5674a2.1,2.1,0,0,1-1.6475.7383c-.9355,0-2.0254-.45-2.0254-2.3233,0-1.7734,1-2.35,1.8819-2.35a1.8534,1.8534,0,0,1,1.8818,1.9268v.7568Zm1.9258-.7568c-.0264-.6934-.4229-1.0616-.9629-1.0616a.9589.9589,0,0,0-.9629,1.0616Z" transform="translate(-1.1758 -3.8643)"/><path class="cls-4" d="M323.7246,161.4229l-.9092.666v-.9727l.9092-.666h.919v6.41h-.919Z" transform="translate(-1.1758 -3.8643)"/><path class="cls-4" d="M327.7764,163.1514h.3154a.903.903,0,0,0,.99-.91.9277.9277,0,0,0-.9365-.9267.8931.8931,0,0,0-.8818.7744h-.919a1.83,1.83,0,0,1,3.6553.1347,1.4714,1.4714,0,0,1-.6836,1.3233,1.6144,1.6144,0,0,1,.7559,1.4043,1.8819,1.8819,0,0,1-1.9444,1.9629,1.8249,1.8249,0,0,1-1.8183-1.6475h.9179a.9572.9572,0,0,0,.9541.7285,1.0178,1.0178,0,0,0-.0175-2.0342h-.3877Z" transform="translate(-1.1758 -3.8643)"/><path class="cls-4" d="M331.2441,160.45h3.6465v.918l-2.17,5.4922h-1.0264l2.17-5.4922h-1.7012v.9277h-.919Z" transform="translate(-1.1758 -3.8643)"/><path class="cls-4" d="M335.9785,160.45h3.4121v.918h-2.5478v1.4492a1.5684,1.5684,0,0,1,1.0263-.3506,1.6,1.6,0,0,1,1.1436.4678c.3506.3789.5039.6933.5039,1.7558a2.1279,2.1279,0,0,1-.3955,1.5391,1.8369,1.8369,0,0,1-3.26-.9805h.919a.871.871,0,0,0,.9179.7461c.9,0,.9-.7734.9-1.3769,0-.711-.1709-1.2334-.9277-1.2334a.88.88,0,0,0-.8281.5312h-.8643Z" transform="translate(-1.1758 -3.8643)"/><path class="cls-4" d="M345.2041,165.0684a2.2043,2.2043,0,0,1-2.251,1.8457,2.2792,2.2792,0,0,1-2.0078-1.1524c-.207-.3779-.2793-.5674-.2793-2.1064s.0723-1.7285.2793-2.1074a2.3,2.3,0,0,1,4.2588.748h-1.0264a1.2948,1.2948,0,0,0-1.2246-.9277,1.2347,1.2347,0,0,0-.99.4687c-.252.3242-.3242.5039-.3242,1.8184s.0722,1.4941.3242,1.8183a1.2339,1.2339,0,0,0,.99.4678,1.3192,1.3192,0,0,0,1.2246-.873Z" transform="translate(-1.1758 -3.8643)"/><path class="cls-4" d="M289.35,177.8975h-.8818l-.2793,1.9629h-.7022l.2793-1.9629h-.8291v-.5938h.8916l.1983-1.2969h-.8282v-.5937h.8907l.2793-1.9629h.7021l-.2793,1.9629h.8828l.2793-1.9629h.7022l-.2793,1.9629h.8281v.5937h-.8916l-.1973,1.2969h.8282v.5938h-.8916l-.2793,1.9629H289.07Zm.2608-1.8907h-.8819l-.1982,1.2969h.8828Z" transform="translate(-1.1758 -3.8643)"/><path class="cls-4" d="M292.3115,173.45h4.0967v.918h-3.124v1.8906h2.665v.8642h-2.665V179.86h-.9727Z" transform="translate(-1.1758 -3.8643)"/><path class="cls-4" d="M298.9844,179.86H297.958l1.3506-2.711H299.29a1.4319,1.4319,0,0,1-.4863.082c-.81,0-1.53-.541-1.53-1.7832a1.8441,1.8441,0,1,1,3.6729-.0986,2.3984,2.3984,0,0,1-.2432,1.0713Zm1.0439-4.4922c0-.7207-.36-1.0537-.9179-1.0537a.9327.9327,0,0,0-.919,1.0537c0,.72.415,1.0527.919,1.0527S300.0283,176.0879,300.0283,175.3682Z" transform="translate(-1.1758 -3.8643)"/><path class="cls-4" d="M303.7354,179.86H302.709l1.3506-2.711h-.0176a1.4365,1.4365,0,0,1-.4863.082c-.8106,0-1.53-.541-1.53-1.7832a1.835,1.835,0,0,1,1.8906-2.0527,1.8535,1.8535,0,0,1,1.7822,1.9541,2.3983,2.3983,0,0,1-.2431,1.0713Zm1.0449-4.4922c0-.7207-.36-1.0537-.919-1.0537a.9325.9325,0,0,0-.9179,1.0537c0,.72.414,1.0527.9179,1.0527S304.78,176.0879,304.78,175.3682Z" transform="translate(-1.1758 -3.8643)"/><path class="cls-4" d="M306.9619,173.45h4.0957v.918h-3.124v1.8906h2.665v.8642h-2.665V179.86h-.9717Z" transform="translate(-1.1758 -3.8643)"/><path class="cls-4" d="M311.9082,178.9951l2.5029-3.1328a.9541.9541,0,0,0,.2334-.6387.8878.8878,0,0,0-.8818-.9091.9316.9316,0,0,0-.9365.9267h-.918a1.8277,1.8277,0,1,1,3.6553-.0088,1.7138,1.7138,0,0,1-.3877,1.126l-2.0615,2.583h2.4492v.919h-3.6553Z" transform="translate(-1.1758 -3.8643)"/><path class="cls-4" d="M317.8486,174.4229l-.9091.666v-.9727l.9091-.666h.919v6.41h-.919Z" transform="translate(-1.1758 -3.8643)"/><path class="cls-4" d="M398.5293,134.45h2.4853a1.6713,1.6713,0,0,1,1.9,1.7187,1.4009,1.4009,0,0,1-.9453,1.378v.0185a1.4365,1.4365,0,0,1,1.0439,1.4766,1.7509,1.7509,0,0,1-1.7822,1.8184h-2.7012Zm.9727.8643v1.8369h1.4042a.925.925,0,1,0,0-1.8369Zm0,2.7v1.9268h1.4941a.9665.9665,0,1,0,0-1.9268Z" transform="translate(-1.1758 -3.8643)"/><path class="cls-4" d="M404.2988,134.45h.9727v5.4912h3.124v.919h-4.0967Z" transform="translate(-1.1758 -3.8643)"/><path class="cls-4" d="M413.2129,139.4287h-2.4307l-.4951,1.4317h-1.0264l2.3321-6.41h.81l2.3311,6.41H413.709Zm-.2783-.8652-.9278-2.7989h-.0175l-.9278,2.7989Z" transform="translate(-1.1758 -3.8643)"/><path class="cls-4" d="M419.9824,139.0684a2.2043,2.2043,0,0,1-2.251,1.8457,2.2774,2.2774,0,0,1-2.0068-1.1524c-.207-.3779-.2793-.5674-.2793-2.1064s.0723-1.7285.2793-2.1074a2.3,2.3,0,0,1,4.2578.748h-1.0263a1.295,1.295,0,0,0-1.2247-.9277,1.235,1.235,0,0,0-.99.4687c-.2519.3242-.3232.5039-.3232,1.8184s.0713,1.4941.3232,1.8183a1.2342,1.2342,0,0,0,.99.4678,1.3175,1.3175,0,0,0,1.2247-.873Z" transform="translate(-1.1758 -3.8643)"/><path class="cls-4" d="M421.08,134.45h.9726v3.3037h.0176l2.6377-3.3037H425.86l-2.0528,2.5293,2.2695,3.8809h-1.1523l-1.7471-3.1329-1.125,1.1787V140.86H421.08Z" transform="translate(-1.1758 -3.8643)"/><path class="cls-4" d="M402.8506,152.0684a2.2044,2.2044,0,0,1-2.251,1.8457,2.2773,2.2773,0,0,1-2.0068-1.1524c-.2071-.3779-.2793-.5674-.2793-2.1064s.0722-1.7285.2793-2.1074a2.3,2.3,0,0,1,4.2578.748h-1.0264a1.2948,1.2948,0,0,0-1.2246-.9277,1.2347,1.2347,0,0,0-.99.4687c-.252.3242-.3233.5039-.3233,1.8184s.0713,1.4941.3233,1.8183a1.2339,1.2339,0,0,0,.99.4678,1.3174,1.3174,0,0,0,1.2246-.873Z" transform="translate(-1.1758 -3.8643)"/><path class="cls-4" d="M403.9482,147.45h.918l1.8369,4.1768,1.8008-4.1768h.918v6.41H408.45v-3.9981h-.0186l-1.3418,3.0791h-.81l-1.3418-3.0791h-.0176V153.86h-.9727Z" transform="translate(-1.1758 -3.8643)"/><path class="cls-4" d="M412.3789,151.2217l-1.9268-3.7715h1.0264l1.3594,2.8447,1.3594-2.8447h1.0263l-1.9267,3.7715V153.86h-.918Z" transform="translate(-1.1758 -3.8643)"/><path class="cls-4" d="M416.2461,147.45h.9717v3.3037h.0185l2.6377-3.3037h1.1524l-2.0528,2.5293,2.2686,3.8809H420.09l-1.746-3.1329-1.126,1.1787V153.86h-.9717Z" transform="translate(-1.1758 -3.8643)"/><path class="cls-4" d="M424.1025,149.2412a1.8186,1.8186,0,1,1,3.6368,0v2.8272a1.8186,1.8186,0,1,1-3.6368,0Zm2.7188.0547a.9037.9037,0,1,0-1.8008,0v2.7187a.9037.9037,0,1,0,1.8008,0Z" transform="translate(-1.1758 -3.8643)"/><path class="cls-4" d="M428.9521,152.9414h.919v.919l-.919.666Z" transform="translate(-1.1758 -3.8643)"/><path class="cls-4" d="M433.3535,149.2412a1.8186,1.8186,0,1,1,3.6367,0v2.8272a1.8186,1.8186,0,1,1-3.6367,0Zm2.7188.0547a.9037.9037,0,1,0-1.8008,0v2.7187a.9037.9037,0,1,0,1.8008,0Z" transform="translate(-1.1758 -3.8643)"/><path class="cls-4" d="M438.2031,152.9414h.919v.919l-.919.666Z" transform="translate(-1.1758 -3.8643)"/><path class="cls-4" d="M442.6045,149.2412a1.8186,1.8186,0,1,1,3.6367,0v2.8272a1.8186,1.8186,0,1,1-3.6367,0Zm2.7187.0547a.9037.9037,0,1,0-1.8007,0v2.7187a.9036.9036,0,1,0,1.8007,0Z" transform="translate(-1.1758 -3.8643)"/><path class="cls-4" d="M447.4541,152.9414h.918v.919l-.918.666Z" transform="translate(-1.1758 -3.8643)"/><path class="cls-4" d="M453.26,148.4229l-.9092.666v-.9727l.9092-.666h.9179v6.41H453.26Z" transform="translate(-1.1758 -3.8643)"/><path class="cls-4" d="M456.0576,149.2412a1.8186,1.8186,0,1,1,3.6367,0v2.8272a1.8186,1.8186,0,1,1-3.6367,0Zm2.7188.0547a.9037.9037,0,1,0-1.8008,0v2.7187a.9037.9037,0,1,0,1.8008,0Z" transform="translate(-1.1758 -3.8643)"/><path class="cls-4" d="M460.8643,149.2412a1.8186,1.8186,0,1,1,3.6367,0v2.8272a1.8186,1.8186,0,1,1-3.6367,0Zm2.7187.0547a.9037.9037,0,1,0-1.8008,0v2.7187a.9037.9037,0,1,0,1.8008,0Z" transform="translate(-1.1758 -3.8643)"/><path class="cls-4" d="M398.5293,160.45h2.3232a2.1057,2.1057,0,0,1,1.44.4492,1.91,1.91,0,0,1,.6924,1.5313,1.9317,1.9317,0,0,1-2.0069,1.9257H399.502v2.504h-.9727Zm.9727,2.9883h1.44a1.0153,1.0153,0,0,0,1.0713-1.0352.9492.9492,0,0,0-.4141-.8554,1.134,1.134,0,0,0-.6934-.18H399.502Z" transform="translate(-1.1758 -3.8643)"/><path class="cls-4" d="M406.54,166.4541h-.0185c-.1885.3164-.5039.46-1.125.46a1.4284,1.4284,0,0,1-1.6113-1.3955,1.3388,1.3388,0,0,1,1.4853-1.3506H406.54V163.69c0-.4316-.2793-.584-.9365-.584-.4765,0-.7021.09-.8642.3506l-.72-.55a1.7242,1.7242,0,0,1,1.5391-.666c1.125,0,1.8994.3789,1.8994,1.5039V166.86h-.918Zm0-1.5293h-1.0986c-.54,0-.792.2148-.792.5488,0,.3057.2432.5762.8643.5762.7656,0,1.0263-.081,1.0263-.793Z" transform="translate(-1.1758 -3.8643)"/><path class="cls-4" d="M408.8779,162.2959h.918v.4863h.0176a1.46,1.46,0,0,1,1.1885-.541,1.5308,1.5308,0,0,1,1.5214,1.585V166.86h-.9179v-2.7188a.9079.9079,0,1,0-1.81,0V166.86h-.918Z" transform="translate(-1.1758 -3.8643)"/><path class="cls-4" d="M413.9668,160.9092h.9189v1.3867h.6661v.7012h-.6661v2.6562c0,.252.0987.3418.3243.3418h.3418v.8653h-.4776a1.0455,1.0455,0,0,1-1.1074-1.126v-2.7373h-.459v-.7012h.459Z" transform="translate(-1.1758 -3.8643)"/><path class="cls-4" d="M416.9287,162.8271a1.934,1.934,0,0,1,2.7734,0,3.3433,3.3433,0,0,1,0,3.502,1.936,1.936,0,0,1-2.7734,0,3.3439,3.3439,0,0,1,0-3.502Zm2.125.6661a.983.983,0,0,0-1.4766,0c-.1709.2422-.2246.4228-.2246,1.08,0,.6661.0537.8457.2246,1.09a.9869.9869,0,0,0,1.4766,0c.1709-.2442.2246-.4238.2246-1.0811C419.2783,163.916,419.2246,163.7354,419.0537,163.4932Z" transform="translate(-1.1758 -3.8643)"/><path class="cls-4" d="M421.43,162.2959h.918v.4863h.0185a1.46,1.46,0,0,1,1.1885-.541,1.5315,1.5315,0,0,1,1.5215,1.585V166.86h-.919v-2.7188a.9078.9078,0,1,0-1.81,0V166.86h-.918Z" transform="translate(-1.1758 -3.8643)"/><path class="cls-4" d="M427.19,164.9248a1.022,1.022,0,0,0,1.0889,1.125,1.4307,1.4307,0,0,0,.999-.4414l.666.5674a2.1,2.1,0,0,1-1.6474.7383c-.9356,0-2.0254-.45-2.0254-2.3233,0-1.7734.999-2.35,1.8818-2.35a1.8535,1.8535,0,0,1,1.8819,1.9268v.7568Zm1.9258-.7568c-.0264-.6934-.4228-1.0616-.9629-1.0616a.9589.9589,0,0,0-.9629,1.0616Z" transform="translate(-1.1758 -3.8643)"/><path class="cls-4" d="M434.6689,161.4229l-.9091.666v-.9727l.9091-.666h.918v6.41h-.918Z" transform="translate(-1.1758 -3.8643)"/><path class="cls-4" d="M437.4316,160.45h3.6465v.918l-2.17,5.4922h-1.0264l2.17-5.4922h-1.7012v.9277h-.919Z" transform="translate(-1.1758 -3.8643)"/><path class="cls-4" d="M443.7383,166.86h-1.0264l1.3506-2.711h-.0186a1.4319,1.4319,0,0,1-.4863.082c-.81,0-1.53-.541-1.53-1.7832A1.8441,1.8441,0,1,1,445.7,162.35a2.3984,2.3984,0,0,1-.2432,1.0713Zm1.0439-4.4922c0-.7207-.36-1.0537-.9179-1.0537a.9327.9327,0,0,0-.919,1.0537c0,.72.4141,1.0527.919,1.0527S444.7822,163.0879,444.7822,162.3682Z" transform="translate(-1.1758 -3.8643)"/><path class="cls-4" d="M446.668,163.9072h2.71v.918h-2.71Z" transform="translate(-1.1758 -3.8643)"/><path class="cls-4" d="M451.3066,161.4229l-.9091.666v-.9727l.9091-.666h.918v6.41h-.918Z" transform="translate(-1.1758 -3.8643)"/><path class="cls-4" d="M455.9609,160.45h1.0264l-1.3506,2.709h.0186a1.4789,1.4789,0,0,1,.4863-.08c.81,0,1.53.54,1.53,1.7822a1.8441,1.8441,0,1,1-3.6729.0987,2.3915,2.3915,0,0,1,.2432-1.07Zm-1.0439,4.4922c0,.7207.36,1.0527.918,1.0527a.9318.9318,0,0,0,.9189-1.0527c0-.7207-.415-1.0528-.9189-1.0528S454.917,164.2217,454.917,164.9424Z" transform="translate(-1.1758 -3.8643)"/><path class="cls-4" d="M465.5107,165.0684a2.2042,2.2042,0,0,1-2.2509,1.8457,2.2776,2.2776,0,0,1-2.0069-1.1524c-.207-.3779-.2793-.5674-.2793-2.1064s.0723-1.7285.2793-2.1074a2.3,2.3,0,0,1,4.2578.748h-1.0263a1.2948,1.2948,0,0,0-1.2246-.9277,1.2351,1.2351,0,0,0-.99.4687c-.2519.3242-.3232.5039-.3232,1.8184s.0713,1.4941.3232,1.8183a1.2342,1.2342,0,0,0,.99.4678,1.3174,1.3174,0,0,0,1.2246-.873Z" transform="translate(-1.1758 -3.8643)"/><path class="cls-4" d="M400.2939,177.8975h-.8818l-.2793,1.9629h-.7021l.2793-1.9629h-.8291v-.5938h.8916l.1982-1.2969h-.8281v-.5937h.8906l.2793-1.9629h.7021l-.2792,1.9629h.8828l.2793-1.9629H401.6l-.2793,1.9629h.8281v.5937h-.8916l-.1972,1.2969h.8281v.5938h-.8916l-.2793,1.9629h-.7022Zm.2608-1.8907h-.8818l-.1983,1.2969h.8828Z" transform="translate(-1.1758 -3.8643)"/><path class="cls-4" d="M403.0137,178.9951l2.5029-3.1328a.9513.9513,0,0,0,.2344-.6387.8881.8881,0,0,0-.8828-.9091.9307.9307,0,0,0-.9356.9267h-.9189a1.8277,1.8277,0,1,1,3.6552-.0088,1.7177,1.7177,0,0,1-.3867,1.126l-2.0615,2.583h2.4482v.919h-3.6552Z" transform="translate(-1.1758 -3.8643)"/><path class="cls-4" d="M409.1182,176.1514h.3144a.9031.9031,0,0,0,.99-.91.9275.9275,0,0,0-.9356-.9267.8941.8941,0,0,0-.8828.7744h-.918a1.83,1.83,0,0,1,3.6553.1347,1.4724,1.4724,0,0,1-.6846,1.3233,1.6152,1.6152,0,0,1,.7569,1.4043,1.8821,1.8821,0,0,1-1.9453,1.9629,1.825,1.825,0,0,1-1.8184-1.6475h.918a.9895.9895,0,1,0,.9365-1.3057h-.3867Z" transform="translate(-1.1758 -3.8643)"/><path class="cls-4" d="M413.6943,174.4229l-.9091.666v-.9727l.9091-.666h.918v6.41h-.918Z" transform="translate(-1.1758 -3.8643)"/><path class="cls-4" d="M416.6943,173.45h4.0967v.918h-3.124v1.8906h2.665v.8642h-2.665V179.86h-.9727Z" transform="translate(-1.1758 -3.8643)"/><path class="cls-4" d="M421.6406,178.9951l2.503-3.1328a.9511.9511,0,0,0,.2343-.6387.8881.8881,0,0,0-.8828-.9091.9307.9307,0,0,0-.9355.9267h-.919a1.8277,1.8277,0,1,1,3.6553-.0088,1.7182,1.7182,0,0,1-.3867,1.126l-2.0615,2.583h2.4482v.919h-3.6553Z" transform="translate(-1.1758 -3.8643)"/><path class="cls-4" d="M426.4121,175.2412a1.8186,1.8186,0,1,1,3.6367,0v2.8272a1.8186,1.8186,0,1,1-3.6367,0Zm2.7188.0547a.9037.9037,0,1,0-1.8008,0v2.7187a.9037.9037,0,1,0,1.8008,0Z" transform="translate(-1.1758 -3.8643)"/><path class="cls-2" d="M176.9453,134.45h.918l2.8994,4.5547h.0176V134.45h.9726v6.41h-.9179l-2.9-4.5557h-.0175V140.86h-.9727Z" transform="translate(-1.1758 -3.8643)"/><path class="cls-2" d="M183.3271,134.45h4.0967v.918H184.3v1.8281h2.665v.8633H184.3v1.8818h3.124v.919h-4.0967Z" transform="translate(-1.1758 -3.8643)"/><path class="cls-2" d="M188.3359,134.45h1.0264l1.0088,4.5547h.0176l1.2422-4.5547h.7021l1.2422,4.5547h.0186l1.0078-4.5547h1.0263l-1.6025,6.41h-.81l-1.2246-4.6192h-.0176L190.749,140.86h-.81Z" transform="translate(-1.1758 -3.8643)"/><path class="cls-2" d="M198.3447,134.45h1.0264l1.0078,4.5547h.0186L201.64,134.45h.7022l1.2422,4.5547h.0176L204.61,134.45h1.0263l-1.6025,6.41h-.8106l-1.2246-4.6192h-.0176l-1.2246,4.6192h-.8095Z" transform="translate(-1.1758 -3.8643)"/><path class="cls-2" d="M209.6484,139.4287h-2.4306l-.4951,1.4317h-1.0264l2.332-6.41h.81l2.332,6.41h-1.0263Zm-.2793-.8652-.9267-2.7989h-.0186l-.9267,2.7989Z" transform="translate(-1.1758 -3.8643)"/><path class="cls-2" d="M212.2715,134.45h.9726v5.4912h3.1241v.919h-4.0967Z" transform="translate(-1.1758 -3.8643)"/><path class="cls-2" d="M217.583,134.45h.9727v5.4912h3.124v.919H217.583Z" transform="translate(-1.1758 -3.8643)"/><path class="cls-2" d="M223.2412,139.3018a2.9518,2.9518,0,0,0,1.8184.64c.7929,0,1.27-.36,1.27-.8916a.8363.8363,0,0,0-.8369-.8633c-.2881-.0371-.5137-.0722-.8467-.1172a1.7769,1.7769,0,0,1-1.7012-1.8007,1.8567,1.8567,0,0,1,2.0889-1.8731,3.7609,3.7609,0,0,1,2.0791.666l-.54.8018a2.9936,2.9936,0,0,0-1.584-.4951c-.5947,0-1.0713.3066-1.0713.9179,0,.36.2607.7207.9092.82.1709.0264.414.0625.72.0977a1.8276,1.8276,0,0,1,1.7559,1.8457c0,1.18-.8731,1.8643-2.251,1.8643a3.5922,3.5922,0,0,1-2.4483-.8819Z" transform="translate(-1.1758 -3.8643)"/><path class="cls-4" d="M181.2666,152.0684a2.2043,2.2043,0,0,1-2.251,1.8457,2.2774,2.2774,0,0,1-2.0068-1.1524c-.207-.3779-.2793-.5674-.2793-2.1064s.0723-1.7285.2793-2.1074a2.3,2.3,0,0,1,4.2578.748H180.24a1.2939,1.2939,0,0,0-1.2246-.9277,1.2347,1.2347,0,0,0-.99.4687c-.252.3242-.3233.5039-.3233,1.8184s.0713,1.4941.3233,1.8183a1.2339,1.2339,0,0,0,.99.4678,1.3174,1.3174,0,0,0,1.2246-.873Z" transform="translate(-1.1758 -3.8643)"/><path class="cls-4" d="M182.3643,147.45h.9179l1.8369,4.1768L186.92,147.45h.918v6.41h-.9717v-3.9981h-.0185l-1.3409,3.0791h-.81l-1.3418-3.0791h-.0176V153.86h-.9726Z" transform="translate(-1.1758 -3.8643)"/><path class="cls-4" d="M190.7949,151.2217l-1.9267-3.7715h1.0263l1.3594,2.8447,1.3594-2.8447H193.64l-1.9267,3.7715V153.86h-.918Z" transform="translate(-1.1758 -3.8643)"/><path class="cls-4" d="M194.6621,147.45h.9717v3.3037h.0185L198.29,147.45h1.1524L197.39,149.98l2.2686,3.8809h-1.1523l-1.7461-3.1329-1.126,1.1787V153.86h-.9717Z" transform="translate(-1.1758 -3.8643)"/><path class="cls-4" d="M202.4639,152.9951l2.5029-3.1328a.9513.9513,0,0,0,.2344-.6387.8881.8881,0,0,0-.8828-.9091.9307.9307,0,0,0-.9356.9267h-.9189a1.8277,1.8277,0,1,1,3.6552-.0088,1.7177,1.7177,0,0,1-.3867,1.126l-2.0615,2.583h2.4482v.919h-3.6552Z" transform="translate(-1.1758 -3.8643)"/><path class="cls-4" d="M207.2363,149.2412a1.8186,1.8186,0,1,1,3.6367,0v2.8272a1.8186,1.8186,0,1,1-3.6367,0Zm2.7188.0547a.9037.9037,0,1,0-1.8008,0v2.7187a.9037.9037,0,1,0,1.8008,0Z" transform="translate(-1.1758 -3.8643)"/><path class="cls-4" d="M212.0576,152.9414h.919v.919l-.919.666Z" transform="translate(-1.1758 -3.8643)"/><path class="cls-4" d="M217.3418,148.4229l-.9092.666v-.9727l.9092-.666h.918v6.41h-.918Z" transform="translate(-1.1758 -3.8643)"/><path class="cls-4" d="M220.7432,150.5469a1.6842,1.6842,0,0,1-.6387-1.2959,1.8365,1.8365,0,1,1,3.6728,0,1.6822,1.6822,0,0,1-.64,1.2959,1.68,1.68,0,0,1,.7568,1.44,1.9538,1.9538,0,0,1-3.9072,0A1.6787,1.6787,0,0,1,220.7432,150.5469Zm1.1972,2.4482a1.0173,1.0173,0,1,0-1.0351-1.0166A1.0247,1.0247,0,0,0,221.94,152.9951Zm0-2.8437a.9185.9185,0,1,0-.9179-.919A.8837.8837,0,0,0,221.94,150.1514Z" transform="translate(-1.1758 -3.8643)"/><path class="cls-4" d="M225.0146,152.9414h.919v.919h-.919Z" transform="translate(-1.1758 -3.8643)"/><path class="cls-4" d="M227.0693,152.042l2.1426-4.5918h1.0264l-2.169,4.5918h1.6739v-1.8457h.9189v1.8457h.5127v.8633h-.5127v.9551h-.9189v-.9551h-2.6739Z" transform="translate(-1.1758 -3.8643)"/><path class="cls-4" d="M233.499,150.1514h.3145a.903.903,0,0,0,.99-.91.9275.9275,0,0,0-.9355-.9267.8941.8941,0,0,0-.8828.7744h-.918a1.83,1.83,0,0,1,3.6553.1347,1.4726,1.4726,0,0,1-.6846,1.3233,1.6153,1.6153,0,0,1,.7568,1.4043,1.8821,1.8821,0,0,1-1.9453,1.9629,1.825,1.825,0,0,1-1.8184-1.6475h.918a.99.99,0,1,0,.9365-1.3057h-.3867Z" transform="translate(-1.1758 -3.8643)"/><path class="cls-4" d="M237.043,152.9414h.9189v.919l-.9189.666Z" transform="translate(-1.1758 -3.8643)"/><path class="cls-4" d="M241.5615,147.45h3.6465v.918l-2.17,5.4922h-1.0264l2.17-5.4922h-1.7011v.9277h-.919Z" transform="translate(-1.1758 -3.8643)"/><path class="cls-4" d="M245.6426,152.9414h.9189v.919l-.9189.666Z" transform="translate(-1.1758 -3.8643)"/><path class="cls-4" d="M249.99,152.9951l2.503-3.1328a.9546.9546,0,0,0,.2334-.6387.8879.8879,0,0,0-.8819-.9091.9316.9316,0,0,0-.9365.9267h-.918a1.8277,1.8277,0,1,1,3.6553-.0088,1.7138,1.7138,0,0,1-.3877,1.126l-2.0615,2.583h2.4492v.919H249.99Z" transform="translate(-1.1758 -3.8643)"/><path class="cls-4" d="M256.0938,150.1514h.3154a.903.903,0,0,0,.99-.91.9277.9277,0,0,0-.9365-.9267.8931.8931,0,0,0-.8818.7744h-.919a1.83,1.83,0,0,1,3.6553.1347,1.4716,1.4716,0,0,1-.6836,1.3233,1.6143,1.6143,0,0,1,.7558,1.4043,1.8818,1.8818,0,0,1-1.9443,1.9629,1.8249,1.8249,0,0,1-1.8183-1.6475h.9179a.9572.9572,0,0,0,.9541.7285,1.0178,1.0178,0,0,0-.0176-2.0342h-.3876Z" transform="translate(-1.1758 -3.8643)"/><path class="cls-4" d="M176.9453,160.45h2.3233a2.1054,2.1054,0,0,1,1.44.4492,1.91,1.91,0,0,1,.6924,1.5313,1.9317,1.9317,0,0,1-2.0069,1.9257H177.918v2.504h-.9727Zm.9727,2.9883h1.44a1.0153,1.0153,0,0,0,1.0713-1.0352.9492.9492,0,0,0-.4141-.8554,1.1319,1.1319,0,0,0-.6933-.18H177.918Z" transform="translate(-1.1758 -3.8643)"/><path class="cls-4" d="M184.9561,166.4541h-.0186c-.1885.3164-.5039.46-1.125.46a1.4284,1.4284,0,0,1-1.6113-1.3955,1.3388,1.3388,0,0,1,1.4853-1.3506h1.27V163.69c0-.4316-.2793-.584-.9366-.584-.4765,0-.7021.09-.8642.3506l-.72-.55a1.7242,1.7242,0,0,1,1.5391-.666c1.125,0,1.8994.3789,1.8994,1.5039V166.86h-.9179Zm0-1.5293h-1.0987c-.54,0-.792.2148-.792.5488,0,.3057.2432.5762.8643.5762.7656,0,1.0264-.081,1.0264-.793Z" transform="translate(-1.1758 -3.8643)"/><path class="cls-4" d="M187.2939,162.2959h.918v.4863h.0176a1.461,1.461,0,0,1,1.1885-.541,1.5309,1.5309,0,0,1,1.5215,1.585V166.86h-.918v-2.7188a.9079.9079,0,1,0-1.81,0V166.86h-.918Z" transform="translate(-1.1758 -3.8643)"/><path class="cls-4" d="M192.3838,160.9092h.918v1.3867h.666v.7012h-.666v2.6562c0,.252.0986.3418.3242.3418h.3418v.8653H193.49a1.0448,1.0448,0,0,1-1.1064-1.126v-2.7373h-.46v-.7012h.46Z" transform="translate(-1.1758 -3.8643)"/><path class="cls-4" d="M195.3447,162.8271a1.9341,1.9341,0,0,1,2.7735,0,3.3439,3.3439,0,0,1,0,3.502,1.9362,1.9362,0,0,1-2.7735,0,3.3439,3.3439,0,0,1,0-3.502Zm2.125.6661a.9829.9829,0,0,0-1.4765,0c-.1709.2422-.2246.4228-.2246,1.08,0,.6661.0537.8457.2246,1.09a.9868.9868,0,0,0,1.4765,0c.1709-.2442.2246-.4238.2246-1.0811C197.6943,163.916,197.6406,163.7354,197.47,163.4932Z" transform="translate(-1.1758 -3.8643)"/><path class="cls-4" d="M199.8457,162.2959h.9189v.4863h.0176a1.46,1.46,0,0,1,1.1885-.541,1.5315,1.5315,0,0,1,1.5215,1.585V166.86h-.919v-2.7188a.9074.9074,0,1,0-1.8086,0V166.86h-.9189Z" transform="translate(-1.1758 -3.8643)"/><path class="cls-4" d="M205.6064,164.9248a1.022,1.022,0,0,0,1.0889,1.125,1.4307,1.4307,0,0,0,.999-.4414l.6661.5674a2.1,2.1,0,0,1-1.6475.7383c-.9356,0-2.0254-.45-2.0254-2.3233,0-1.7734,1-2.35,1.8818-2.35a1.8535,1.8535,0,0,1,1.8819,1.9268v.7568Zm1.9258-.7568c-.0263-.6934-.4228-1.0616-.9629-1.0616a.9589.9589,0,0,0-.9629,1.0616Z" transform="translate(-1.1758 -3.8643)"/><path class="cls-4" d="M213.085,161.4229l-.9092.666v-.9727l.9092-.666h.9189v6.41h-.9189Z" transform="translate(-1.1758 -3.8643)"/><path class="cls-4" d="M215.6641,165.042l2.1425-4.5918h1.0264l-2.17,4.5918h1.6748v-1.8457h.918v1.8457h.5136v.8633h-.5136v.9551h-.918v-.9551h-2.6738Z" transform="translate(-1.1758 -3.8643)"/><path class="cls-4" d="M220.7158,165.9951l2.503-3.1328a.9544.9544,0,0,0,.2333-.6387.8878.8878,0,0,0-.8818-.9091.9316.9316,0,0,0-.9365.9267h-.918a1.8277,1.8277,0,1,1,3.6553-.0088,1.7138,1.7138,0,0,1-.3877,1.126l-2.0615,2.583h2.4492v.919h-3.6553Z" transform="translate(-1.1758 -3.8643)"/><path class="cls-4" d="M227.1885,166.86h-1.0264l1.3506-2.711h-.0176a1.4361,1.4361,0,0,1-.4863.082c-.8106,0-1.53-.541-1.53-1.7832a1.8351,1.8351,0,0,1,1.8906-2.0527,1.8535,1.8535,0,0,1,1.7823,1.9541,2.3984,2.3984,0,0,1-.2432,1.0713Zm1.0449-4.4922c0-.7207-.36-1.0537-.9189-1.0537a.9325.9325,0,0,0-.918,1.0537c0,.72.414,1.0527.918,1.0527S228.2334,163.0879,228.2334,162.3682Z" transform="translate(-1.1758 -3.8643)"/><path class="cls-4" d="M234.8311,165.0684a2.2044,2.2044,0,0,1-2.251,1.8457,2.2791,2.2791,0,0,1-2.0078-1.1524c-.2071-.3779-.2793-.5674-.2793-2.1064s.0722-1.7285.2793-2.1074a2.3,2.3,0,0,1,4.2588.748h-1.0264a1.2948,1.2948,0,0,0-1.2246-.9277,1.2351,1.2351,0,0,0-.99.4687c-.2519.3242-.3242.5039-.3242,1.8184s.0723,1.4941.3242,1.8183a1.2342,1.2342,0,0,0,.99.4678,1.3193,1.3193,0,0,0,1.2246-.873Z" transform="translate(-1.1758 -3.8643)"/><path class="cls-4" d="M178.71,177.8975h-.8819l-.2793,1.9629h-.7021l.2793-1.9629h-.8291v-.5938h.8916l.1982-1.2969h-.8281v-.5937h.8906l.2793-1.9629h.7022l-.2793,1.9629h.8828l.2793-1.9629h.7021l-.2793,1.9629h.8282v.5937h-.8916l-.1973,1.2969h.8281v.5938h-.8916l-.2793,1.9629h-.7021Zm.2607-1.8907h-.8818l-.1983,1.2969h.8828Z" transform="translate(-1.1758 -3.8643)"/><path class="cls-4" d="M184.8418,178.4287h-2.4307l-.4951,1.4317H180.89l2.3321-6.41h.81l2.3321,6.41h-1.0264Zm-.2793-.8652-.9268-2.7989h-.0185l-.9268,2.7989Z" transform="translate(-1.1758 -3.8643)"/><path class="cls-4" d="M188.417,176.1514h.3144a.903.903,0,0,0,.99-.91.9275.9275,0,0,0-.9356-.9267.8941.8941,0,0,0-.8828.7744h-.9179a1.83,1.83,0,0,1,3.6552.1347,1.4725,1.4725,0,0,1-.6845,1.3233,1.6153,1.6153,0,0,1,.7568,1.4043,1.8821,1.8821,0,0,1-1.9453,1.9629,1.825,1.825,0,0,1-1.8184-1.6475h.918a.9895.9895,0,1,0,.9365-1.3057h-.3867Z" transform="translate(-1.1758 -3.8643)"/><path class="cls-4" d="M195.4092,178.4287h-2.4307l-.4951,1.4317H191.457l2.3321-6.41h.81l2.3321,6.41h-1.0264Zm-.2793-.8652-.9268-2.7989h-.0185l-.9268,2.7989Z" transform="translate(-1.1758 -3.8643)"/><path class="cls-4" d="M198.5908,174.4229l-.9092.666v-.9727l.9092-.666h.919v6.41h-.919Z" transform="translate(-1.1758 -3.8643)"/><path class="cls-4" d="M205.07,178.4287H202.64l-.4951,1.4317h-1.0263l2.332-6.41h.81l2.332,6.41h-1.0264Zm-.2793-.8652-.9267-2.7989h-.0186l-.9268,2.7989Z" transform="translate(-1.1758 -3.8643)"/><path class="cls-4" d="M207.6934,173.45H211.79v.918h-3.124v1.8906h2.6651v.8642H208.666V179.86h-.9726Z" transform="translate(-1.1758 -3.8643)"/></g></g></svg>