<svg xmlns="http://www.w3.org/2000/svg" viewBox="0 0 534.7924 284.2529"><defs><style>.cls-1{fill:#231f20;}.cls-2,.cls-4{fill:none;stroke:#000;stroke-miterlimit:10;}.cls-2{stroke-width:0.8665px;}.cls-2,.cls-3{opacity:0.82;}.cls-4{stroke-width:0.8654px;}</style></defs><g id="Layer_2" data-name="Layer 2"><g id="headers"><path class="cls-1" d="M3.3037,6.72H0V4.0322H9.4639V6.72H6.16V23.9678H3.3037Z" transform="translate(0 -3.8643)"/><path class="cls-1" d="M15.15,15.54l-3.92-11.5078h3.0234L16.55,11.9561h.0566l2.2959-7.9239h3.0235L18.0059,15.54v8.4278H15.15Z" transform="translate(0 -3.8643)"/><path class="cls-1" d="M24.3867,4.0322h4.2842a4.64,4.64,0,0,1,3.6953,1.3994c.98,1.0362,1.2881,2.2969,1.2881,4.6768a7.1665,7.1665,0,0,1-.8115,4.0039,4.4041,4.4041,0,0,1-4.1446,2.0713h-1.455v7.7842H24.3867Zm2.8565,9.4639h1.3711c2.3242,0,2.3525-1.3721,2.3525-3.36,0-1.8759,0-3.416-2.24-3.416H27.2432Z" transform="translate(0 -3.8643)"/><path class="cls-1" d="M36.376,8.7363a4.7888,4.7888,0,1,1,9.5761,0V19.2637a4.7888,4.7888,0,1,1-9.5761,0Zm2.8564,10.5274a1.9339,1.9339,0,1,0,3.8643,0V8.7363a1.9339,1.9339,0,1,0-3.8643,0Z" transform="translate(0 -3.8643)"/><path class="cls-1" d="M48.8643,8.7363a4.7888,4.7888,0,1,1,9.5761,0V9.7441H55.584V8.7363a1.9339,1.9339,0,1,0-3.8643,0V19.2637a1.9339,1.9339,0,1,0,3.8643,0v-3.752H53.3164V12.9922H58.44v6.2715a4.7888,4.7888,0,1,1-9.5761,0Z" transform="translate(0 -3.8643)"/><path class="cls-1" d="M61.4336,4.0322h4.5918c3.3877,0,5.04,1.9883,5.04,5.8516,0,2.2959-.6435,3.9766-2.4638,4.9844l3.08,9.1H68.6572L65.998,15.4561H64.29v8.5117H61.4336ZM64.29,12.9365h1.6231c1.9883,0,2.2969-1.12,2.2969-3.1084,0-2.0156-.336-3.1084-2.4366-3.1084H64.29Z" transform="translate(0 -3.8643)"/><path class="cls-1" d="M78.09,4.0322h2.3809l4.4512,19.9356H82.0664l-.84-4.2842H77.334l-.84,4.2842H73.6387Zm1.2041,5.74h-.0556l-1.4,7.2236h2.8564Z" transform="translate(0 -3.8643)"/><path class="cls-1" d="M87.3691,4.0322h4.2842A4.6426,4.6426,0,0,1,95.35,5.4316c.98,1.0362,1.2881,2.2969,1.2881,4.6768a7.1577,7.1577,0,0,1-.8125,4.0039,4.4024,4.4024,0,0,1-4.1436,2.0713h-1.456v7.7842H87.3691Zm2.8565,9.4639h1.3721c2.3242,0,2.3515-1.3721,2.3515-3.36,0-1.8759,0-3.416-2.2392-3.416H90.2256Z" transform="translate(0 -3.8643)"/><path class="cls-1" d="M99.44,4.0322h2.8565v8.54h3.5273v-8.54h2.8565V23.9678h-2.8565v-8.876h-3.5273v8.876H99.44Z" transform="translate(0 -3.8643)"/><path class="cls-1" d="M115.0615,15.54l-3.92-11.5078h3.0234l2.2959,7.9239h.0567l2.2959-7.9239h3.0234L117.917,15.54v8.4278h-2.8555Z" transform="translate(0 -3.8643)"/></g><g id="alphabet"><polygon class="cls-2" points="9.15 48.625 1.518 56.256 1.518 75.147 9.075 67.591 16.65 75.166 16.65 56.256 9.15 48.625"/><polygon class="cls-2" points="21.536 75.34 29.17 75.34 36.88 67.63 29.208 63.794 36.88 56.16 29.189 48.469 21.536 56.122 21.536 75.34"/><polygon class="cls-2" points="41.573 75.34 49.156 75.34 56.853 67.643 49.194 67.643 49.194 56.192 56.853 56.192 49.194 48.532 41.573 56.154 41.573 75.34"/><polygon class="cls-2" points="81.941 75.265 89.539 75.265 97.137 67.667 89.501 67.667 97.137 60.032 89.539 60.032 97.175 56.214 89.558 48.597 81.96 56.195 81.941 75.265"/><polygon class="cls-2" points="110.787 48.549 103.132 56.204 103.132 75.36 110.787 75.36 110.787 67.706 118.48 67.706 118.48 63.859 110.787 63.859 118.442 56.204 110.787 48.549"/><polygon class="cls-2" points="130.812 48.436 123.239 56.009 123.239 75.007 130.849 75.007 134.645 71.211 138.422 74.988 138.422 63.582 130.877 56.037 138.441 56.037 130.812 48.436"/><polygon class="cls-2" points="168.983 48.768 176.6 56.385 176.6 75.351 168.983 75.351 168.983 48.768"/><g class="cls-3"><polygon class="cls-4" points="145 48.657 152.654 56.332 152.654 75.441 145 75.441 145 48.657"/><polygon class="cls-4" points="154.28 48.59 161.935 56.264 161.935 75.374 154.28 75.374 154.28 48.59"/></g><polygon class="cls-2" points="181.621 67.852 189.122 75.352 196.678 67.796 196.678 56.442 189.168 48.933 189.168 67.815 181.621 67.852"/><polygon class="cls-2" points="241.418 75.382 241.418 48.832 248.998 56.411 256.59 48.819 256.59 75.357 241.418 75.382"/><polygon class="cls-2" points="262.799 75.428 262.799 48.601 270.453 56.255 270.453 48.601 278.056 48.601 278.056 75.428 270.402 67.774 270.402 75.428 262.799 75.428"/><polygon class="cls-2" points="291.464 48.601 283.848 56.217 283.848 67.615 291.539 75.307 299.105 67.741 299.105 56.166 291.464 48.601"/><polygon class="cls-2" points="330.926 48.706 323.339 56.293 323.339 67.586 331.038 75.285 334.807 71.517 338.487 75.198 338.487 56.268 330.926 48.706"/><polygon class="cls-2" points="359.31 75.332 343.987 75.383 343.987 56.204 351.674 48.517 359.336 56.178 359.336 63.875 351.575 63.875 359.31 75.332"/><polygon class="cls-2" points="363.015 67.659 370.654 75.373 378.268 67.659 370.679 56.188 378.242 56.188 370.629 48.574 363.015 56.188 370.629 67.684 363.015 67.659"/><polygon class="cls-2" points="383.218 48.721 383.218 56.336 390.795 56.336 390.795 75.298 398.461 75.298 398.461 56.248 402.18 56.248 394.59 48.658 383.218 48.721"/><polygon class="cls-2" points="407.386 48.532 407.386 67.685 415.062 75.361 422.713 67.71 422.713 48.532 407.386 48.532"/><polygon class="cls-2" points="450.226 48.68 450.226 67.646 457.857 75.277 457.857 67.646 465.339 75.384 472.896 67.571 472.896 56.349 465.376 48.829 465.376 56.274 457.801 48.699 457.801 56.274 450.226 48.68"/><polygon class="cls-2" points="526.725 67.897 534.359 56.47 534.359 48.785 519.14 48.785 526.725 56.419 519.039 67.846 519.039 75.582 534.343 75.582 534.343 67.967 526.725 67.897"/><polygon class="cls-2" points="17.063 93.722 24.692 86.093 32.397 93.798 24.717 105.229 32.372 105.229 32.372 112.833 17.012 112.833 17.012 105.127 24.717 93.671 17.063 93.722"/><polygon class="cls-2" points="39.398 93.683 47.027 86.053 54.606 93.632 54.606 105.164 46.977 112.793 39.348 112.793 47.015 105.126 39.398 101.287 47.052 93.632 39.398 93.683"/><polygon class="cls-2" points="112.054 86.129 104.376 93.807 104.376 105.115 112.035 112.774 119.543 105.267 119.543 101.333 111.978 97.475 112.054 86.129"/><polygon class="cls-2" points="144.433 93.776 152.136 86.073 159.839 93.776 155.969 97.646 159.763 105.235 152.212 112.787 144.547 105.122 148.228 97.722 144.433 93.776"/><polygon class="cls-2" points="179.66 112.914 179.66 86.045 172.125 86.045 164.437 93.733 172.02 97.494 172.02 112.811 179.66 112.914"/><polygon class="cls-2" points="186.62 86.001 194.293 86.001 202.004 93.693 201.947 112.837 194.179 112.818 186.582 105.278 186.62 86.001"/><polygon class="cls-2" points="436.065 75.349 443.696 67.718 443.696 48.827 436.139 56.383 428.564 48.808 428.564 67.718 436.065 75.349"/><polygon class="cls-2" points="201.684 48.607 201.684 75.444 217.025 75.444 209.335 60.065 216.949 48.607 201.684 48.607"/><polygon class="cls-2" points="82.515 86.073 90.1 86.073 97.685 93.658 90.138 93.658 97.76 105.054 97.76 112.828 82.515 112.828 82.515 104.979 90.138 104.979 82.591 93.658 82.515 86.073"/><polygon class="cls-2" points="221.584 60.087 221.584 75.4 229.165 75.4 236.821 67.819 229.24 67.894 229.24 48.828 221.584 56.485 221.584 60.087"/><polygon class="cls-2" points="310.606 48.403 302.967 56.042 302.967 75.156 310.606 75.156 310.606 63.682 318.274 63.682 318.274 56.014 310.606 48.403"/><polygon class="cls-2" points="498.107 48.785 498.107 60.304 505.761 67.959 505.761 75.538 513.416 75.538 513.416 48.785 505.761 56.439 498.107 48.785"/><polygon class="cls-2" points="8.94 86.087 1.273 93.754 1.273 112.846 8.94 112.846 8.94 86.087"/><polygon class="cls-2" points="67.746 112.559 67.746 101.196 60.153 101.196 71.628 86.009 75.377 97.409 75.377 104.909 67.746 112.559"/><polygon class="cls-2" points="129.821 86.129 122.185 93.765 129.593 93.765 129.593 112.911 137.229 112.911 137.229 93.765 129.821 86.129"/><polygon class="cls-2" points="69.741 48.625 62.155 56.211 62.155 75.24 69.791 75.24 77.303 60.067 69.741 48.625"/><polygon class="cls-2" points="478.967 48.532 485.642 55.207 492.284 48.565 492.284 58.71 488.963 62.031 492.284 65.352 492.284 75.233 485.593 68.541 478.901 75.233 478.901 65.253 482.239 61.916 478.868 58.545 478.967 48.532"/><path class="cls-1" d="M6.6172,162.8174H9.5918L15.1572,187.74h-3.57l-1.05-5.3554H5.6719L4.6211,187.74h-3.57Zm1.5049,7.1758h-.07l-1.75,9.0312h3.57Z" transform="translate(0 -3.8643)"/><path class="cls-1" d="M18.6006,162.8174h5.2148c4.6211,0,6.336,3.0459,6.336,6.3008v.91c0,2.66-.875,3.6406-2.45,4.62,1.6806.8057,2.45,2.3106,2.45,4.9014v1.3994c0,4.3408-2.0655,6.791-6.6856,6.791H18.6006Zm3.57,10.2217h1.61c2.38,0,3.01-1.2256,3.01-3.501,0-2.2051-.8047-3.36-3.15-3.36h-1.47Zm0,11.1308h1.54c2.87,0,3.08-1.75,3.08-4.2,0-2.4853-.4551-3.78-3.0449-3.78H22.1709Z" transform="translate(0 -3.8643)"/><path class="cls-1" d="M45.8174,182.1748a5.7593,5.7593,0,0,1-5.6709,5.7754c-2.73,0-5.88-1.33-5.88-5.8809V168.3486a5.5706,5.5706,0,0,1,5.8105-5.7412,5.6675,5.6675,0,0,1,5.74,5.9512v1.3994h-3.57v-1.1894a2.3444,2.3444,0,0,0-2.2051-2.5909c-1.7852,0-2.2051,1.2256-2.2051,2.9053v12.7412c0,1.4356.56,2.5557,2.17,2.5557a2.2046,2.2046,0,0,0,2.24-2.52v-1.2246h3.57Z" transform="translate(0 -3.8643)"/><path class="cls-1" d="M49.8135,162.8174h5.2851c4.0254,0,6.2657,2.415,6.2657,6.4414v11.6553c0,4.6211-2.38,6.8261-6.5811,6.8261h-4.97Zm3.57,21.5625h1.6445c1.9951,0,2.7656-.98,2.7656-3.1153V169.2588c0-1.9609-.665-3.0811-2.7656-3.0811H53.3838Z" transform="translate(0 -3.8643)"/><path class="cls-1" d="M65.6084,162.8174H76.249v3.36h-7.07v7.3164h6.16v3.36h-6.16V184.17h7.07v3.57H65.6084Z" transform="translate(0 -3.8643)"/><path class="cls-1" d="M79.9619,162.8174H90.6025v3.36h-7.07v7.5616h6.16v3.3593h-6.16V187.74h-3.57Z" transform="translate(0 -3.8643)"/><path class="cls-1" d="M94.0479,168.6982a5.9867,5.9867,0,1,1,11.9716,0v1.26h-3.57v-1.26a2.4177,2.4177,0,1,0-4.831,0v13.1612a2.4177,2.4177,0,1,0,4.831,0v-4.69H99.6143v-3.15H106.02v7.8408a5.9867,5.9867,0,1,1-11.9716,0Z" transform="translate(0 -3.8643)"/><path class="cls-1" d="M110.1338,162.8174h3.5713v10.6767h4.41V162.8174h3.57V187.74h-3.57V176.6445h-4.41V187.74h-3.5713Z" transform="translate(0 -3.8643)"/><path class="cls-1" d="M126.0664,162.8174h3.57V187.74h-3.57Z" transform="translate(0 -3.8643)"/><path class="cls-1" d="M143.4717,181.8594a5.86,5.86,0,0,1-6.09,6.0908,6.1716,6.1716,0,0,1-4.6562-2.24l2.8008-2.24a2.9435,2.9435,0,0,0,1.96.91c.875,0,2.4151-.5254,2.4151-3.0108V162.8174h3.57Z" transform="translate(0 -3.8643)"/><path class="cls-1" d="M147.79,162.8174h3.5713v11.376h.0694l5.2158-11.376h3.57l-4.8652,9.9765L161.127,187.74h-3.78l-4.0606-11.0615-1.9248,3.6055v7.456H147.79Z" transform="translate(0 -3.8643)"/><path class="cls-1" d="M164.5029,162.8174h3.57V184.17h7.07v3.57H164.5029Z" transform="translate(0 -3.8643)"/><path class="cls-1" d="M178.8564,162.8174h3.43l4.586,13.1963h.0693l4.5508-13.1963h3.4658V187.74h-3.57V172.584h-.07l-3.5352,10.7109h-1.7851l-3.501-10.7109h-.0693V187.74h-3.57Z" transform="translate(0 -3.8643)"/><path class="cls-1" d="M199.24,162.8174h3.4307l5.3906,15.0166h.0694V162.8174h3.5712V187.74h-3.3613l-5.46-14.9814h-.07V187.74h-3.57Z" transform="translate(0 -3.8643)"/><path class="cls-1" d="M215.8008,168.6982a5.9868,5.9868,0,1,1,11.9717,0v13.1612a5.9868,5.9868,0,1,1-11.9717,0Zm3.5713,13.1612a2.4172,2.4172,0,1,0,4.83,0V168.6982a2.4172,2.4172,0,1,0-4.83,0Z" transform="translate(0 -3.8643)"/><path class="cls-1" d="M231.94,162.8174h5.3555a5.8,5.8,0,0,1,4.62,1.75c1.2256,1.2959,1.61,2.8711,1.61,5.8457,0,2.1709-.1748,3.6406-1.0157,5.0058-.98,1.61-2.5546,2.59-5.1806,2.59h-1.8194V187.74h-3.57Zm3.57,11.831h1.7149c2.9053,0,2.94-1.7148,2.94-4.2,0-2.3447,0-4.2705-2.8008-4.2705h-1.8545Z" transform="translate(0 -3.8643)"/><path class="cls-1" d="M247.3047,168.6982a5.9868,5.9868,0,1,1,11.9717,0v13.1612a5.8372,5.8372,0,0,1-.5254,2.5556l2.2051,1.7852-1.8194,2.17-2.1006-1.7148a5.94,5.94,0,0,1-3.7451,1.2949,5.8459,5.8459,0,0,1-5.9863-6.0908Zm3.5713,13.1612a2.3047,2.3047,0,0,0,2.415,2.52,1.8918,1.8918,0,0,0,.7695-.14l-1.61-1.2959,1.82-2.17,1.4356,1.1553V168.6982a2.4173,2.4173,0,1,0-4.83,0Z" transform="translate(0 -3.8643)"/><path class="cls-1" d="M264.28,162.8174h5.74c4.2354,0,6.3008,2.4853,6.3008,7.3164,0,2.87-.8057,4.97-3.08,6.23l3.85,11.3759h-3.78l-3.3251-10.6416h-2.1348V187.74h-3.57Zm3.57,11.1318H269.88c2.4853,0,2.8711-1.4,2.8711-3.8857,0-2.52-.42-3.8858-3.0459-3.8858h-1.8545Z" transform="translate(0 -3.8643)"/><path class="cls-1" d="M292.127,169.9932h-3.57v-.8047c0-1.6455-.7-3.0108-2.5205-3.0108-1.96,0-2.415,1.5752-2.415,3.2207,0,1.9248.1748,2.59,2.03,3.3252l2.73,1.085c3.15,1.19,3.7452,3.1855,3.7452,6.8262,0,4.2-1.54,7.3154-6.1612,7.3154a5.8845,5.8845,0,0,1-6.09-5.916v-1.33h3.57v1.12a2.3533,2.3533,0,0,0,2.5195,2.5557c2.416,0,2.5908-1.4356,2.5908-3.71,0-2.6611-.3154-3.081-2.0654-3.7812l-2.5547-1.05c-3.081-1.26-3.8857-3.29-3.8857-6.4053,0-3.78,2.03-6.8262,6.126-6.8262a5.839,5.839,0,0,1,5.95,5.6358Z" transform="translate(0 -3.8643)"/><path class="cls-1" d="M299.1494,166.1777h-4.1308v-3.36h11.832v3.36H302.72V187.74h-3.57Z" transform="translate(0 -3.8643)"/><path class="cls-1" d="M321.7607,182.14a5.7755,5.7755,0,1,1-11.5507,0V162.8174h3.57V181.79c0,1.75.9443,2.59,2.2051,2.59s2.205-.84,2.205-2.59V162.8174h3.57Z" transform="translate(0 -3.8643)"/><path class="cls-1" d="M333.6143,187.74h-3.15l-5.0752-24.9228h3.78l2.835,17.3974h.07l2.87-17.3974h3.78Z" transform="translate(0 -3.8643)"/><path class="cls-1" d="M357.74,187.74h-3.36l-2.73-16.1718h-.07L348.8848,187.74h-3.36l-3.7109-24.9228h3.7812L347.38,178.64h.0693l2.8008-15.8222h2.7305l2.9052,16.207h.0694l1.7158-16.207h3.78Z" transform="translate(0 -3.8643)"/><path class="cls-1" d="M369.1631,174.6836l-4.6553-11.8662h3.78l2.6953,7.3857,2.7305-7.3857h3.78l-4.7607,11.8662,5.1455,13.0566h-3.78l-3.1152-8.4013-3.0811,8.4013h-3.78Z" transform="translate(0 -3.8643)"/><path class="cls-1" d="M385.1963,177.2041l-4.9-14.3867h3.78l2.87,9.9062h.07l2.87-9.9062h3.78l-4.9,14.3867V187.74h-3.57Z" transform="translate(0 -3.8643)"/><path class="cls-1" d="M396.3887,184.59l6.7207-18.4121h-6.3711v-3.36h10.2558v2.8359l-6.86,18.7266h6.86v3.36H396.3887Z" transform="translate(0 -3.8643)"/><path class="cls-1" d="M9.207,220.92h-.07c-.9443,1.2949-1.7148,2.03-3.43,2.03-1.6455,0-3.8506-.8047-3.8506-4.7256,0-4.0605,1.1553-6.02,5.6358-6.02.4892,0,.9795.07,1.7148.1055v-1.8555c0-1.19-.455-2.1006-1.7851-2.1006a2.0752,2.0752,0,0,0-2.03,1.7852H1.9268a5.8833,5.8833,0,0,1,1.6093-3.8506,5.3625,5.3625,0,0,1,3.8858-1.5049c2.9756,0,5.3554,1.8906,5.3554,5.6006V222.74H9.207Zm0-5.8105a5.174,5.174,0,0,0-.98-.1045c-1.54,0-2.8.63-2.8,2.52,0,1.3652.7,2.2754,1.8554,2.2754,1.19,0,1.9248-.84,1.9248-2.2754Z" transform="translate(0 -3.8643)"/><path class="cls-1" d="M16.5352,197.8174h3.57v8.7861h.07a3.8269,3.8269,0,0,1,3.29-1.82,3.3614,3.3614,0,0,1,3.1856,1.61c.455.7353.5605,1.75.5605,4.3056v6.7559a8.0439,8.0439,0,0,1-.5957,3.8154,3.2451,3.2451,0,0,1-3.1152,1.68c-1.7852,0-2.4854-.8047-3.3955-1.82v1.61h-3.57Zm7.1054,12.6367c0-1.12-.3847-2.1006-1.75-2.1006a1.8074,1.8074,0,0,0-1.7851,1.9258v6.8955c0,1.2949.7,2.2051,1.7851,2.2051,1.2256,0,1.75-.98,1.75-2.4151Z" transform="translate(0 -3.8643)"/><path class="cls-1" d="M34.6621,217.63a1.6017,1.6017,0,0,0,1.75,1.75c1.3652,0,1.68-1.0147,1.75-1.7852h3.57a5.4449,5.4449,0,0,1-1.4345,3.78,5.21,5.21,0,0,1-3.8858,1.5752,5.081,5.081,0,0,1-4.6553-2.5557,7.8062,7.8062,0,0,1-.665-3.6045v-5.8457a7.81,7.81,0,0,1,.665-3.6054,5.0826,5.0826,0,0,1,4.6553-2.5557c3.29,0,5.32,2.3809,5.32,5.6709h-3.57c0-1.4355-.665-2.1006-1.75-2.1006s-1.75.7-1.75,2.03Z" transform="translate(0 -3.8643)"/><path class="cls-1" d="M52.1406,221.13c-.91,1.0156-1.61,1.82-3.3945,1.82a3.2449,3.2449,0,0,1-3.1152-1.68,8.0312,8.0312,0,0,1-.5957-3.8154v-6.7559c0-2.5556.1054-3.57.56-4.3056a3.3606,3.3606,0,0,1,3.1846-1.61,3.83,3.83,0,0,1,3.291,1.82h.0693v-8.7861h3.57V222.74h-3.57Zm-3.5351-4.1651c0,1.4346.5254,2.4151,1.75,2.4151,1.0849,0,1.7851-.91,1.7851-2.2051v-6.8955a1.8069,1.8069,0,0,0-1.7851-1.9258c-1.3643,0-1.75.9805-1.75,2.1006Z" transform="translate(0 -3.8643)"/><path class="cls-1" d="M62.9658,215.2148V217.63a1.6018,1.6018,0,0,0,1.75,1.75c1.3653,0,1.6807-1.0147,1.75-1.7852h3.57a5.4449,5.4449,0,0,1-1.4345,3.78,5.21,5.21,0,0,1-3.8858,1.5752,5.081,5.081,0,0,1-4.6553-2.5557,7.8062,7.8062,0,0,1-.665-3.6045v-5.8457a7.81,7.81,0,0,1,.665-3.6054,5.0826,5.0826,0,0,1,4.6553-2.5557,5.182,5.182,0,0,1,5.32,5.53v4.9013Zm0-2.8007h3.5v-2.03c0-1.33-.665-2.03-1.75-2.03s-1.75.7-1.75,2.03Z" transform="translate(0 -3.8643)"/><path class="cls-1" d="M74.5186,207.7939h-1.75v-2.8007h1.75v-2.4151c0-3.4306,2.2753-4.7607,4.5859-4.7607H80.75v3.36H79.14c-.665,0-1.0507.4551-1.0507,1.2256v2.59H80.75v2.8007H78.0889V222.74h-3.57Z" transform="translate(0 -3.8643)"/><path class="cls-1" d="M87.0791,224.8057a1.8119,1.8119,0,0,0,1.8906,1.75c1.1553,0,1.6455-.8047,1.6455-1.9248V221.13h-.07a3.8452,3.8452,0,0,1-3.3252,1.82,3.2451,3.2451,0,0,1-3.1152-1.68,8.0439,8.0439,0,0,1-.5957-3.8154v-6.7559c0-2.5556.1055-3.57.5605-4.3056a3.3614,3.3614,0,0,1,3.1856-1.61c1.75,0,2.45.8057,3.36,1.82v-1.61h3.57V224.91A5.0532,5.0532,0,0,1,88.83,230.126c-2.1709,0-4.8662-1.26-5.3213-5.32Zm0-7.5264c0,1.12.3857,2.1006,1.751,2.1006a1.8066,1.8066,0,0,0,1.7851-1.9248v-6.8965c0-1.2949-.7-2.2051-1.7851-2.2051-1.2256,0-1.751.9805-1.751,2.4151Z" transform="translate(0 -3.8643)"/><path class="cls-1" d="M98.11,197.8174h3.57v8.8916h.07a3.7725,3.7725,0,0,1,3.36-1.9258c1.7852,0,3.6758,1.1553,3.6758,4.3408V222.74h-3.57V210.4541c0-1.2949-.63-2.1006-1.75-2.1006-1.3311,0-1.7861.875-1.7861,2.45V222.74H98.11Z" transform="translate(0 -3.8643)"/><path class="cls-1" d="M112.6953,197.8174h3.5713v3.57h-3.5713Zm0,7.1758h3.5713V222.74h-3.5713Z" transform="translate(0 -3.8643)"/><path class="cls-1" d="M120.1982,204.9932h3.57v19.6377c0,3.5-2.45,5.2851-5.8106,5.2851v-3.36c1.7158,0,2.24-.6651,2.24-3.2559Zm0-7.1758h3.57v3.57h-3.57Z" transform="translate(0 -3.8643)"/><path class="cls-1" d="M127.6777,197.8174h3.5713V212.73h.0694l4.3056-7.7363h3.57l-4.2353,7.2109,5.11,10.5361h-3.8857l-3.22-7.666L131.249,217.77V222.74h-3.5713Z" transform="translate(0 -3.8643)"/><path class="cls-1" d="M142.3955,197.8174h3.57v19.917c0,1.33.3858,1.7158,1.751,1.8554v3.36c-3.291,0-5.3213-.84-5.3213-4.9707Z" transform="translate(0 -3.8643)"/><path class="cls-1" d="M150.6621,204.9932h3.5713v1.7158h.0693a3.7727,3.7727,0,0,1,3.36-1.9258,3.8868,3.8868,0,0,1,3.1855,1.7852,4.49,4.49,0,0,1,3.71-1.7852c1.7852,0,3.8857,1.1553,3.8857,4.3408V222.74h-3.57V210.4541c0-1.2949-.63-2.1006-1.75-2.1006-1.33,0-1.7851.875-1.7851,2.45V222.74h-3.57V210.4541c0-1.2949-.63-2.1006-1.75-2.1006-1.3311,0-1.7852.875-1.7852,2.45V222.74h-3.5713Z" transform="translate(0 -3.8643)"/><path class="cls-1" d="M172.3789,204.9932H175.95v1.7158h.0693a3.7727,3.7727,0,0,1,3.36-1.9258c1.7851,0,3.6758,1.1553,3.6758,4.3408V222.74h-3.57V210.4541c0-1.2949-.63-2.1006-1.75-2.1006-1.3311,0-1.7852.875-1.7852,2.45V222.74h-3.5713Z" transform="translate(0 -3.8643)"/><path class="cls-1" d="M186.7148,210.9443a7.8091,7.8091,0,0,1,.6651-3.6054,5.5177,5.5177,0,0,1,9.3105,0,7.8091,7.8091,0,0,1,.6651,3.6054V216.79a7.8049,7.8049,0,0,1-.6651,3.6045,5.5177,5.5177,0,0,1-9.3105,0,7.8049,7.8049,0,0,1-.6651-3.6045Zm3.57,6.4053c0,1.33.665,2.03,1.75,2.03s1.75-.7,1.75-2.03v-6.9658c0-1.33-.6651-2.03-1.75-2.03s-1.75.7-1.75,2.03Z" transform="translate(0 -3.8643)"/><path class="cls-1" d="M201.04,204.9932h3.57v1.61c.91-1.0146,1.61-1.82,3.3955-1.82a3.2442,3.2442,0,0,1,3.1152,1.6807,8.0259,8.0259,0,0,1,.5957,3.8154v6.7549c0,2.5556-.1055,3.5713-.5606,4.3056a3.3605,3.3605,0,0,1-3.1845,1.61,3.83,3.83,0,0,1-3.291-1.82h-.07v8.7861h-3.57Zm7.1065,5.7754c0-1.4346-.5254-2.4151-1.75-2.4151-1.086,0-1.7861.91-1.7861,2.2051v6.8965a1.8068,1.8068,0,0,0,1.7861,1.9248c1.3642,0,1.75-.98,1.75-2.1006Z" transform="translate(0 -3.8643)"/><path class="cls-1" d="M222.6816,221.13h-.07a3.8293,3.8293,0,0,1-3.29,1.82,3.3614,3.3614,0,0,1-3.1856-1.61c-.455-.7343-.5605-1.75-.5605-4.3056v-6.7549a8.0386,8.0386,0,0,1,.5957-3.8154,3.2442,3.2442,0,0,1,3.1152-1.6807c1.7852,0,2.4854.8057,3.3955,1.82v-1.61h3.57V229.916h-3.57Zm-3.5361-3.8506c0,1.12.3857,2.1006,1.751,2.1006a1.8066,1.8066,0,0,0,1.7851-1.9248v-6.8965c0-1.2949-.7-2.2051-1.7851-2.2051-1.2256,0-1.751.9805-1.751,2.4151Z" transform="translate(0 -3.8643)"/><path class="cls-1" d="M230.1768,204.9932h3.57v1.8906a6.5253,6.5253,0,0,1,4.7256-2.1006v3.78a2.8541,2.8541,0,0,0-1.085-.21,3.5616,3.5616,0,0,0-3.6406,3.8506V222.74h-3.57Z" transform="translate(0 -3.8643)"/><path class="cls-1" d="M248.1338,209.9639a1.7628,1.7628,0,0,0-1.82-1.82,1.7182,1.7182,0,0,0-1.751,1.7851c0,.6651.1758,1.2949,1.5059,1.82l2.1.84a4.9423,4.9423,0,0,1,3.5009,5.0058,5.26,5.26,0,0,1-5.32,5.3555,5.1692,5.1692,0,0,1-5.3213-5.3555h3.36c.1406.9805.5957,1.9951,1.9258,1.9951a1.9335,1.9335,0,0,0,1.9951-1.9248c0-.98-.42-1.6455-1.7852-2.1709l-1.7158-.63a5.05,5.05,0,0,1-3.6055-4.9,5.1407,5.1407,0,0,1,5.251-5.1807,5.01,5.01,0,0,1,5.041,5.1807Z" transform="translate(0 -3.8643)"/><path class="cls-1" d="M255.7617,199.6025h3.5713v5.3907h2.2051v2.8007H259.333v9.836c0,1.6445.63,1.75,2.2051,1.75v3.36h-1.4707a3.9658,3.9658,0,0,1-4.3057-4.165V207.7939h-1.7851v-2.8007h1.7851Z" transform="translate(0 -3.8643)"/><path class="cls-1" d="M275.1465,222.74h-3.57v-1.7148h-.07a3.7708,3.7708,0,0,1-3.36,1.9248c-1.7851,0-3.6758-1.1553-3.6758-4.3408V204.9932h3.57v12.2861c0,1.2959.6309,2.1006,1.751,2.1006,1.33,0,1.7852-.875,1.7852-2.45V204.9932h3.57Z" transform="translate(0 -3.8643)"/><path class="cls-1" d="M285.918,222.74h-3.1494l-4.6211-17.747h3.78l2.3809,11.3418h.0693l2.3809-11.3418h3.78Z" transform="translate(0 -3.8643)"/><path class="cls-1" d="M307.3213,222.74h-3.15l-1.96-10.5361h-.07l-1.96,10.5361h-3.15l-4.2-17.747h3.78l2.17,11.0263h.07l1.9951-11.0263h2.8008l1.89,11.0263h.07l2.1348-11.0263h3.78Z" transform="translate(0 -3.8643)"/><path class="cls-1" d="M317.9492,213.6738l-4.165-8.6806h3.78l2.205,5.041,2.2051-5.041h3.78l-4.2354,8.6806,4.4453,9.0664h-3.78l-2.4151-5.4257-2.415,5.4257h-3.78Z" transform="translate(0 -3.8643)"/><path class="cls-1" d="M331.7461,204.9932l2.45,11.0615h.07l2.415-11.0615h3.6758l-5.11,20.8271c-.77,3.1856-2.8008,4.0957-4.9356,4.0957h-.98v-3.36h.8046c1.4356,0,1.8907-.49,2.6954-4.62l-4.8653-16.9423Z" transform="translate(0 -3.8643)"/><path class="cls-1" d="M342.6826,219.9053l5.7764-11.7617h-5.3213v-3.15h9.3809v2.8359L346.7432,219.38h5.7754v3.36h-9.836Z" transform="translate(0 -3.8643)"/><path class="cls-1" d="M2.1709,243.9629a5.175,5.175,0,0,1,5.3213-5.3555,5.1748,5.1748,0,0,1,5.32,5.3555v14.6318a5.1748,5.1748,0,0,1-5.32,5.3555,5.175,5.175,0,0,1-5.3213-5.3555Zm3.57,14.6318a1.7508,1.7508,0,1,0,3.501,0V243.9629a1.7508,1.7508,0,1,0-3.501,0Z" transform="translate(0 -3.8643)"/><path class="cls-1" d="M20.4492,242.5977l-3.5713,2.6259v-3.78l3.5713-2.626h3.57V263.74h-3.57Z" transform="translate(0 -3.8643)"/><path class="cls-1" d="M29.11,260.38l6.44-12.1465a5.9188,5.9188,0,0,0,.63-3.29c0-1.26,0-2.7657-1.75-2.7657a1.6283,1.6283,0,0,0-1.75,1.7852v2.03H29.11v-1.96a5.3928,5.3928,0,0,1,5.3554-5.4258c3.71,0,5.2852,2.94,5.2852,6.2656a8.3748,8.3748,0,0,1-1.1895,5.1807L33.3105,260.17H39.751v3.57H29.11Z" transform="translate(0 -3.8643)"/><path class="cls-1" d="M47.7305,249.3184c2.1347,0,2.8349-.3145,2.8349-2.17v-3.2207a1.6534,1.6534,0,0,0-1.75-1.75,1.7,1.7,0,0,0-1.75,1.75v2.03h-3.57v-2.0644a5.3491,5.3491,0,0,1,5.3906-5.2862,5.0342,5.0342,0,0,1,3.8848,1.75c.9453,1.12,1.3652,2.1006,1.3652,5.2862,0,3.43-.1748,3.99-2.205,5.2148,2.205,1.3652,2.205,2.1709,2.205,5.7061,0,3.29-.21,4.0253-.9453,5.11a5.0037,5.0037,0,0,1-4.41,2.2754,5.0636,5.0636,0,0,1-5.2852-5.32V256.6h3.57v1.8555a1.7405,1.7405,0,0,0,1.75,1.9248c1.085,0,1.75-.7705,1.75-1.9951v-3.57c0-1.9258-.5254-2.3457-2.8349-2.3457Z" transform="translate(0 -3.8643)"/><path class="cls-1" d="M64.5654,260.03H57.46v-3.36l5.1455-17.8525h3.78L61.03,256.67h3.5351v-7.1064h3.57V256.67h1.7149v3.36H68.1357v3.71h-3.57Z" transform="translate(0 -3.8643)"/><path class="cls-1" d="M83.8154,242.1777h-7.07v6.7207a4.3577,4.3577,0,0,1,2.9746-1.1552c2.416,0,4.0957,1.541,4.0957,4.4111v6.44a5.32,5.32,0,1,1-10.6406,0v-1.05h3.57v.91a1.7565,1.7565,0,0,0,1.82,1.9248,1.6335,1.6335,0,0,0,1.68-1.8555v-5.8457a1.7058,1.7058,0,0,0-1.68-1.7851,1.9519,1.9519,0,0,0-1.82,1.3652h-3.15V238.8174H83.8154Z" transform="translate(0 -3.8643)"/><path class="cls-1" d="M92.8447,249.2842l.07.0693a2.7326,2.7326,0,0,1,1.5049-.3144,3.69,3.69,0,0,1,3.0108,1.6093c.63.98.7695,1.8555.7695,5.8116,0,3.2548-.14,3.955-.8047,5.0752A5.061,5.061,0,0,1,92.88,263.95a5.16,5.16,0,0,1-4.4805-2.415c-.7-1.12-.84-1.82-.84-5.0752,0-3.0811.1748-3.7813.665-5.1114l4.69-12.5312h3.99Zm1.7852,4.69a1.75,1.75,0,1,0-3.5,0v4.62a1.75,1.75,0,1,0,3.5,0Z" transform="translate(0 -3.8643)"/><path class="cls-1" d="M108.3428,242.1777h-3.92v2.87h-3.15v-6.2305h10.6406v3.57L105.8574,263.74h-3.78Z" transform="translate(0 -3.8643)"/><path class="cls-1" d="M116.8789,240.5332a5.17,5.17,0,0,1,8.0508,0c.9453,1.19,1.2949,2.0645,1.2949,4.7949,0,2.94-.0693,3.9561-1.7851,5.32,1.7158,1.2959,1.7851,2.3457,1.7851,6.126,0,3.0449-.2451,3.8858-.98,4.9707a5.375,5.375,0,0,1-8.6816,0c-.7344-1.0849-.98-1.9258-.98-4.9707,0-3.78.0693-4.83,1.7851-6.126-1.7158-1.3642-1.7851-2.38-1.7851-5.32C115.584,242.5977,115.9336,241.7227,116.8789,240.5332Zm5.7754,3.3945a1.75,1.75,0,0,0-3.5,0v3.6407a1.75,1.75,0,0,0,3.5,0Zm0,9.8018a1.75,1.75,0,0,0-3.5,0v4.9a1.75,1.75,0,0,0,3.5,0Z" transform="translate(0 -3.8643)"/><path class="cls-1" d="M135.3242,253.2744l-.07-.07a2.7327,2.7327,0,0,1-1.5049.3154,3.687,3.687,0,0,1-3.0107-1.61c-.63-.9805-.77-1.8555-.77-5.8106,0-3.2558.14-3.956.8046-5.0761a5.061,5.061,0,0,1,4.5157-2.4151,5.1593,5.1593,0,0,1,4.48,2.4151c.7,1.12.84,1.82.84,5.0761,0,3.08-.1748,3.78-.6651,5.11l-4.69,12.5312h-3.99Zm-1.7851-4.69a1.75,1.75,0,1,0,3.5,0v-4.6211a1.75,1.75,0,1,0-3.5,0Z" transform="translate(0 -3.8643)"/><path class="cls-1" d="M143.999,252.2236h3.57v3.57h-3.57Zm0,7.9463h3.57v3.57l-3.57,2.59Z" transform="translate(0 -3.8643)"/><path class="cls-1" d="M151.5654,260.17h3.57v3.57h-3.57Z" transform="translate(0 -3.8643)"/><path class="cls-1" d="M159.1885,260.17h3.57v3.57l-3.57,2.59Z" transform="translate(0 -3.8643)"/><path class="cls-1" d="M164.8262,238.8174h3.57v3.57l-3.57,2.5908Zm4.9,0h3.57v3.57l-3.57,2.5908Z" transform="translate(0 -3.8643)"/><path class="cls-1" d="M173.9268,252.2236h3.57v3.57h-3.57Zm0,7.9463h3.57v3.57h-3.57Z" transform="translate(0 -3.8643)"/><path class="cls-1" d="M179.4736,243.9277a5.3562,5.3562,0,0,1,5.3907-5.32,5.0482,5.0482,0,0,1,4.1308,1.9951c.9444,1.2608,1.1895,2.1358,1.1895,4.27,0,2.3809-.1045,3.2208-.56,3.99l-2.416,4.1308a3.7408,3.7408,0,0,0-.5947,1.7852v2.8h-3.57v-3.2549a5.5041,5.5041,0,0,1,.875-2.8349l2.24-3.6407a4.0194,4.0194,0,0,0,.4551-2.03v-1.8555a1.763,1.763,0,0,0-1.75-1.7852,1.7945,1.7945,0,0,0-1.82,1.7852v2.03h-3.57Zm3.57,16.2422h3.57v3.57h-3.57Z" transform="translate(0 -3.8643)"/><path class="cls-1" d="M211.41,254.1846a6.2077,6.2077,0,0,0-.3506,1.5752c0,.5947.21,1.0146.8056,1.0146,2.24,0,4.76-4.165,4.76-7.5254,0-4.9-4.41-8.331-9.3809-8.331a10.7012,10.7012,0,0,0-10.57,10.4658A10.4074,10.4074,0,0,0,207.42,261.64a11.7609,11.7609,0,0,0,8.5059-3.6748h2.6953A13.3319,13.3319,0,0,1,207.14,263.95c-7.3164,0-13.1611-5.4258-13.1611-12.7412,0-7.001,6.02-12.6016,13.2315-12.6016,6.58,0,12.11,4.3408,12.11,10.4658,0,5.8457-5.0049,9.8018-7.9805,9.8018a2.4069,2.4069,0,0,1-2.73-2.2051H208.54a5.4036,5.4036,0,0,1-4.27,2.2051,5.0365,5.0365,0,0,1-5.0058-5.3213c0-4.62,3.29-9.5908,8.19-9.5908a4.1515,4.1515,0,0,1,4.0254,2.7305h.07l.7-2.1348h2.2051Zm-3.9561-7.7012c-3.0449,0-5.3906,3.8857-5.3906,6.8262a2.7435,2.7435,0,0,0,2.9062,3.0449c2.66,0,5.0752-4.165,5.0752-6.9658C210.0449,247.7432,209.1348,246.4834,207.4541,246.4834Z" transform="translate(0 -3.8643)"/><path class="cls-1" d="M228.9844,256.2148h-2.94l-1.0146,7.5254h-2.38l1.0147-7.5254h-1.7852v-2.1005h2.0654l.77-5.6709h-1.75v-2.1h2.03l1.0157-7.5264h2.38l-1.0146,7.5264h2.94l1.0156-7.5264h2.38l-1.0147,7.5264h1.7852v2.1H232.415l-.77,5.6709h1.751v2.1005h-2.03L230.35,263.74h-2.38Zm1.0508-7.7714h-2.9405l-.77,5.6709h2.94Z" transform="translate(0 -3.8643)"/><path class="cls-1" d="M242.5264,263.95a5.7984,5.7984,0,0,1-5.251-5.8457v-1.4h3.57v1.2607a2.2778,2.2778,0,0,0,1.6807,2.4151v-8.0508l-1.19-.49c-3.08-1.26-3.8857-3.29-3.8857-6.4053,0-3.5361,1.6807-6.3711,5.0762-6.8262v-2.625h1.7851v2.625a5.8065,5.8065,0,0,1,5.2158,5.6358v1.75h-3.57v-.8047c0-1.4707-.455-2.625-1.6455-3.0108v7.0362l1.47.5947c3.15,1.19,3.7461,3.1855,3.7461,6.8262,0,3.99-1.33,6.9306-5.2158,7.3154v2.94h-1.7851Zm0-21.7725c-1.19.4551-1.5049,1.75-1.5049,3.2207,0,1.68.14,2.4151,1.5049,3.045Zm1.7851,18.2022c1.5049-.35,1.6455-1.68,1.6455-3.71,0-2.3808-.2451-2.9756-1.6455-3.5713Z" transform="translate(0 -3.8643)"/><path class="cls-1" d="M252.4619,243.7529v-2.2754a2.977,2.977,0,0,1,5.95,0v2.2754a2.9937,2.9937,0,0,1-5.95,0Zm8.961-4.9355h2.3095l-8.541,24.9228h-2.31Zm-5.1114,4.5859v-1.7851a.8757.8757,0,1,0-1.75,0v1.7851a.8757.8757,0,1,0,1.75,0Zm1.8906,17.8867v-2.2754a2.977,2.977,0,0,1,5.95,0V261.29a2.9937,2.9937,0,0,1-5.95,0Zm2.1006-.35a.8756.8756,0,1,0,1.75,0v-1.7861a.8756.8756,0,1,0-1.75,0Z" transform="translate(0 -3.8643)"/><path class="cls-1" d="M273.707,238.8174h2.3106l7.5957,15.0166h-2.8l-5.9512-11.8662-5.95,11.8662h-2.8008Z" transform="translate(0 -3.8643)"/><path class="cls-1" d="M296.8945,261.85a6.3778,6.3778,0,0,1-4.7607,2.1006c-2.835,0-5.1455-2.3106-5.1455-5.7754,0-2.7305,1.4707-4.7256,3.4306-6.4756a9.9734,9.9734,0,0,1-2.17-5.7412,4.5433,4.5433,0,0,1,4.8653-4.83,4.3931,4.3931,0,0,1,4.7255,4.5157c0,2.31-1.6806,4.5156-3.6406,6.2656.875,1.3652,2.0654,3.4648,3.29,5.2158l1.9257-2.626,2.2051,1.54-2.66,3.4306,2.6953,4.2705h-3.57Zm-4.0957-.6992a3.8005,3.8005,0,0,0,2.6612-1.5059l-3.4307-5.46A5.5028,5.5028,0,0,0,290.1387,258,2.9046,2.9046,0,0,0,292.7988,261.15Zm-.0342-11.5166a5.7221,5.7221,0,0,0,2.1348-3.9209,1.753,1.753,0,0,0-1.7148-1.7852,1.9418,1.9418,0,0,0-1.7852,2.1006A7.5929,7.5929,0,0,0,292.7646,249.6338Z" transform="translate(0 -3.8643)"/><path class="cls-1" d="M310.834,238.8174a56.2611,56.2611,0,0,0-1.7852,15.1914A49.7372,49.7372,0,0,0,310.834,267.24h-1.19a26.48,26.48,0,0,1-4.166-14.2109,27.1741,27.1741,0,0,1,4.166-14.2119Z" transform="translate(0 -3.8643)"/><path class="cls-1" d="M314.0566,267.24a56.2524,56.2524,0,0,0,1.7852-15.1914,49.7388,49.7388,0,0,0-1.7852-13.2314h1.19a26.4929,26.4929,0,0,1,4.165,14.2119,27.1788,27.1788,0,0,1-4.165,14.2109Z" transform="translate(0 -3.8643)"/><path class="cls-1" d="M321.6367,266.3652h17.502v1.75h-17.502Z" transform="translate(0 -3.8643)"/><path class="cls-1" d="M348.3115,246.0283h2.8008v7.4561h7.4561v2.8h-7.4561v7.456h-2.8008v-7.456h-7.4551v-2.8h7.4551Z" transform="translate(0 -3.8643)"/><path class="cls-1" d="M368.1211,263.95h-2.8L360.7,238.6074h2.8008Z" transform="translate(0 -3.8643)"/><path class="cls-1" d="M369.9688,251.9443c1.2949,0,2.24-1.6455,2.24-3.9209v-5.32c0-2.45,1.5752-3.8857,3.43-3.8857h1.8906v2.1006h-.63c-1.12,0-1.541.875-1.541,2.31v5.2852c0,3.08-1.4346,4.3056-2.415,4.48v.07c.98.1748,2.415,1.2949,2.415,4.5146v5.2158c0,1.4707.4209,2.3457,1.541,2.3457h.63v2.1h-1.8906c-1.8545,0-3.43-1.4345-3.43-3.8847v-5.2862c0-2.3447-.9453-4.0254-2.24-4.0254Z" transform="translate(0 -3.8643)"/><path class="cls-1" d="M387.7725,254.0439c-1.295,0-2.24,1.6807-2.24,4.0254v5.2862c0,2.45-1.5752,3.8847-3.4306,3.8847h-1.89v-2.1h.63c1.12,0,1.54-.875,1.54-2.3457v-5.2158c0-3.22,1.4346-4.34,2.4151-4.5146v-.07c-.9805-.1748-2.4151-1.4-2.4151-4.48v-5.2852c0-1.4355-.42-2.31-1.54-2.31h-.63v-2.1006h1.89c1.8554,0,3.4306,1.4355,3.4306,3.8857v5.32c0,2.2754.9453,3.9209,2.24,3.9209Z" transform="translate(0 -3.8643)"/><path class="cls-1" d="M390.8584,238.8174h4.4805l-1.3653,18.7617h-1.75Zm.4551,21.3525h3.57v3.57h-3.57Z" transform="translate(0 -3.8643)"/><path class="cls-1" d="M403.333,238.6074h2.8l-4.62,25.3428h-2.8008Z" transform="translate(0 -3.8643)"/><path class="cls-1" d="M1.749,273.3438H4.166a2.65,2.65,0,0,1,2.8652,2.9453v5.33c0,2.1123-1.0878,3.1211-3.0087,3.1211H1.749Zm1.6328,9.86h.753c.9121,0,1.2646-.4482,1.2646-1.4248v-5.49c0-.8965-.3047-1.4092-1.2646-1.4092h-.753Z" transform="translate(0 -3.8643)"/><path class="cls-1" d="M9.1016,273.3438h1.6328V284.74H9.1016Z" transform="translate(0 -3.8643)"/><path class="cls-1" d="M12.792,273.3438h1.5693l2.4649,6.8662h.0322v-6.8662H18.49V284.74H16.9541L14.457,277.89h-.0322V284.74H12.792Z" transform="translate(0 -3.8643)"/><path class="cls-1" d="M29.4346,276.625H27.8018v-.3682c0-.7519-.32-1.3769-1.1524-1.3769-.8965,0-1.1045.7207-1.1045,1.4726,0,.8809.08,1.1846.9287,1.52l1.2481.4971c1.44.544,1.7129,1.4561,1.7129,3.1211,0,1.9209-.7041,3.3447-2.8174,3.3447a2.69,2.69,0,0,1-2.7852-2.705v-.6084h1.6328v.5127a1.0768,1.0768,0,0,0,1.1524,1.1689c1.1045,0,1.1846-.6572,1.1846-1.6973,0-1.2168-.1436-1.4082-.9444-1.7285l-1.1689-.48a2.6877,2.6877,0,0,1-1.7764-2.9288c0-1.7285.9287-3.1211,2.8008-3.1211a2.6706,2.6706,0,0,1,2.7217,2.5762Z" transform="translate(0 -3.8643)"/><path class="cls-1" d="M32.8584,282.4033a.7328.7328,0,0,0,.8.8008c.625,0,.7686-.4648.8008-.8164h1.6328a2.491,2.491,0,0,1-.6563,1.7285,2.3828,2.3828,0,0,1-1.7773.72,2.325,2.325,0,0,1-2.1289-1.1679,3.5782,3.5782,0,0,1-.3037-1.6485v-2.6738a3.578,3.578,0,0,1,.3037-1.6484,2.3251,2.3251,0,0,1,2.1289-1.168,2.38,2.38,0,0,1,2.4336,2.5928H34.459c0-.6563-.3047-.961-.8008-.961s-.8.32-.8.9287Z" transform="translate(0 -3.8643)"/><path class="cls-1" d="M37.6846,273.3438h1.6328v4.0654H39.35a1.7244,1.7244,0,0,1,1.5361-.88c.8164,0,1.6807.5283,1.6807,1.9844V284.74H40.9336v-5.6181c0-.5928-.2881-.961-.8-.961-.6084,0-.8164.4-.8164,1.1211v5.458H37.6846Z" transform="translate(0 -3.8643)"/><path class="cls-1" d="M44.4443,276.625h1.6328v.8643a2.9836,2.9836,0,0,1,2.1612-.96v1.7285a1.2988,1.2988,0,0,0-.4961-.0967,1.6289,1.6289,0,0,0-1.6651,1.7608V284.74H44.4443Z" transform="translate(0 -3.8643)"/><path class="cls-1" d="M49.6719,273.3438h1.6318v1.6328H49.6719Zm0,3.2812h1.6318V284.74H49.6719Z" transform="translate(0 -3.8643)"/><path class="cls-1" d="M53.5859,277.9053h-.8v-1.28h.8v-1.1045a1.9837,1.9837,0,0,1,2.0977-2.1767h.7519V274.88h-.7363c-.3037,0-.48.208-.48.56v1.1846h1.2167v1.28H55.2188V284.74H53.5859Z" transform="translate(0 -3.8643)"/><path class="cls-1" d="M58.208,274.16h1.6328v2.4648H60.85v1.28H59.8408v4.498c0,.752.2881.8008,1.0088.8008V284.74h-.6728a1.8134,1.8134,0,0,1-1.9688-1.9043v-4.9306h-.8164v-1.28h.8164Z" transform="translate(0 -3.8643)"/><path class="cls-1" d="M67.4736,275.0723l-1.6328,1.2v-1.7286l1.6328-1.2h1.6319V284.74H67.4736Z" transform="translate(0 -3.8643)"/><path class="cls-1" d="M74.5918,283.0439h-3.249v-1.5371l2.3525-8.163h1.7285l-2.4492,8.163h1.6172v-3.249h1.6328v3.249h.7842v1.5371h-.7842V284.74H74.5918Z" transform="translate(0 -3.8643)"/><path class="cls-1" d="M83.4756,274.88H80.2422v3.0732a1.9934,1.9934,0,0,1,1.36-.5283,1.8,1.8,0,0,1,1.8731,2.0176v2.9453a2.4331,2.4331,0,1,1-4.8662,0v-.4805h1.6328v.416a.8037.8037,0,0,0,.832.8809.7472.7472,0,0,0,.7686-.8486v-2.6729a.78.78,0,0,0-.7686-.8164.892.892,0,0,0-.832.624h-1.44v-6.1464h4.6738Z" transform="translate(0 -3.8643)"/><path class="cls-1" d="M87.0605,275.0723l-1.6328,1.2v-1.7286l1.6328-1.2h1.6319V284.74H87.0605Z" transform="translate(0 -3.8643)"/><path class="cls-1" d="M95.4912,273.3438h4.8652V274.88H97.124v3.3457H99.94v1.5371H97.124v3.3447h3.2324V284.74H95.4912Z" transform="translate(0 -3.8643)"/><path class="cls-1" d="M102.0215,276.625h1.6328v.7842h.0322a1.7249,1.7249,0,0,1,1.5371-.88c.8155,0,1.6807.5283,1.6807,1.9844V284.74h-1.6328v-5.6181c0-.5928-.2881-.961-.8008-.961-.6084,0-.8164.4-.8164,1.1211v5.458h-1.6328Z" transform="translate(0 -3.8643)"/><path class="cls-1" d="M110.3965,285.6846a.8294.8294,0,0,0,.8642.8008c.5284,0,.753-.3682.753-.8809v-1.6006h-.0323a1.7577,1.7577,0,0,1-1.52.832,1.4851,1.4851,0,0,1-1.4248-.7675,3.677,3.677,0,0,1-.2724-1.7452v-3.0888a3.8741,3.8741,0,0,1,.2568-1.9688,1.5354,1.5354,0,0,1,1.4561-.7363,1.83,1.83,0,0,1,1.5371.832v-.7363h1.6328v9.1074a2.311,2.311,0,0,1-2.4492,2.3848,2.4227,2.4227,0,0,1-2.4336-2.4326Zm0-3.4414c0,.5127.1767.9609.8008.9609a.8266.8266,0,0,0,.8164-.8809V279.17c0-.5918-.32-1.0088-.8164-1.0088-.5606,0-.8008.4483-.8008,1.1045Z" transform="translate(0 -3.8643)"/><path class="cls-1" d="M118.5352,278.8975a.8065.8065,0,0,0-.8331-.8321.7855.7855,0,0,0-.8.8164c0,.3037.08.5918.6885.8321l.96.3847a2.2593,2.2593,0,0,1,1.6006,2.2891,2.405,2.405,0,0,1-2.4326,2.4482,2.3635,2.3635,0,0,1-2.4336-2.4482h1.5371c.0634.4482.2724.9121.88.9121a.8842.8842,0,0,0,.9131-.8809c0-.4482-.1923-.7519-.8164-.9921l-.7842-.2881a2.31,2.31,0,0,1-1.6494-2.2412,2.3507,2.3507,0,0,1,2.4014-2.3682,2.29,2.29,0,0,1,2.3047,2.3682Z" transform="translate(0 -3.8643)"/><path class="cls-1" d="M123.4727,282.4033a.7328.7328,0,0,0,.8.8008c.624,0,.7685-.4648.8007-.8164h1.6329a2.4876,2.4876,0,0,1-.6573,1.7285,2.38,2.38,0,0,1-1.7763.72,2.3249,2.3249,0,0,1-2.1289-1.1679,3.5768,3.5768,0,0,1-.3038-1.6485v-2.6738a3.5766,3.5766,0,0,1,.3038-1.6484,2.325,2.325,0,0,1,2.1289-1.168,2.38,2.38,0,0,1,2.4336,2.5928h-1.6329c0-.6563-.3046-.961-.8007-.961s-.8.32-.8.9287Z" transform="translate(0 -3.8643)"/><path class="cls-1" d="M128.2979,273.3438h1.6328v4.0654h.0322a1.7248,1.7248,0,0,1,1.5371-.88c.8154,0,1.6807.5283,1.6807,1.9844V284.74h-1.6328v-5.6181c0-.5928-.2881-.961-.8008-.961-.6084,0-.8164.4-.8164,1.1211v5.458h-1.6328Z" transform="translate(0 -3.8643)"/><path class="cls-1" d="M135.0576,276.625H136.69v.8643a2.9853,2.9853,0,0,1,2.1612-.96v1.7285a1.2992,1.2992,0,0,0-.4961-.0967,1.6289,1.6289,0,0,0-1.6651,1.7608V284.74h-1.6328Z" transform="translate(0 -3.8643)"/><path class="cls-1" d="M140.2852,273.3438h1.6328v1.6328h-1.6328Zm0,3.2812h1.6328V284.74h-1.6328Z" transform="translate(0 -3.8643)"/><path class="cls-1" d="M144.2,277.9053h-.8v-1.28h.8v-1.1045a1.9836,1.9836,0,0,1,2.0977-2.1767h.7519V274.88h-.7363c-.3037,0-.4805.208-.4805.56v1.1846H147.05v1.28H145.833V284.74H144.2Z" transform="translate(0 -3.8643)"/><path class="cls-1" d="M148.8223,274.16h1.6328v2.4648h1.0088v1.28h-1.0088v4.498c0,.752.2881.8008,1.0088.8008V284.74h-.6729a1.8134,1.8134,0,0,1-1.9687-1.9043v-4.9306h-.8164v-1.28h.8164Z" transform="translate(0 -3.8643)"/><path class="cls-1" d="M156.375,273.3438h1.6328v9.7636h3.2334V284.74H156.375Z" transform="translate(0 -3.8643)"/><path class="cls-1" d="M163.5576,274.88h-1.8887v-1.5361h5.41V274.88H165.19v9.86h-1.6328Z" transform="translate(0 -3.8643)"/><path class="cls-1" d="M1.1016,126.1631H2.7344V137.56H1.1016Z" transform="translate(0 -3.8643)"/><path class="cls-1" d="M4.8252,126.1631h2.417a2.65,2.65,0,0,1,2.8652,2.9453v5.33c0,2.1123-1.0888,3.1211-3.01,3.1211H4.8252Zm1.6328,9.8594H7.21c.9121,0,1.2646-.4473,1.2646-1.4239v-5.49c0-.8965-.3047-1.4092-1.2646-1.4092H6.458Z" transform="translate(0 -3.8643)"/><path class="cls-1" d="M18.9893,137.56H17.4521l-1.248-7.3946h-.0322L14.94,137.56H13.4033l-1.6972-11.3965h1.7285l.8164,7.2344h.0322l1.28-7.2344h1.249l1.3281,7.4111h.0323l.7841-7.4111h1.7285Z" transform="translate(0 -3.8643)"/><path class="cls-1" d="M22.47,126.1631h1.6328v4.8818h2.0166v-4.8818H27.752V137.56H26.1191v-5.0742H24.1025V137.56H22.47Z" transform="translate(0 -3.8643)"/><path class="cls-1" d="M38.76,129.4443H37.127v-.3681c0-.752-.32-1.377-1.1524-1.377-.8965,0-1.1045.7207-1.1045,1.4727,0,.8808.08,1.1845.9278,1.52l1.249.4971c1.44.5439,1.7129,1.456,1.7129,3.121,0,1.9209-.7051,3.3448-2.8174,3.3448a2.69,2.69,0,0,1-2.7852-2.7051v-.6084H34.79v.5127a1.0762,1.0762,0,0,0,1.1524,1.168c1.1045,0,1.1846-.6563,1.1846-1.6963,0-1.2168-.1446-1.4082-.9444-1.7285l-1.1689-.4805a2.6877,2.6877,0,0,1-1.7764-2.9287c0-1.7285.9287-3.1211,2.8008-3.1211a2.6706,2.6706,0,0,1,2.7217,2.5762Z" transform="translate(0 -3.8643)"/><path class="cls-1" d="M43.7217,136.7275H43.69a1.7372,1.7372,0,0,1-1.5684.9278c-.7529,0-1.7607-.3682-1.7607-2.16,0-1.8574.5283-2.7539,2.5771-2.7539.2236,0,.4482.0322.7842.0488v-.8486c0-.5439-.208-.9609-.8164-.9609a.95.95,0,0,0-.9287.8164h-1.584a2.6891,2.6891,0,0,1,.7363-1.7608,2.45,2.45,0,0,1,1.7764-.6875,2.3411,2.3411,0,0,1,2.4492,2.5606v5.65H43.7217Zm0-2.6572a2.3658,2.3658,0,0,0-.4483-.0478c-.7041,0-1.28.288-1.28,1.1523,0,.624.3193,1.04.8476,1.04.5449,0,.8809-.3837.8809-1.04Z" transform="translate(0 -3.8643)"/><path class="cls-1" d="M47.1592,129.4443H48.792v.7842h.0322a1.7249,1.7249,0,0,1,1.5371-.88c.8155,0,1.6807.5274,1.6807,1.9844V137.56H50.4092v-5.6182c0-.5928-.2881-.9609-.8008-.9609-.6084,0-.8164.4-.8164,1.1211v5.458H47.1592Z" transform="translate(0 -3.8643)"/><path class="cls-1" d="M56.9307,131.7168a.8064.8064,0,0,0-.833-.832.7854.7854,0,0,0-.8.8164c0,.3037.08.5918.6884.832l.96.3848a2.2591,2.2591,0,0,1,1.6006,2.289,2.4051,2.4051,0,0,1-2.4326,2.4483,2.3631,2.3631,0,0,1-2.4336-2.4483h1.5371c.0634.4483.2724.9121.88.9121a.8841.8841,0,0,0,.913-.8808c0-.4483-.1923-.752-.8164-.9922l-.7841-.2881a2.3094,2.3094,0,0,1-1.65-2.2412,2.3507,2.3507,0,0,1,2.4014-2.3682,2.29,2.29,0,0,1,2.3047,2.3682Z" transform="translate(0 -3.8643)"/></g></g></svg>