<svg xmlns="http://www.w3.org/2000/svg" viewBox="0 0 1288.5512 1296.4038"><defs><style>.cls-1{fill:#d4b891;}.cls-2{fill:#fff;}.cls-3{fill:none;stroke:#fff;stroke-linecap:round;stroke-miterlimit:10;stroke-width:13.1767px;}.cls-4{fill:#95a823;}.cls-5{fill:#e66624;}.cls-6{fill:#231f20;}</style></defs><g id="Layer_2" data-name="Layer 2"><g id="Layer_1-2" data-name="Layer 1"><rect class="cls-1" width="603.0633" height="603.0633"/><path class="cls-2" d="M518.6207,176.773c-1.48,14.5443-9.385,40.2942-29.6634,44.5415-5.4115,1.13-10.823.7534-15.5968.4136-2.2452-.1625-4.37-.31-6.3819-.31a8.0254,8.0254,0,0,0,0,16.0364c19.6553,0,35.6418,16.6716,35.6418,37.17,0,19.7888-14.9026,36.0172-33.63,37.1031-.3614.0295-.73.0443-1.0908.0517h-.0214l-.9-.0148-83.0831-1.0784a15.9339,15.9339,0,0,1-11.63-4.2621,17.3675,17.3675,0,0,1-5.546-11.7891c-.85-14.0716,12.9336-19.22,21.1638-22.3,1.7424-.6427,3.3786-1.2558,4.5614-1.8172,7.756-3.6416,17.7074-8.7679,25.9026-16.1471a6.1362,6.1362,0,0,0,.5949-8.3839,5.5959,5.5959,0,0,0-3.8956-2.0461,5.4889,5.4889,0,0,0-3.251.7756L399.3435,258.89a15.9831,15.9831,0,0,1-23.2466.5687,17.6716,17.6716,0,0,1-4.0229-18.4961v-.0148a7.1926,7.1926,0,0,1,1.53-3.3535l.7366-.9011,1.3032-1.5808,26.6531-32.42a1.7553,1.7553,0,0,0,.0851-1.0711,1.7305,1.7305,0,0,0-.7581-1.1227,1.6128,1.6128,0,0,0-1.2962-.2364,1.6824,1.6824,0,0,0-1.0836.79,6.304,6.304,0,0,1-.6516.8937A39.3887,39.3887,0,0,1,374.27,218.5519a38.79,38.79,0,0,1-8.1527.879,38.271,38.271,0,0,1-21.702-6.8031,7.265,7.265,0,0,1-.6446-.5023l-23.2818-16.0142a3.6575,3.6575,0,0,0-5.1988,1.0932,4.03,4.03,0,0,0-.5454,2.94,3.852,3.852,0,0,0,1.1261,2.0756c.1418.0886.2763.1847.4108.2881l14.86,11.3237a15.353,15.353,0,0,1,5.0148,19.811c-.0073.0073-.0073.0221-.0142.03A18.9428,18.9428,0,0,1,319.1,244.7005a18.2526,18.2526,0,0,1-7.77-1.7432,6.5429,6.5429,0,0,1-1.7493-1.1966l-25.0526-8.62a2.3039,2.3039,0,0,0-2.3092,1.9426,2.35,2.35,0,0,0,1.8274,2.74v.0148a6.7141,6.7141,0,0,1,1.105.325l21.8227,8.5463a6.7213,6.7213,0,0,1,1.6289.9234,13.0338,13.0338,0,0,1,7.7491,5.4,14.0408,14.0408,0,0,1,2.26,10.2157A13.3263,13.3263,0,0,1,305.6639,274.69a12.77,12.77,0,0,1-2.1744-.1847,7.0212,7.0212,0,0,1-5.5529-8.1105,6.9147,6.9147,0,0,1,5.5315-5.7911,6.3857,6.3857,0,0,1-.8287-.5614c-.1345-.0443-.276-.096-.4108-.1477l-21.4966-8.406c-8.0465-2.0314-13.2947-10.3044-11.8072-18.91,1.5369-8.9231,9.7529-14.8841,18.3164-13.2664l.4673.0812,32.3409,11.1317a5.4912,5.4912,0,0,0,3.9877-3.1171c.064-.1478.1418-.2881.22-.4285a1.0247,1.0247,0,0,0,.0923-.2216v-.0074a.895.895,0,0,0-.39-.9824l-.5665-.3841-14.1235-10.77c-.1276-.0812-.2552-.1625-.3755-.2438a17.9175,17.9175,0,0,1-7.3874-11.4123,18.5146,18.5146,0,0,1,2.5144-13.525,16.85,16.85,0,0,1,23.9119-5.082l23.9123,16.45c.1771.1255.3469.2512.51.3915a25.084,25.084,0,0,0,19.1663,3.56,26.0288,26.0288,0,0,0,16.5744-11.76,6.9478,6.9478,0,0,1,.8923-1.1375,15.0617,15.0617,0,0,1,8.3934-5.3479,14.611,14.611,0,0,1,11.4814,2.09,16.3189,16.3189,0,0,1,4.7032,21.9309l-.2621.421-28.3388,34.4661c-.0073.0073-.0073.0147-.0146.0221a3.166,3.166,0,0,0,.4676,3.8263,2.8565,2.8565,0,0,0,4.1153-.0665l12.6359-14.3818-.092-.1107A18.587,18.587,0,0,1,416.031,229.89a18.8216,18.8216,0,0,1,13.1319,6.8843,20.6508,20.6508,0,0,1-1.9835,28.2539c-9.5122,8.5685-20.5973,14.3005-29.1816,18.3336-1.6719.79-3.563,1.4921-5.56,2.2381-6.559,2.4524-12.43,4.92-12.2323,8.14a3.1113,3.1113,0,0,0,.9915,2.1052,2.8641,2.8641,0,0,0,2.1318.7608l.2553-.0147,84.2237,1.0932c11.8214-.458,21.3053-10.622,21.3053-23.0611,0-12.7271-9.93-23.0832-22.1343-23.0832-11.6869,0-21.1991-9.9129-21.1991-22.1082,0-12.188,9.5122-22.1008,21.1991-22.1008,2.4721-.0074,4.9228.17,7.2957.34,4.3134.3028,8.3861.5909,12.02-.17,6.4172-1.3444,16.7442-11.0283,18.89-32.2131,1.58-15.5637-5.4184-32.4717-17.8278-43.0715-14.7749-12.6238-23.48-7.4236-41.7539,5.5326-1.1191.7977-2.295,1.6989-3.5415,2.6518-6.9837,5.3479-16.553,12.6681-28.1406,8.5242-4.328-1.5512-8.3792-4.2991-12.7566-8.6424a130.3264,130.3264,0,0,1-9.5264-10.947c-1.9056-2.3711-3.7117-4.6092-5.6169-6.7514-5.029-5.6581-18.3307-17.8683-33.1555-9.0634-.7577.4506-1.5511.975-2.387,1.5217-3.3288,2.1938-7.4655,4.9195-12.721,5.0967-8.7472.3177-13.9958-5.7615-17.8209-10.1861-1.9049-2.2086-3.704-4.299-5.4395-5.1707-11.7505-5.9462-31.3422-2.3563-44.6086,8.17-5.5532,4.41-14.52,13.7687-12.197,26.9316a23.333,23.333,0,0,0,10.4474,15.6227,42.58,42.58,0,0,0,7.2033,3.2133c5.7162,2.1568,12.2043,4.6092,16.7017,11.1759,2.8688,4.1809,5.44,11.05,4.0727,17.8018A15.6018,15.6018,0,0,1,288.92,198.18c-9.4842,5.85-20.5763.0444-27.9141-3.7967-.6516-.34-1.2752-.6648-1.8628-.96-2.6917-1.3739-5.3831-2.9251-7.9825-4.4245-4.9723-2.8661-10.1074-5.8281-15.0371-7.3645-4.93-1.5291-9.1232-1.4774-13.2028.1772-8.06,3.265-12.7493,13.0375-13.826,21.2809a33.2433,33.2433,0,0,0,5.9569,23.4452,71.115,71.115,0,0,0,5.7442,6.5741c3.2368,3.4126,6.58,6.9435,9.1937,11.4641,4.6676,8.0736,9.0024,23.9474-14.4208,39.6-2.9114,1.9427-5.6664,5.8429-5.1425,8.5612.5811,3.0211,6.3253,4.4393,8.9388,4.9268l32.1072-1.98,57.8255-2.3785h22.4245c15.4694.0591,28.0061,14.9875,28.0061,33.3063v86.0913a6.7632,6.7632,0,1,1-13.5144,0V326.6109c0-10.57-6.495-19.1905-14.52-19.22H309.425l-57.3507,2.3637-33.4034,2.0683-.7152-.1182c-15.0728-2.4671-19.62-10.1714-20.7817-16.1915-1.8485-9.61,4.4552-18.762,11.099-23.2014,15.8519-10.5925,11.9985-17.2552,10.15-20.461a50.5086,50.5086,0,0,0-7.2386-8.8418,83.7178,83.7178,0,0,1-6.8633-7.9111,47.4112,47.4112,0,0,1-8.613-33.9046c1.962-15.054,10.7306-27.8181,22.3255-32.516,15.1644-6.1457,28.75,1.6915,39.6647,7.9924,2.5637,1.4773,4.9864,2.8733,7.3662,4.0848.6305.325,1.3032.6722,1.9973,1.0415,4.1367,2.1643,11.8359,6.19,14.98,4.2547a1.6591,1.6591,0,0,0,.85-1.2631c.3614-1.7654-.432-4.6462-1.8417-6.7-2.0539-3.0064-5.8787-4.4468-10.3128-6.1235a52.72,52.72,0,0,1-9.4839-4.336,37.6429,37.6429,0,0,1-16.85-25.1884c-2.6492-15.0318,3.6549-29.8642,17.3035-40.7,17.53-13.9165,42.2146-17.9717,58.6825-9.64,4.1083,2.083,7.0193,5.4513,9.5835,8.4207,3.3786,3.9076,5.1,5.6287,7.3447,5.5326,1.5868-.0517,3.7048-1.4477,5.9428-2.9251.9348-.6057,1.8911-1.2409,2.9182-1.8466,15.8731-9.4328,34.94-4.9417,49.7507,11.7226,2.1321,2.3932,4.1225,4.8751,6.0561,7.2684a117.12,117.12,0,0,0,8.4923,9.8021c2.9183,2.9029,5.4046,4.6535,7.8269,5.5252,4.5614,1.6324,9.2079-1.5364,15.76-6.5594,1.289-.9824,2.62-2.0017,3.9451-2.94,8.62-6.1162,17.53-12.4391,26.9011-14.5074,10.49-2.312,20.633.8643,31.0022,9.7208C511.998,135.0534,520.6961,156.3047,518.6207,176.773Z"/><path class="cls-3" d="M352.9134,364.461v67.4543a4.0268,4.0268,0,0,0,4.0268,4.0268H405.946a4.0268,4.0268,0,0,0,3.8824-2.9584L432.1772,351.77a6.1,6.1,0,0,1,11.59-.5312l31.8966,84.7033"/><path class="cls-2" d="M84.14,437.1515V341.8521H97.2567l20.6121,57.4207h.2677V341.8521H131.789v95.2994H118.94L98.06,379.8646h-.2677v57.2869Z"/><path class="cls-2" d="M164.446,437.1515l21.2821-95.2994h11.377l21.2814,95.2994H204.7341l-4.015-20.4784h-18.605l-4.0156,20.4784Zm33.73-33.3283-6.6927-34.5324h-.2677l-6.692,34.5324Z"/><path class="cls-2" d="M251.581,437.1515V341.8521h13.117l17.5342,50.46h.267l17.4-50.46H313.15v95.2994H299.498V379.1954H299.23l-13.5186,40.9573h-6.8259l-13.3847-40.9573h-.2677v57.9561Z"/><path class="cls-2" d="M384.1229,501.0522v2.9928a10.7894,10.7894,0,0,1-.85,4.2512,11.7828,11.7828,0,0,1-2.3465,3.5707,11.3252,11.3252,0,0,1-3.503,2.4826,10.258,10.258,0,0,1-4.32.9184,15.5437,15.5437,0,0,1-4.0131-.5443,9.4819,9.4819,0,0,1-3.6727-1.9047,10.5123,10.5123,0,0,1-2.6864-3.5029,12.3809,12.3809,0,0,1-1.0545-5.4754V477.1778a11.7948,11.7948,0,0,1,.8165-4.4214,10.3991,10.3991,0,0,1,2.3123-3.5366,10.7527,10.7527,0,0,1,3.5708-2.3465,11.9966,11.9966,0,0,1,4.5916-.8506,10.5219,10.5219,0,0,1,7.958,3.1971,11.3941,11.3941,0,0,1,2.3465,3.7068,12.5327,12.5327,0,0,1,.85,4.6595v2.7206h-6.9376v-2.3129a5.6158,5.6158,0,0,0-1.1565-3.5366,3.7484,3.7484,0,0,0-3.1288-1.4964q-2.5851,0-3.4347,1.5983a8.5613,8.5613,0,0,0-.8506,4.0473v24.7582a6.4135,6.4135,0,0,0,.9184,3.5371,3.6168,3.6168,0,0,0,3.2986,1.4281,5.0107,5.0107,0,0,0,1.4627-.238,4.3558,4.3558,0,0,0,1.4623-.7818,4.145,4.145,0,0,0,1.02-1.4964,6.0607,6.0607,0,0,0,.4083-2.3807v-2.3807Z"/><path class="cls-2" d="M403.236,514.86V466.4309h10.407a15.4783,15.4783,0,0,1,5.0329.7482,9.6856,9.6856,0,0,1,3.9454,2.6528,10.3925,10.3925,0,0,1,2.4484,4.4551,27.8971,27.8971,0,0,1,.68,6.9039,34.36,34.36,0,0,1-.3736,5.51,11.5236,11.5236,0,0,1-1.5988,4.217,10.1239,10.1239,0,0,1-3.8093,3.7068,12.8174,12.8174,0,0,1-6.2572,1.3267h-3.5371V514.86Zm6.9376-41.8989v16.46h3.3327a7.0934,7.0934,0,0,0,3.265-.6121,3.8531,3.8531,0,0,0,1.7-1.7008,6.2206,6.2206,0,0,0,.6468-2.5162q.1017-1.4959.1014-3.3333,0-1.6992-.0672-3.2308a7.0123,7.0123,0,0,0-.6127-2.6864,3.8709,3.8709,0,0,0-1.6325-1.7686,6.4781,6.4781,0,0,0-3.1288-.6121Z"/><path class="cls-2" d="M444.3861,514.86V466.4309h10.407a15.4732,15.4732,0,0,1,5.0329.7482,9.6784,9.6784,0,0,1,3.9454,2.6528,10.3873,10.3873,0,0,1,2.449,4.4551,27.9262,27.9262,0,0,1,.68,6.9039,34.3655,34.3655,0,0,1-.3741,5.51,11.5228,11.5228,0,0,1-1.5984,4.217,10.1229,10.1229,0,0,1-3.8092,3.7068,12.82,12.82,0,0,1-6.2578,1.3267h-3.5371V514.86Zm6.9376-41.8989v16.46h3.3333a7.0926,7.0926,0,0,0,3.2649-.6121,3.8584,3.8584,0,0,0,1.7-1.7008,6.211,6.211,0,0,0,.6462-2.5162q.1017-1.4959.102-3.3333,0-1.6992-.0678-3.2308a7.0013,7.0013,0,0,0-.6121-2.6864,3.8724,3.8724,0,0,0-1.633-1.7686,6.4759,6.4759,0,0,0-3.1283-.6121Z"/><rect class="cls-4" x="685.4879" width="603.0633" height="603.0633"/><path class="cls-2" d="M1204.1086,176.773c-1.48,14.5443-9.385,40.2942-29.6635,44.5415-5.4114,1.13-10.8229.7534-15.5967.4136-2.2452-.1625-4.37-.31-6.3819-.31a8.0254,8.0254,0,0,0,0,16.0364c19.6552,0,35.6417,16.6716,35.6417,37.17,0,19.7888-14.9026,36.0172-33.63,37.1031-.3614.0295-.73.0443-1.0908.0517h-.0215l-.8995-.0148-83.0832-1.0784a15.9337,15.9337,0,0,1-11.63-4.2621,17.3676,17.3676,0,0,1-5.5461-11.7891c-.85-14.0716,12.9337-19.22,21.1639-22.3,1.7424-.6427,3.3786-1.2558,4.5614-1.8172,7.756-3.6416,17.7074-8.7679,25.9026-16.1471a6.1362,6.1362,0,0,0,.5949-8.3839,5.5959,5.5959,0,0,0-3.8957-2.0461,5.4886,5.4886,0,0,0-3.2509.7756l-12.452,14.175a15.983,15.983,0,0,1-23.2465.5687,17.6716,17.6716,0,0,1-4.0229-18.4961v-.0148a7.1925,7.1925,0,0,1,1.53-3.3535l.7367-.9011,1.3031-1.5808,26.6532-32.42a1.7553,1.7553,0,0,0,.0851-1.0711,1.7309,1.7309,0,0,0-.7581-1.1227,1.6129,1.6129,0,0,0-1.2963-.2364,1.6825,1.6825,0,0,0-1.0835.79,6.304,6.304,0,0,1-.6516.8937,39.3887,39.3887,0,0,1-24.3228,16.6052,38.79,38.79,0,0,1-8.1527.879,38.271,38.271,0,0,1-21.702-6.8031,7.25,7.25,0,0,1-.6446-.5023l-23.2819-16.0142a3.6574,3.6574,0,0,0-5.1987,1.0932,4.0292,4.0292,0,0,0-.5454,2.94,3.8525,3.8525,0,0,0,1.126,2.0756c.1418.0886.2764.1847.4109.2881l14.86,11.3237a15.353,15.353,0,0,1,5.0148,19.811c-.0073.0073-.0073.0221-.0142.03a18.9428,18.9428,0,0,1-17.0417,11.0282,18.2534,18.2534,0,0,1-7.77-1.7432,6.5445,6.5445,0,0,1-1.7493-1.1966l-25.0525-8.62a2.3041,2.3041,0,0,0-2.3093,1.9426,2.35,2.35,0,0,0,1.8275,2.74v.0148a6.72,6.72,0,0,1,1.105.325l21.8227,8.5463a6.7232,6.7232,0,0,1,1.6289.9234,13.0338,13.0338,0,0,1,7.7491,5.4,14.04,14.04,0,0,1,2.2594,10.2157A13.3261,13.3261,0,0,1,991.1518,274.69a12.7688,12.7688,0,0,1-2.1744-.1847,7.0212,7.0212,0,0,1-5.5529-8.1105,6.9146,6.9146,0,0,1,5.5315-5.7911,6.3857,6.3857,0,0,1-.8287-.5614c-.1345-.0443-.276-.096-.4109-.1477l-21.4965-8.406c-8.0465-2.0314-13.2948-10.3044-11.8073-18.91,1.537-8.9231,9.753-14.8841,18.3165-13.2664l.4672.0812,32.341,11.1317a5.4909,5.4909,0,0,0,3.9876-3.1171c.064-.1478.1418-.2881.22-.4285a1.0247,1.0247,0,0,0,.0923-.2216v-.0074a.8949.8949,0,0,0-.39-.9824l-.5665-.3841-14.1234-10.77c-.1276-.0812-.2552-.1625-.3756-.2438a17.9178,17.9178,0,0,1-7.3873-11.4123,18.515,18.515,0,0,1,2.5143-13.525,16.85,16.85,0,0,1,23.912-5.082l23.9123,16.45c.1771.1255.3469.2512.51.3915a25.0837,25.0837,0,0,0,19.1662,3.56,26.0288,26.0288,0,0,0,16.5745-11.76,6.9478,6.9478,0,0,1,.8923-1.1375,15.0617,15.0617,0,0,1,8.3934-5.3479,14.611,14.611,0,0,1,11.4814,2.09,16.319,16.319,0,0,1,4.7032,21.9309l-.2621.421-28.3388,34.4661c-.0073.0073-.0073.0147-.0146.0221a3.166,3.166,0,0,0,.4676,3.8263,2.8565,2.8565,0,0,0,4.1153-.0665l12.6359-14.3818-.092-.1107a18.5869,18.5869,0,0,1,13.9536-4.8161,18.8212,18.8212,0,0,1,13.1318,6.8843,20.6509,20.6509,0,0,1-1.9834,28.2539c-9.5122,8.5685-20.5973,14.3005-29.1816,18.3336-1.6719.79-3.563,1.4921-5.56,2.2381-6.559,2.4524-12.43,4.92-12.2323,8.14a3.1113,3.1113,0,0,0,.9916,2.1052,2.8641,2.8641,0,0,0,2.1318.7608l.2552-.0147,84.2238,1.0932c11.8214-.458,21.3053-10.622,21.3053-23.0611,0-12.7271-9.93-23.0832-22.1343-23.0832-11.6869,0-21.1991-9.9129-21.1991-22.1082,0-12.188,9.5122-22.1008,21.1991-22.1008,2.4721-.0074,4.9228.17,7.2957.34,4.3134.3028,8.3861.5909,12.02-.17,6.4172-1.3444,16.7442-11.0283,18.89-32.2131,1.58-15.5637-5.4184-32.4717-17.8278-43.0715-14.775-12.6238-23.48-7.4236-41.7539,5.5326-1.1192.7977-2.2951,1.6989-3.5415,2.6518-6.9837,5.3479-16.553,12.6681-28.1406,8.5242-4.328-1.5512-8.3792-4.2991-12.7567-8.6424a130.3432,130.3432,0,0,1-9.5263-10.947c-1.9057-2.3711-3.7117-4.6092-5.617-6.7514-5.0289-5.6581-18.3306-17.8683-33.1554-9.0634-.7578.4506-1.5511.975-2.3871,1.5217-3.3287,2.1938-7.4654,4.9195-12.7209,5.0967-8.7472.3177-13.9958-5.7615-17.8209-10.1861-1.905-2.2086-3.7041-4.299-5.4395-5.1707-11.7506-5.9462-31.3422-2.3563-44.6086,8.17-5.5533,4.41-14.52,13.7687-12.197,26.9316a23.3326,23.3326,0,0,0,10.4474,15.6227A42.58,42.58,0,0,0,960.83,158.72c5.7162,2.1568,12.2043,4.6092,16.7017,11.1759,2.8688,4.1809,5.44,11.05,4.0727,17.8018a15.6022,15.6022,0,0,1-7.196,10.4816c-9.4842,5.85-20.5763.0444-27.9142-3.7967-.6515-.34-1.2751-.6648-1.8627-.96-2.6917-1.3739-5.3831-2.9251-7.9825-4.4245-4.9723-2.8661-10.1074-5.8281-15.0372-7.3645-4.93-1.5291-9.1231-1.4774-13.2027.1772-8.06,3.265-12.7494,13.0375-13.826,21.2809a33.2433,33.2433,0,0,0,5.9569,23.4452,71.115,71.115,0,0,0,5.7442,6.5741c3.2368,3.4126,6.58,6.9435,9.1937,11.4641,4.6675,8.0736,9.0024,23.9474-14.4209,39.6-2.9113,1.9427-5.6663,5.8429-5.1424,8.5612.581,3.0211,6.3252,4.4393,8.9388,4.9268l32.1072-1.98,57.8255-2.3785H1017.21c15.4695.0591,28.0062,14.9875,28.0062,33.3063v86.0913a6.7632,6.7632,0,1,1-13.5144,0V326.6109c0-10.57-6.495-19.1905-14.52-19.22H994.9129l-57.3507,2.3637-33.4034,2.0683-.7152-.1182c-15.0728-2.4671-19.62-10.1714-20.7817-16.1915-1.8486-9.61,4.4552-18.762,11.099-23.2014,15.8519-10.5925,11.9985-17.2552,10.15-20.461a50.5132,50.5132,0,0,0-7.2386-8.8418,83.7178,83.7178,0,0,1-6.8633-7.9111,47.41,47.41,0,0,1-8.613-33.9046c1.9619-15.054,10.7306-27.8181,22.3255-32.516,15.1644-6.1457,28.75,1.6915,39.6647,7.9924,2.5637,1.4773,4.9864,2.8733,7.3662,4.0848.6305.325,1.3031.6722,1.9972,1.0415,4.1367,2.1643,11.836,6.19,14.9805,4.2547a1.6591,1.6591,0,0,0,.85-1.2631c.3614-1.7654-.432-4.6462-1.8417-6.7-2.054-3.0064-5.8787-4.4468-10.3128-6.1235a52.7172,52.7172,0,0,1-9.4839-4.336,37.6426,37.6426,0,0,1-16.85-25.1884c-2.6492-15.0318,3.6549-29.8642,17.3035-40.7,17.53-13.9165,42.2146-17.9717,58.6825-9.64,4.1083,2.083,7.0193,5.4513,9.5834,8.4207,3.3786,3.9076,5.1,5.6287,7.3448,5.5326,1.5868-.0517,3.7048-1.4477,5.9427-2.9251.9349-.6057,1.8911-1.2409,2.9183-1.8466,15.8731-9.4328,34.94-4.9417,49.7506,11.7226,2.1322,2.3932,4.1225,4.8751,6.0562,7.2684a117.1012,117.1012,0,0,0,8.4923,9.8021c2.9183,2.9029,5.4046,4.6535,7.8269,5.5252,4.5614,1.6324,9.2078-1.5364,15.76-6.5594,1.289-.9824,2.62-2.0017,3.9451-2.94,8.62-6.1162,17.53-12.4391,26.9011-14.5074,10.49-2.312,20.633.8643,31.0022,9.7208C1197.4859,135.0534,1206.184,156.3047,1204.1086,176.773Z"/><path class="cls-3" d="M1038.4013,364.461v67.4543a4.0268,4.0268,0,0,0,4.0268,4.0268h49.0057a4.0268,4.0268,0,0,0,3.8825-2.9584l22.3488-81.2137a6.1,6.1,0,0,1,11.59-.5312l31.8966,84.7033"/><path class="cls-2" d="M769.6275,437.1515V341.8521h13.117l20.6122,57.4207h.2677V341.8521h13.6525v95.2994H804.4275l-20.88-57.2869H783.28v57.2869Z"/><path class="cls-2" d="M849.9339,437.1515l21.2821-95.2994h11.3769l21.2815,95.2994H890.222l-4.015-20.4784H867.602l-4.0156,20.4784Zm33.73-33.3283-6.6927-34.5324h-.2677l-6.6921,34.5324Z"/><path class="cls-2" d="M937.0688,437.1515V341.8521h13.1171l17.5342,50.46h.267l17.4-50.46h13.2509v95.2994H984.9859V379.1954h-.2677L971.2,420.1527h-6.8259L950.989,379.1954h-.2677v57.9561Z"/><path class="cls-2" d="M1069.6108,501.0522v2.9928a10.7911,10.7911,0,0,1-.85,4.2512,11.7812,11.7812,0,0,1-2.3466,3.5707,11.3236,11.3236,0,0,1-3.5029,2.4826,10.258,10.258,0,0,1-4.32.9184,15.5425,15.5425,0,0,1-4.0131-.5443,9.4819,9.4819,0,0,1-3.6727-1.9047,10.5123,10.5123,0,0,1-2.6864-3.5029,12.3809,12.3809,0,0,1-1.0545-5.4754V477.1778a11.7948,11.7948,0,0,1,.8165-4.4214,10.3976,10.3976,0,0,1,2.3123-3.5366,10.7532,10.7532,0,0,1,3.5707-2.3465,11.9971,11.9971,0,0,1,4.5917-.8506,10.5217,10.5217,0,0,1,7.9579,3.1971,11.3927,11.3927,0,0,1,2.3466,3.7068,12.5347,12.5347,0,0,1,.85,4.6595v2.7206h-6.9376v-2.3129a5.6158,5.6158,0,0,0-1.1565-3.5366,3.7487,3.7487,0,0,0-3.1288-1.4964q-2.5851,0-3.4347,1.5983a8.56,8.56,0,0,0-.8506,4.0473v24.7582a6.4135,6.4135,0,0,0,.9184,3.5371,3.6168,3.6168,0,0,0,3.2985,1.4281,5.0113,5.0113,0,0,0,1.4628-.238,4.3558,4.3558,0,0,0,1.4623-.7818,4.1462,4.1462,0,0,0,1.02-1.4964,6.0607,6.0607,0,0,0,.4083-2.3807v-2.3807Z"/><path class="cls-2" d="M1088.7239,514.86V466.4309h10.4069a15.4785,15.4785,0,0,1,5.033.7482,9.6863,9.6863,0,0,1,3.9454,2.6528,10.3925,10.3925,0,0,1,2.4484,4.4551,27.8971,27.8971,0,0,1,.68,6.9039,34.36,34.36,0,0,1-.3736,5.51,11.5236,11.5236,0,0,1-1.5988,4.217,10.1239,10.1239,0,0,1-3.8093,3.7068,12.8174,12.8174,0,0,1-6.2572,1.3267h-3.5371V514.86Zm6.9376-41.8989v16.46h3.3327a7.0926,7.0926,0,0,0,3.2649-.6121,3.8528,3.8528,0,0,0,1.7-1.7008,6.2206,6.2206,0,0,0,.6468-2.5162q.1017-1.4959.1014-3.3333,0-1.6992-.0672-3.2308a7.0123,7.0123,0,0,0-.6127-2.6864,3.8709,3.8709,0,0,0-1.6325-1.7686,6.4781,6.4781,0,0,0-3.1288-.6121Z"/><path class="cls-2" d="M1129.874,514.86V466.4309h10.4069a15.4734,15.4734,0,0,1,5.033.7482,9.6784,9.6784,0,0,1,3.9454,2.6528,10.3873,10.3873,0,0,1,2.449,4.4551,27.9269,27.9269,0,0,1,.68,6.9039,34.3539,34.3539,0,0,1-.3741,5.51,11.5209,11.5209,0,0,1-1.5983,4.217,10.1225,10.1225,0,0,1-3.8093,3.7068,12.8192,12.8192,0,0,1-6.2577,1.3267h-3.5371V514.86Zm6.9376-41.8989v16.46h3.3333a7.0926,7.0926,0,0,0,3.2649-.6121,3.8582,3.8582,0,0,0,1.7-1.7008,6.211,6.211,0,0,0,.6463-2.5162q.1017-1.4959.1019-3.3333,0-1.6992-.0677-3.2308a7.0031,7.0031,0,0,0-.6121-2.6864,3.8726,3.8726,0,0,0-1.6331-1.7686,6.4757,6.4757,0,0,0-3.1283-.6121Z"/><rect class="cls-5" y="693.3405" width="603.0633" height="603.0633"/><path class="cls-2" d="M518.6207,870.1135c-1.48,14.5443-9.385,40.2942-29.6634,44.5415-5.4115,1.13-10.823.7534-15.5968.4136-2.2452-.1625-4.37-.31-6.3819-.31a8.0254,8.0254,0,0,0,0,16.0364c19.6553,0,35.6418,16.6716,35.6418,37.1695,0,19.7888-14.9026,36.0172-33.63,37.1031-.3614.0295-.73.0443-1.0908.0517h-.0214l-.9-.0148-83.0831-1.0784a15.9339,15.9339,0,0,1-11.63-4.2621,17.3675,17.3675,0,0,1-5.546-11.7891c-.85-14.0716,12.9336-19.22,21.1638-22.3,1.7424-.6427,3.3786-1.2558,4.5614-1.8172,7.756-3.6416,17.7074-8.7679,25.9026-16.1471a6.1362,6.1362,0,0,0,.5949-8.3839,5.5959,5.5959,0,0,0-3.8956-2.0461,5.4889,5.4889,0,0,0-3.251.7756l-12.4519,14.175a15.9831,15.9831,0,0,1-23.2466.5687,17.6716,17.6716,0,0,1-4.0229-18.4961v-.0148a7.1926,7.1926,0,0,1,1.53-3.3535l.7366-.9011,1.3032-1.5808,26.6531-32.42a1.7553,1.7553,0,0,0,.0851-1.0711,1.7305,1.7305,0,0,0-.7581-1.1227,1.6128,1.6128,0,0,0-1.2962-.2364,1.6825,1.6825,0,0,0-1.0836.79,6.2993,6.2993,0,0,1-.6516.8938A39.3891,39.3891,0,0,1,374.27,911.8924a38.79,38.79,0,0,1-8.1527.879,38.271,38.271,0,0,1-21.702-6.8031,7.265,7.265,0,0,1-.6446-.5023l-23.2818-16.0142a3.6574,3.6574,0,0,0-5.1988,1.0932,4.03,4.03,0,0,0-.5454,2.94,3.852,3.852,0,0,0,1.1261,2.0756c.1418.0886.2763.1847.4108.2881l14.86,11.3237a15.353,15.353,0,0,1,5.0148,19.811c-.0073.0073-.0073.0221-.0142.0295A18.9428,18.9428,0,0,1,319.1,938.041a18.2526,18.2526,0,0,1-7.77-1.7432,6.5429,6.5429,0,0,1-1.7493-1.1966l-25.0526-8.62a2.3039,2.3039,0,0,0-2.3092,1.9426,2.35,2.35,0,0,0,1.8274,2.74v.0148a6.7141,6.7141,0,0,1,1.105.325l21.8227,8.5463a6.7213,6.7213,0,0,1,1.6289.9234,13.0338,13.0338,0,0,1,7.7491,5.4,14.0408,14.0408,0,0,1,2.26,10.2157,13.3263,13.3263,0,0,1-12.9479,11.4419,12.77,12.77,0,0,1-2.1744-.1847,7.0213,7.0213,0,0,1-5.5529-8.1105,6.9147,6.9147,0,0,1,5.5315-5.7911,6.3857,6.3857,0,0,1-.8287-.5614c-.1345-.0443-.276-.096-.4108-.1477l-21.4966-8.406c-8.0465-2.0314-13.2947-10.3044-11.8072-18.91,1.5369-8.9231,9.7529-14.8841,18.3164-13.2664l.4673.0812,32.3409,11.1317a5.4912,5.4912,0,0,0,3.9877-3.1171c.064-.1478.1418-.2881.22-.4285a1.0247,1.0247,0,0,0,.0923-.2216v-.0074a.895.895,0,0,0-.39-.9824l-.5665-.3841-14.1235-10.77c-.1276-.0812-.2552-.1625-.3755-.2438a17.918,17.918,0,0,1-7.3874-11.4123,18.5146,18.5146,0,0,1,2.5144-13.525,16.85,16.85,0,0,1,23.9119-5.082l23.9123,16.45c.1771.1255.3469.2511.51.3915a25.084,25.084,0,0,0,19.1663,3.56,26.0288,26.0288,0,0,0,16.5744-11.76,6.9478,6.9478,0,0,1,.8923-1.1375,15.0617,15.0617,0,0,1,8.3934-5.3479,14.6113,14.6113,0,0,1,11.4814,2.09,16.3191,16.3191,0,0,1,4.7032,21.931l-.2621.421-28.3388,34.4661c-.0073.0073-.0073.0147-.0146.0221a3.166,3.166,0,0,0,.4676,3.8263,2.8565,2.8565,0,0,0,4.1153-.0665l12.6359-14.3818-.092-.1108a18.5873,18.5873,0,0,1,13.9536-4.816,18.8216,18.8216,0,0,1,13.1319,6.8843,20.6508,20.6508,0,0,1-1.9835,28.2539c-9.5122,8.5684-20.5973,14.3-29.1816,18.3336-1.6719.79-3.563,1.4921-5.56,2.2381-6.559,2.4524-12.43,4.92-12.2323,8.14a3.1113,3.1113,0,0,0,.9915,2.1052,2.8641,2.8641,0,0,0,2.1318.7608l.2553-.0148,84.2237,1.0933c11.8214-.458,21.3053-10.622,21.3053-23.0611,0-12.7272-9.93-23.0832-22.1343-23.0832-11.6869,0-21.1991-9.9129-21.1991-22.1082,0-12.188,9.5122-22.1008,21.1991-22.1008,2.4721-.0074,4.9228.17,7.2957.34,4.3134.3029,8.3861.591,12.02-.17,6.4172-1.3444,16.7442-11.0283,18.89-32.2131,1.58-15.5637-5.4184-32.4717-17.8278-43.0715-14.7749-12.6238-23.48-7.4236-41.7539,5.5326-1.1191.7977-2.295,1.6989-3.5415,2.6518-6.9837,5.3479-16.553,12.6681-28.1406,8.5242-4.328-1.5513-8.3792-4.2991-12.7566-8.6424a130.3264,130.3264,0,0,1-9.5264-10.947c-1.9056-2.3711-3.7117-4.6093-5.6169-6.7514-5.029-5.6581-18.3307-17.8683-33.1555-9.0634-.7577.4506-1.5511.975-2.387,1.5217-3.3288,2.1938-7.4655,4.9195-12.721,5.0967-8.7472.3177-13.9958-5.7615-17.8209-10.1861-1.9049-2.2086-3.704-4.299-5.4395-5.1707-11.7505-5.9462-31.3422-2.3563-44.6086,8.17-5.5532,4.41-14.52,13.7686-12.197,26.9316a23.333,23.333,0,0,0,10.4474,15.6227,42.58,42.58,0,0,0,7.2033,3.2133c5.7162,2.1568,12.2043,4.6092,16.7017,11.1759,2.8688,4.1808,5.44,11.05,4.0727,17.8018A15.6018,15.6018,0,0,1,288.92,891.52c-9.4842,5.85-20.5763.0444-27.9141-3.7967-.6516-.34-1.2752-.6648-1.8628-.96-2.6917-1.3739-5.3831-2.9251-7.9825-4.4245-4.9723-2.8661-10.1074-5.8281-15.0371-7.3645-4.93-1.5291-9.1232-1.4774-13.2028.1772-8.06,3.265-12.7493,13.0375-13.826,21.2809a33.2433,33.2433,0,0,0,5.9569,23.4452,71.115,71.115,0,0,0,5.7442,6.5741c3.2368,3.4126,6.58,6.9435,9.1937,11.4641,4.6676,8.0736,9.0024,23.9474-14.4208,39.6-2.9114,1.9427-5.6664,5.8429-5.1425,8.5611.5811,3.0212,6.3253,4.4394,8.9388,4.9269l32.1072-1.98,57.8255-2.3785h22.4245c15.4694.0591,28.0061,14.9874,28.0061,33.3063v86.0912a6.7632,6.7632,0,1,1-13.5144,0v-86.0912c0-10.57-6.495-19.1905-14.52-19.22H309.425l-57.3507,2.3637-33.4034,2.0683-.7152-.1182c-15.0728-2.4671-19.62-10.1714-20.7817-16.1915-1.8485-9.61,4.4552-18.762,11.099-23.2014,15.8519-10.5925,11.9985-17.2552,10.15-20.461a50.5086,50.5086,0,0,0-7.2386-8.8418,83.73,83.73,0,0,1-6.8633-7.9111,47.4112,47.4112,0,0,1-8.613-33.9046c1.962-15.054,10.7306-27.8181,22.3255-32.516,15.1644-6.1457,28.75,1.6915,39.6647,7.9924,2.5637,1.4773,4.9864,2.8733,7.3662,4.0847.6305.3251,1.3032.6723,1.9973,1.0416,4.1367,2.1643,11.8359,6.19,14.98,4.2547a1.6593,1.6593,0,0,0,.85-1.2631c.3614-1.7655-.432-4.6462-1.8417-6.7-2.0539-3.0064-5.8787-4.4468-10.3128-6.1235a52.72,52.72,0,0,1-9.4839-4.336,37.6431,37.6431,0,0,1-16.85-25.1884c-2.6492-15.0318,3.6549-29.8642,17.3035-40.7,17.53-13.9164,42.2146-17.9716,58.6825-9.6395,4.1083,2.083,7.0193,5.4513,9.5835,8.4207,3.3786,3.9076,5.1,5.6286,7.3447,5.5326,1.5868-.0517,3.7048-1.4477,5.9428-2.9251.9348-.6057,1.8911-1.2409,2.9182-1.8466,15.8731-9.4328,34.94-4.9417,49.7507,11.7226,2.1321,2.3932,4.1225,4.8751,6.0561,7.2684a117.12,117.12,0,0,0,8.4923,9.8021c2.9183,2.9029,5.4046,4.6535,7.8269,5.5252,4.5614,1.6324,9.2079-1.5364,15.76-6.5594,1.289-.9824,2.62-2.0017,3.9451-2.94,8.62-6.1162,17.53-12.4391,26.9011-14.5074,10.49-2.312,20.633.8643,31.0022,9.7208C511.998,828.3938,520.6961,849.6452,518.6207,870.1135Z"/><path class="cls-3" d="M352.9134,1057.8015v67.4543a4.0268,4.0268,0,0,0,4.0268,4.0268H405.946a4.0268,4.0268,0,0,0,3.8824-2.9584l22.3488-81.2137a6.1,6.1,0,0,1,11.59-.5312l31.8966,84.7033"/><path class="cls-2" d="M84.14,1130.492v-95.2994H97.2567l20.6121,57.4207h.2677v-57.4207H131.789v95.2994H118.94l-20.88-57.2869h-.2677v57.2869Z"/><path class="cls-2" d="M164.446,1130.492l21.2821-95.2994h11.377l21.2814,95.2994H204.7341l-4.015-20.4784h-18.605l-4.0156,20.4784Zm33.73-33.3283-6.6927-34.5324h-.2677l-6.692,34.5324Z"/><path class="cls-2" d="M251.581,1130.492v-95.2994h13.117l17.5342,50.46h.267l17.4-50.46H313.15v95.2994H299.498v-57.9561H299.23l-13.5186,40.9573h-6.8259l-13.3847-40.9573h-.2677v57.9561Z"/><path class="cls-2" d="M384.1229,1194.3927v2.9928a10.7894,10.7894,0,0,1-.85,4.2512,11.7828,11.7828,0,0,1-2.3465,3.5707,11.3252,11.3252,0,0,1-3.503,2.4826,10.258,10.258,0,0,1-4.32.9184,15.5437,15.5437,0,0,1-4.0131-.5443,9.4819,9.4819,0,0,1-3.6727-1.9047,10.5123,10.5123,0,0,1-2.6864-3.5029,12.3809,12.3809,0,0,1-1.0545-5.4754v-26.6628a11.7944,11.7944,0,0,1,.8165-4.4214,10.3991,10.3991,0,0,1,2.3123-3.5366,10.7527,10.7527,0,0,1,3.5708-2.3465,11.9966,11.9966,0,0,1,4.5916-.8506,10.5215,10.5215,0,0,1,7.958,3.1971,11.3941,11.3941,0,0,1,2.3465,3.7068,12.5324,12.5324,0,0,1,.85,4.6595v2.7206h-6.9376v-2.3129a5.6158,5.6158,0,0,0-1.1565-3.5366,3.7484,3.7484,0,0,0-3.1288-1.4964q-2.5851,0-3.4347,1.5983a8.5613,8.5613,0,0,0-.8506,4.0473v24.7582a6.4135,6.4135,0,0,0,.9184,3.5371,3.6171,3.6171,0,0,0,3.2986,1.4281,5.0107,5.0107,0,0,0,1.4627-.238,4.3558,4.3558,0,0,0,1.4623-.7818,4.145,4.145,0,0,0,1.02-1.4964,6.0611,6.0611,0,0,0,.4083-2.3807v-2.3807Z"/><path class="cls-2" d="M403.236,1208.2v-48.4288h10.407a15.4783,15.4783,0,0,1,5.0329.7482,9.6856,9.6856,0,0,1,3.9454,2.6528,10.3927,10.3927,0,0,1,2.4484,4.455,27.8986,27.8986,0,0,1,.68,6.904,34.36,34.36,0,0,1-.3736,5.51,11.5236,11.5236,0,0,1-1.5988,4.217,10.1239,10.1239,0,0,1-3.8093,3.7068,12.8185,12.8185,0,0,1-6.2572,1.3267h-3.5371V1208.2Zm6.9376-41.8989v16.46h3.3327a7.0934,7.0934,0,0,0,3.265-.6121,3.8531,3.8531,0,0,0,1.7-1.7008,6.2206,6.2206,0,0,0,.6468-2.5162q.1017-1.4959.1014-3.3333,0-1.6992-.0672-3.2308a7.0119,7.0119,0,0,0-.6127-2.6864,3.8709,3.8709,0,0,0-1.6325-1.7686,6.4781,6.4781,0,0,0-3.1288-.6121Z"/><path class="cls-2" d="M444.3861,1208.2v-48.4288h10.407a15.4732,15.4732,0,0,1,5.0329.7482,9.6784,9.6784,0,0,1,3.9454,2.6528,10.3875,10.3875,0,0,1,2.449,4.455,27.9276,27.9276,0,0,1,.68,6.904,34.3655,34.3655,0,0,1-.3741,5.51,11.5228,11.5228,0,0,1-1.5984,4.217,10.1229,10.1229,0,0,1-3.8092,3.7068,12.821,12.821,0,0,1-6.2578,1.3267h-3.5371V1208.2Zm6.9376-41.8989v16.46h3.3333a7.0926,7.0926,0,0,0,3.2649-.6121,3.8584,3.8584,0,0,0,1.7-1.7008,6.211,6.211,0,0,0,.6462-2.5162q.1017-1.4959.102-3.3333,0-1.6992-.0678-3.2308a7.0009,7.0009,0,0,0-.6121-2.6864,3.8724,3.8724,0,0,0-1.633-1.7686,6.4759,6.4759,0,0,0-3.1283-.6121Z"/><rect class="cls-6" x="685.4879" y="693.3405" width="603.0633" height="603.0633"/><path class="cls-2" d="M1204.1086,870.1135c-1.48,14.5443-9.385,40.2942-29.6635,44.5415-5.4114,1.13-10.8229.7534-15.5967.4136-2.2452-.1625-4.37-.31-6.3819-.31a8.0254,8.0254,0,0,0,0,16.0364c19.6552,0,35.6417,16.6716,35.6417,37.1695,0,19.7888-14.9026,36.0172-33.63,37.1031-.3614.0295-.73.0443-1.0908.0517h-.0215l-.8995-.0148-83.0832-1.0784a15.9337,15.9337,0,0,1-11.63-4.2621,17.3676,17.3676,0,0,1-5.5461-11.7891c-.85-14.0716,12.9337-19.22,21.1639-22.3,1.7424-.6427,3.3786-1.2558,4.5614-1.8172,7.756-3.6416,17.7074-8.7679,25.9026-16.1471a6.1362,6.1362,0,0,0,.5949-8.3839,5.5959,5.5959,0,0,0-3.8957-2.0461,5.4886,5.4886,0,0,0-3.2509.7756l-12.452,14.175a15.983,15.983,0,0,1-23.2465.5687,17.6716,17.6716,0,0,1-4.0229-18.4961v-.0148a7.1925,7.1925,0,0,1,1.53-3.3535l.7367-.9011,1.3031-1.5808,26.6532-32.42a1.7553,1.7553,0,0,0,.0851-1.0711,1.7309,1.7309,0,0,0-.7581-1.1227,1.6129,1.6129,0,0,0-1.2963-.2364,1.6826,1.6826,0,0,0-1.0835.79,6.2993,6.2993,0,0,1-.6516.8938,39.3891,39.3891,0,0,1-24.3228,16.6052,38.79,38.79,0,0,1-8.1527.879,38.271,38.271,0,0,1-21.702-6.8031,7.25,7.25,0,0,1-.6446-.5023l-23.2819-16.0142a3.6573,3.6573,0,0,0-5.1987,1.0932,4.0292,4.0292,0,0,0-.5454,2.94,3.8525,3.8525,0,0,0,1.126,2.0756c.1418.0886.2764.1847.4109.2881l14.86,11.3237a15.353,15.353,0,0,1,5.0148,19.811c-.0073.0073-.0073.0221-.0142.0295a18.9428,18.9428,0,0,1-17.0417,11.0282,18.2534,18.2534,0,0,1-7.77-1.7432,6.5445,6.5445,0,0,1-1.7493-1.1966l-25.0525-8.62a2.3041,2.3041,0,0,0-2.3093,1.9426,2.3506,2.3506,0,0,0,1.8275,2.74v.0148a6.72,6.72,0,0,1,1.105.325l21.8227,8.5463a6.7232,6.7232,0,0,1,1.6289.9234,13.0338,13.0338,0,0,1,7.7491,5.4,14.04,14.04,0,0,1,2.2594,10.2157,13.3261,13.3261,0,0,1-12.9478,11.4419,12.7688,12.7688,0,0,1-2.1744-.1847,7.0213,7.0213,0,0,1-5.5529-8.1105,6.9146,6.9146,0,0,1,5.5315-5.7911,6.3857,6.3857,0,0,1-.8287-.5614c-.1345-.0443-.276-.096-.4109-.1477l-21.4965-8.406c-8.0465-2.0314-13.2948-10.3044-11.8073-18.91,1.537-8.9231,9.753-14.8841,18.3165-13.2664l.4672.0812,32.341,11.1317a5.4909,5.4909,0,0,0,3.9876-3.1171c.064-.1478.1418-.2881.22-.4285a1.0247,1.0247,0,0,0,.0923-.2216v-.0074a.8949.8949,0,0,0-.39-.9824l-.5665-.3841-14.1234-10.77c-.1276-.0812-.2552-.1625-.3756-.2438a17.9183,17.9183,0,0,1-7.3873-11.4123,18.515,18.515,0,0,1,2.5143-13.525,16.85,16.85,0,0,1,23.912-5.082l23.9123,16.45c.1771.1255.3469.2511.51.3915a25.0837,25.0837,0,0,0,19.1662,3.56,26.0288,26.0288,0,0,0,16.5745-11.76,6.9478,6.9478,0,0,1,.8923-1.1375,15.0617,15.0617,0,0,1,8.3934-5.3479,14.6113,14.6113,0,0,1,11.4814,2.09,16.3192,16.3192,0,0,1,4.7032,21.931l-.2621.421-28.3388,34.4661c-.0073.0073-.0073.0147-.0146.0221a3.166,3.166,0,0,0,.4676,3.8263,2.8565,2.8565,0,0,0,4.1153-.0665l12.6359-14.3818-.092-.1108a18.5872,18.5872,0,0,1,13.9536-4.816,18.8212,18.8212,0,0,1,13.1318,6.8843,20.6509,20.6509,0,0,1-1.9834,28.2539c-9.5122,8.5684-20.5973,14.3-29.1816,18.3336-1.6719.79-3.563,1.4921-5.56,2.2381-6.559,2.4524-12.43,4.92-12.2323,8.14a3.1113,3.1113,0,0,0,.9916,2.1052,2.8641,2.8641,0,0,0,2.1318.7608l.2552-.0148,84.2238,1.0933c11.8214-.458,21.3053-10.622,21.3053-23.0611,0-12.7272-9.93-23.0832-22.1343-23.0832-11.6869,0-21.1991-9.9129-21.1991-22.1082,0-12.188,9.5122-22.1008,21.1991-22.1008,2.4721-.0074,4.9228.17,7.2957.34,4.3134.3029,8.3861.591,12.02-.17,6.4172-1.3444,16.7442-11.0283,18.89-32.2131,1.58-15.5637-5.4184-32.4717-17.8278-43.0715-14.775-12.6238-23.48-7.4236-41.7539,5.5326-1.1192.7977-2.2951,1.6989-3.5415,2.6518-6.9837,5.3479-16.553,12.6681-28.1406,8.5242-4.328-1.5513-8.3792-4.2991-12.7567-8.6424a130.3432,130.3432,0,0,1-9.5263-10.947c-1.9057-2.3711-3.7117-4.6093-5.617-6.7514-5.0289-5.6581-18.3306-17.8683-33.1554-9.0634-.7578.4506-1.5511.975-2.3871,1.5217-3.3287,2.1938-7.4654,4.9195-12.7209,5.0967-8.7472.3177-13.9958-5.7615-17.8209-10.1861-1.905-2.2086-3.7041-4.299-5.4395-5.1707-11.7506-5.9462-31.3422-2.3563-44.6086,8.17-5.5533,4.41-14.52,13.7686-12.197,26.9316a23.3326,23.3326,0,0,0,10.4474,15.6227,42.58,42.58,0,0,0,7.2033,3.2133c5.7162,2.1568,12.2043,4.6092,16.7017,11.1759,2.8688,4.1808,5.44,11.05,4.0727,17.8018a15.6022,15.6022,0,0,1-7.196,10.4816c-9.4842,5.85-20.5763.0444-27.9142-3.7967-.6515-.34-1.2751-.6648-1.8627-.96-2.6917-1.3739-5.3831-2.9251-7.9825-4.4245-4.9723-2.8661-10.1074-5.8281-15.0372-7.3645-4.93-1.5291-9.1231-1.4774-13.2027.1772-8.06,3.265-12.7494,13.0375-13.826,21.2809a33.2433,33.2433,0,0,0,5.9569,23.4452,71.115,71.115,0,0,0,5.7442,6.5741c3.2368,3.4126,6.58,6.9435,9.1937,11.4641,4.6675,8.0736,9.0024,23.9474-14.4209,39.6-2.9113,1.9427-5.6663,5.8429-5.1424,8.5611.581,3.0212,6.3252,4.4394,8.9388,4.9269l32.1072-1.98,57.8255-2.3785H1017.21c15.4695.0591,28.0062,14.9874,28.0062,33.3063v86.0912a6.7632,6.7632,0,1,1-13.5144,0v-86.0912c0-10.57-6.495-19.1905-14.52-19.22H994.9129l-57.3507,2.3637-33.4034,2.0683-.7152-.1182c-15.0728-2.4671-19.62-10.1714-20.7817-16.1915-1.8486-9.61,4.4552-18.762,11.099-23.2014,15.8519-10.5925,11.9985-17.2552,10.15-20.461a50.5132,50.5132,0,0,0-7.2386-8.8418,83.73,83.73,0,0,1-6.8633-7.9111,47.41,47.41,0,0,1-8.613-33.9046c1.9619-15.054,10.7306-27.8181,22.3255-32.516,15.1644-6.1457,28.75,1.6915,39.6647,7.9924,2.5637,1.4773,4.9864,2.8733,7.3662,4.0847.6305.3251,1.3031.6723,1.9972,1.0416,4.1367,2.1643,11.836,6.19,14.9805,4.2547a1.6593,1.6593,0,0,0,.85-1.2631c.3614-1.7655-.432-4.6462-1.8417-6.7-2.054-3.0064-5.8787-4.4468-10.3128-6.1235a52.7172,52.7172,0,0,1-9.4839-4.336,37.6428,37.6428,0,0,1-16.85-25.1884c-2.6492-15.0318,3.6549-29.8642,17.3035-40.7,17.53-13.9164,42.2146-17.9716,58.6825-9.6395,4.1083,2.083,7.0193,5.4513,9.5834,8.4207,3.3786,3.9076,5.1,5.6286,7.3448,5.5326,1.5868-.0517,3.7048-1.4477,5.9427-2.9251.9349-.6057,1.8911-1.2409,2.9183-1.8466,15.8731-9.4328,34.94-4.9417,49.7506,11.7226,2.1322,2.3932,4.1225,4.8751,6.0562,7.2684a117.1012,117.1012,0,0,0,8.4923,9.8021c2.9183,2.9029,5.4046,4.6535,7.8269,5.5252,4.5614,1.6324,9.2078-1.5364,15.76-6.5594,1.289-.9824,2.62-2.0017,3.9451-2.94,8.62-6.1162,17.53-12.4391,26.9011-14.5074,10.49-2.312,20.633.8643,31.0022,9.7208C1197.4859,828.3938,1206.184,849.6452,1204.1086,870.1135Z"/><path class="cls-3" d="M1038.4013,1057.8015v67.4543a4.0268,4.0268,0,0,0,4.0268,4.0268h49.0057a4.0268,4.0268,0,0,0,3.8825-2.9584l22.3488-81.2137a6.1,6.1,0,0,1,11.59-.5312l31.8966,84.7033"/><path class="cls-2" d="M769.6275,1130.492v-95.2994h13.117l20.6122,57.4207h.2677v-57.4207h13.6525v95.2994H804.4275l-20.88-57.2869H783.28v57.2869Z"/><path class="cls-2" d="M849.9339,1130.492l21.2821-95.2994h11.3769l21.2815,95.2994H890.222l-4.015-20.4784H867.602l-4.0156,20.4784Zm33.73-33.3283-6.6927-34.5324h-.2677l-6.6921,34.5324Z"/><path class="cls-2" d="M937.0688,1130.492v-95.2994h13.1171l17.5342,50.46h.267l17.4-50.46h13.2509v95.2994H984.9859v-57.9561h-.2677L971.2,1113.4932h-6.8259l-13.3847-40.9573h-.2677v57.9561Z"/><path class="cls-2" d="M1069.6108,1194.3927v2.9928a10.7911,10.7911,0,0,1-.85,4.2512,11.7812,11.7812,0,0,1-2.3466,3.5707,11.3236,11.3236,0,0,1-3.5029,2.4826,10.258,10.258,0,0,1-4.32.9184,15.5425,15.5425,0,0,1-4.0131-.5443,9.4819,9.4819,0,0,1-3.6727-1.9047,10.5123,10.5123,0,0,1-2.6864-3.5029,12.3809,12.3809,0,0,1-1.0545-5.4754v-26.6628a11.7944,11.7944,0,0,1,.8165-4.4214,10.3976,10.3976,0,0,1,2.3123-3.5366,10.7532,10.7532,0,0,1,3.5707-2.3465,11.9971,11.9971,0,0,1,4.5917-.8506,10.5213,10.5213,0,0,1,7.9579,3.1971,11.3927,11.3927,0,0,1,2.3466,3.7068,12.5344,12.5344,0,0,1,.85,4.6595v2.7206h-6.9376v-2.3129a5.6158,5.6158,0,0,0-1.1565-3.5366,3.7487,3.7487,0,0,0-3.1288-1.4964q-2.5851,0-3.4347,1.5983a8.56,8.56,0,0,0-.8506,4.0473v24.7582a6.4135,6.4135,0,0,0,.9184,3.5371,3.617,3.617,0,0,0,3.2985,1.4281,5.0113,5.0113,0,0,0,1.4628-.238,4.3558,4.3558,0,0,0,1.4623-.7818,4.1462,4.1462,0,0,0,1.02-1.4964,6.0611,6.0611,0,0,0,.4083-2.3807v-2.3807Z"/><path class="cls-2" d="M1088.7239,1208.2v-48.4288h10.4069a15.4785,15.4785,0,0,1,5.033.7482,9.6863,9.6863,0,0,1,3.9454,2.6528,10.3927,10.3927,0,0,1,2.4484,4.455,27.8986,27.8986,0,0,1,.68,6.904,34.36,34.36,0,0,1-.3736,5.51,11.5236,11.5236,0,0,1-1.5988,4.217,10.1239,10.1239,0,0,1-3.8093,3.7068,12.8185,12.8185,0,0,1-6.2572,1.3267h-3.5371V1208.2Zm6.9376-41.8989v16.46h3.3327a7.0926,7.0926,0,0,0,3.2649-.6121,3.8528,3.8528,0,0,0,1.7-1.7008,6.2206,6.2206,0,0,0,.6468-2.5162q.1017-1.4959.1014-3.3333,0-1.6992-.0672-3.2308a7.0119,7.0119,0,0,0-.6127-2.6864,3.8709,3.8709,0,0,0-1.6325-1.7686,6.4781,6.4781,0,0,0-3.1288-.6121Z"/><path class="cls-2" d="M1129.874,1208.2v-48.4288h10.4069a15.4734,15.4734,0,0,1,5.033.7482,9.6784,9.6784,0,0,1,3.9454,2.6528,10.3875,10.3875,0,0,1,2.449,4.455,27.9284,27.9284,0,0,1,.68,6.904,34.3539,34.3539,0,0,1-.3741,5.51,11.5209,11.5209,0,0,1-1.5983,4.217,10.1225,10.1225,0,0,1-3.8093,3.7068,12.82,12.82,0,0,1-6.2577,1.3267h-3.5371V1208.2Zm6.9376-41.8989v16.46h3.3333a7.0926,7.0926,0,0,0,3.2649-.6121,3.8582,3.8582,0,0,0,1.7-1.7008,6.211,6.211,0,0,0,.6463-2.5162q.1017-1.4959.1019-3.3333,0-1.6992-.0677-3.2308a7.0027,7.0027,0,0,0-.6121-2.6864,3.8726,3.8726,0,0,0-1.6331-1.7686,6.4757,6.4757,0,0,0-3.1283-.6121Z"/></g></g></svg>