<svg xmlns="http://www.w3.org/2000/svg" viewBox="0 0 768.6175 755.6923"><defs><style>.cls-1{fill:#04955f;}.cls-2{fill:none;stroke:#04955f;stroke-linecap:round;stroke-miterlimit:10;stroke-width:23.294px;}.cls-3{fill:#0075bf;}.cls-4{fill:#fdaf3f;}.cls-5{fill:#050606;}.cls-6{fill:#da3a31;}</style></defs><g id="Layer_2" data-name="Layer 2"><g id="Layer_1-2" data-name="Layer 1"><path class="cls-1" d="M768.0819,157.2961c-2.6167,25.7116-16.5908,71.2325-52.4394,78.741-9.5665,1.9978-19.133,1.3319-27.5721.7312-3.9692-.2873-7.7256-.5485-11.2821-.5485-7.4877,0-13.5858,6.3594-13.5858,14.1682,0,7.8219,6.0981,14.1812,13.5858,14.1812,34.7469,0,63.008,29.4724,63.008,65.7089,0,34.9829-26.345,63.6718-59.4515,65.5913-.6389.0522-1.29.0783-1.9283.0914h-.0379l-1.59-.0261-146.8756-1.9065a28.1677,28.1677,0,0,1-20.56-7.5346,30.7026,30.7026,0,0,1-9.8043-20.8408c-1.5028-24.876,22.8643-33.9775,37.4137-39.4227,3.08-1.1362,5.9727-2.22,8.0637-3.2124,13.7112-6.4377,31.3035-15.5,45.7911-28.5452a10.8476,10.8476,0,0,0,1.0516-14.8211,9.892,9.892,0,0,0-6.8867-3.6171,9.7024,9.7024,0,0,0-5.7472,1.3711l-22.0127,25.0587a28.2551,28.2551,0,0,1-41.0955,1.0055,31.24,31.24,0,0,1-7.1118-32.6978v-.0261a12.7161,12.7161,0,0,1,2.7048-5.9284l1.3023-1.593,2.3037-2.7945,47.1179-57.3125a3.1028,3.1028,0,0,0,.15-1.8934,3.06,3.06,0,0,0-1.34-1.9848,2.8517,2.8517,0,0,0-2.2915-.4179,2.9749,2.9749,0,0,0-1.9155,1.3972,11.1418,11.1418,0,0,1-1.1519,1.58,69.6327,69.6327,0,0,1-42.9982,29.3549,68.5693,68.5693,0,0,1-14.4125,1.5539,67.6553,67.6553,0,0,1-38.3651-12.0266,12.8564,12.8564,0,0,1-1.14-.8879l-41.1579-28.31a6.4657,6.4657,0,0,0-9.19,1.9326,7.124,7.124,0,0,0-.9642,5.1971,6.81,6.81,0,0,0,1.9907,3.6694c.2507.1567.4885.3264.7263.5093l26.27,20.0182c11.3444,7.3909,15.2262,22.7735,8.8652,35.0221-.0128.013-.0128.0391-.0251.0522a33.4875,33.4875,0,0,1-30.1265,19.4959,32.2691,32.2691,0,0,1-13.7362-3.0817,11.57,11.57,0,0,1-3.0924-2.1154L354.25,256.9433a4.0728,4.0728,0,0,0-4.0823,3.4342,4.1552,4.1552,0,0,0,3.2306,4.8446v.0262a11.89,11.89,0,0,1,1.9534.5745L393.93,280.9312a11.8857,11.8857,0,0,1,2.88,1.6322,23.0424,23.0424,0,0,1,13.699,9.5456,24.82,24.82,0,0,1,3.9942,18.0594c-1.891,11.8307-11.7577,20.2272-22.8894,20.2272a22.5877,22.5877,0,0,1-3.8439-.3264,12.4126,12.4126,0,0,1-9.8165-14.338,12.2238,12.2238,0,0,1,9.7786-10.2376,11.2956,11.2956,0,0,1-1.4649-.9924c-.2378-.0783-.4879-.17-.7263-.2612l-38.0019-14.86c-14.2248-3.591-23.5027-18.2162-20.8731-33.429,2.7171-15.7743,17.2414-26.3123,32.38-23.4525l.826.1436,57.1728,19.6787a9.7077,9.7077,0,0,0,7.0494-5.5105c.1131-.2612.2507-.5093.3882-.7574a1.8148,1.8148,0,0,0,.1633-.3917v-.0131a1.5823,1.5823,0,0,0-.6891-1.7368l-1.0014-.6789-24.9676-19.0389c-.2256-.1436-.4512-.2873-.664-.431a31.675,31.675,0,0,1-13.0594-20.1749,32.7309,32.7309,0,0,1,4.4448-23.91c9.2786-14.6252,28.2484-18.66,42.2719-8.984l42.2726,29.0806c.313.222.6132.444.9018.6921a44.3428,44.3428,0,0,0,33.8823,6.294,46.0138,46.0138,0,0,0,29.3005-20.7886,12.2909,12.2909,0,0,1,1.5774-2.0109,26.6277,26.6277,0,0,1,14.838-9.4542,25.8308,25.8308,0,0,1,20.2971,3.6955c12.5465,8.305,16.265,25.6855,8.3144,38.77l-.4635.7443-50.0977,60.93c-.0129.013-.0129.026-.0257.0391a5.5968,5.5968,0,0,0,.8266,6.7642,5.05,5.05,0,0,0,7.275-.1175l22.338-25.4244-.1627-.1958a32.86,32.86,0,0,1,24.6674-8.514,33.2732,33.2732,0,0,1,23.2147,12.17c12.2456,14.7819,10.6682,37.19-3.5064,49.9476-16.8158,15.1475-36.4122,25.2806-51.5877,32.41-2.9555,1.3973-6.2986,2.6377-9.8294,3.9566-11.5951,4.3354-21.9748,8.6968-21.6245,14.39a5.5009,5.5009,0,0,0,1.7529,3.7216,5.0636,5.0636,0,0,0,3.7686,1.345l.4513-.0262,148.8919,1.9326c20.8982-.81,37.6639-18.7776,37.6639-40.7676,0-22.4993-17.5551-40.8069-39.1294-40.8069-20.66,0-37.4761-17.5241-37.4761-39.0832,0-21.546,16.8158-39.07,37.4761-39.07,4.37-.0131,8.7026.3,12.8974.6006,7.6253.5355,14.8251,1.0447,21.2485-.3,11.3444-2.3766,29.6007-19.4959,33.3944-56.9468,2.7929-27.5136-9.5787-57.4038-31.5162-76.1423-26.12-22.3165-41.5083-13.1236-73.8132,9.7806-1.9785,1.41-4.0572,3.0033-6.2607,4.6878-12.3459,9.4541-29.2626,22.3948-49.7475,15.0692-7.651-2.7423-14.8128-7.6-22.5513-15.2781a230.4117,230.4117,0,0,1-16.8409-19.3523c-3.3688-4.1917-6.5615-8.1483-9.93-11.9352-8.89-10.0025-32.4052-31.5878-58.6126-16.0223-1.34.7965-2.7421,1.7236-4.22,2.69-5.8847,3.8782-13.1976,8.6967-22.4883,9.01-15.4635.5615-24.742-10.1854-31.504-18.0073-3.3676-3.9043-6.5481-7.6-9.6161-9.1407-20.7728-10.5118-55.4071-4.1656-78.86,14.4424-9.8172,7.7957-25.6689,24.3405-21.5621,47.61a41.2486,41.2486,0,0,0,18.469,27.618c3.606,2.233,8.0386,3.9044,12.7342,5.68,10.1051,3.813,21.5749,8.1483,29.5255,19.757,5.0715,7.391,9.6166,19.5351,7.2,31.47a27.5818,27.5818,0,0,1-12.7213,18.53c-16.7663,10.3421-36.375.0783-49.347-6.712-1.1519-.6007-2.2542-1.1752-3.293-1.6975-4.7585-2.4288-9.5163-5.1711-14.1116-7.8219-8.79-5.0665-17.868-10.3029-26.5829-13.019-8.7148-2.7031-16.128-2.6117-23.34.3134-14.2492,5.7717-22.5385,23.0477-24.4418,37.6206a58.7678,58.7678,0,0,0,10.5307,41.4468,125.7207,125.7207,0,0,0,10.1547,11.6218c5.722,6.0329,11.6324,12.2747,16.2527,20.2663,8.2514,14.2726,15.9146,42.3347-25.4934,70.005-5.1467,3.4343-10.0171,10.3291-9.0908,15.1345,1.0271,5.3408,11.1818,7.8479,15.8021,8.71l56.76-3.5,102.2247-4.2048H437.68c27.3471.1045,49.51,26.4951,49.51,58.8795V574.375a11.956,11.956,0,1,1-23.8909,0V422.1817c0-18.6863-11.482-33.9253-25.6688-33.9775H398.2627l-101.3853,4.1787-59.051,3.6562-1.2644-.2089c-26.6459-4.3614-34.6845-17.9811-36.7382-28.6236-3.2679-16.9886,7.876-33.1678,19.621-41.0157,28.0233-18.7255,21.2111-30.504,17.9432-36.1713-3.1676-5.4583-7.8381-10.3943-12.7965-15.6306a148.0321,148.0321,0,0,1-12.1332-13.9854,83.8147,83.8147,0,0,1-15.2262-59.9371c3.4685-26.6126,18.97-49.1772,39.4675-57.4822,26.8078-10.8644,50.8241,2.99,70.12,14.129,4.5323,2.6117,8.8151,5.08,13.0221,7.2212,1.1146.5745,2.3038,1.1883,3.5308,1.8412,7.3129,3.826,20.9238,10.9428,26.4826,7.5215a2.9328,2.9328,0,0,0,1.5029-2.2329c.6389-3.121-.7637-8.2136-3.2557-11.8438-3.6311-5.3147-10.3925-7.8611-18.2312-10.8253-5.5215-2.0762-11.2314-4.2439-16.7657-7.6651-15.4017-9.5195-26.5328-26.1687-29.7884-44.5285-4.6833-26.5734,6.4612-52.7943,30.5893-71.9507C344.8964.0493,388.5336-7.12,417.6458,7.61c7.2628,3.6823,12.4089,9.6369,16.9418,14.8863,5.9727,6.9078,9.015,9.95,12.9842,9.7806,2.8051-.0914,6.5493-2.5594,10.5056-5.171,1.6526-1.0708,3.3431-2.1938,5.159-3.2646,28.0606-16.6753,61.768-8.7359,87.95,20.7234,3.7693,4.2308,7.2879,8.6184,10.7062,12.8492a207.0146,207.0146,0,0,0,15.0128,17.3283c5.159,5.1318,9.5543,8.2266,13.8365,9.7675,8.0637,2.8859,16.2778-2.7161,27.86-11.5957,2.2787-1.7367,4.6325-3.5387,6.9742-5.1971,15.2384-10.8122,30.99-21.99,47.5562-25.6464,18.5442-4.0872,36.4752,1.5279,54.8061,17.1847C756.3743,83.5434,771.7509,121.1118,768.0819,157.2961Z"/><path class="cls-2" d="M475.1422,489.0936V608.34a7.1187,7.1187,0,0,0,7.1187,7.1187h86.633a7.1187,7.1187,0,0,0,6.8635-5.23l39.5085-143.5709a10.7837,10.7837,0,0,1,20.4891-.9391l56.3873,149.74"/><path class="cls-3" d="M0,617.5968V449.1253H23.1885L59.627,550.6344H60.1V449.1253h24.135V617.5968H61.52L24.6082,516.3244H24.135V617.5968Z"/><path class="cls-4" d="M141.9668,617.5968,179.59,449.1253h20.1122l37.6217,168.4715h-24.135l-7.0977-36.2018h-32.89l-7.0989,36.2018Zm59.6282-58.9182-11.8315-61.0468H189.29l-11.83,61.0468Z"/><path class="cls-5" d="M296.0052,617.5968V449.1253h23.1885L350.1909,538.33h.4721l30.7606-89.2044h23.425V617.5968H380.7137V515.1412H380.24l-23.8983,72.4049H344.2752l-23.6618-72.4049H320.14V617.5968Z"/><path class="cls-6" d="M530.3148,730.5616v5.2906a19.0731,19.0731,0,0,1-1.5029,7.5153,20.8262,20.8262,0,0,1-4.1482,6.3124,20.0191,20.0191,0,0,1-6.1925,4.3887,18.1347,18.1347,0,0,1-7.6361,1.6237,27.48,27.48,0,0,1-7.0945-.9623,16.7646,16.7646,0,0,1-6.4925-3.3671,18.5844,18.5844,0,0,1-4.7492-6.1926,21.887,21.887,0,0,1-1.8642-9.6794V688.356a20.8521,20.8521,0,0,1,1.4435-7.8162,18.38,18.38,0,0,1,4.0878-6.252,19.0071,19.0071,0,0,1,6.3124-4.1482,21.2074,21.2074,0,0,1,8.1171-1.5038q8.6578,0,14.0682,5.652a20.1379,20.1379,0,0,1,4.1482,6.5529,22.1544,22.1544,0,0,1,1.5029,8.237v4.8095H518.05v-4.0888a9.9273,9.9273,0,0,0-2.0444-6.2519,6.6265,6.6265,0,0,0-5.5312-2.6454q-4.57,0-6.0718,2.8255a15.1333,15.1333,0,0,0-1.5039,7.1549v43.7679a11.3374,11.3374,0,0,0,1.6237,6.2529q1.623,2.5247,5.8312,2.5246a8.8532,8.8532,0,0,0,2.5859-.4208,7.6952,7.6952,0,0,0,2.585-1.382,7.3275,7.3275,0,0,0,1.8038-2.6454,10.716,10.716,0,0,0,.7217-4.2086v-4.2085Z"/><path class="cls-6" d="M564.1032,754.9705v-85.613h18.3976a27.363,27.363,0,0,1,8.8973,1.3226,17.1219,17.1219,0,0,1,6.9747,4.69,18.3706,18.3706,0,0,1,4.3284,7.8756,49.3217,49.3217,0,0,1,1.2019,12.205,60.7421,60.7421,0,0,1-.66,9.74,20.3741,20.3741,0,0,1-2.8265,7.4549,17.8942,17.8942,0,0,1-6.7341,6.5529q-4.2092,2.345-11.0615,2.3454h-6.253v33.427Zm12.2644-74.0694V710h5.8916a12.5374,12.5374,0,0,0,5.7718-1.0821,6.81,6.81,0,0,0,3.0058-3.0067,10.9975,10.9975,0,0,0,1.1434-4.4481q.18-2.6443.1792-5.8926,0-3.0037-.1188-5.7115a12.3945,12.3945,0,0,0-1.0831-4.7491,6.8427,6.8427,0,0,0-2.8859-3.1265,11.4512,11.4512,0,0,0-5.5312-1.0821Z"/><path class="cls-6" d="M636.849,754.9705v-85.613h18.3975a27.3555,27.3555,0,0,1,8.8974,1.3226,17.11,17.11,0,0,1,6.9747,4.69,18.3618,18.3618,0,0,1,4.3293,7.8756,49.3653,49.3653,0,0,1,1.2019,12.205,60.742,60.742,0,0,1-.6613,9.74,20.3722,20.3722,0,0,1-2.8255,7.4549,17.8952,17.8952,0,0,1-6.7342,6.5529q-4.2105,2.345-11.0625,2.3454h-6.2529v33.427Zm12.2644-74.0694V710h5.8926a12.5379,12.5379,0,0,0,5.7718-1.0821,6.82,6.82,0,0,0,3.0057-3.0067,10.98,10.98,0,0,0,1.1425-4.4481q.18-2.6443.18-5.8926,0-3.0037-.12-5.7115a12.378,12.378,0,0,0-1.0821-4.7491,6.8448,6.8448,0,0,0-2.8869-3.1265,11.4473,11.4473,0,0,0-5.53-1.0821Z"/></g></g></svg>