<svg xmlns="http://www.w3.org/2000/svg" viewBox="0 0 516.6926 516.6943"><defs><style>.cls-1{fill:#0a5d62;}.cls-2{fill:#e5ae24;}.cls-3{fill:#6c352f;}.cls-4{fill:#de5f39;}</style></defs><g id="Layer_2" data-name="Layer 2"><g id="Layer_1-2" data-name="Layer 1"><rect class="cls-1" x="254.346" y="430.2452" width="90.4494" height="86.449" transform="translate(599.1414 946.9395) rotate(180)"/><polygon class="cls-2" points="516.693 258.347 516.693 344.796 430.243 344.796 516.693 258.347"/><rect class="cls-3" x="171.8971" y="344.3332" width="86.449" height="86.449" transform="translate(430.2432 775.1155) rotate(180)"/><rect class="cls-3" x="430.2427" y="430.2452" width="86.449" height="86.449" transform="translate(946.9345 946.9395) rotate(180)"/><rect class="cls-4" x="170.8972" y="86.4491" width="86.449" height="86.449" transform="translate(428.2434 259.3472) rotate(180)"/><rect class="cls-2" x="255.346" y="170.8981" width="86.449" height="86.449" transform="translate(597.141 428.2453) rotate(180)"/><rect class="cls-2" x="170.8974" y="170.8981" width="86.449" height="86.449" transform="translate(428.2439 428.2453) rotate(180)"/><rect class="cls-3" x="0.0003" width="86.449" height="86.449" transform="translate(86.4495 86.4491) rotate(180)"/><rect class="cls-4" x="85.4486" y="85.449" width="86.449" height="86.449" transform="translate(257.3462 257.3471) rotate(180)"/><rect class="cls-4" y="85.4491" width="86.449" height="86.449" transform="translate(86.4491 257.3472) rotate(180)"/><rect class="cls-2" x="86.4488" y="170.8981" width="86.449" height="86.449" transform="translate(259.3466 428.2452) rotate(180)"/><rect class="cls-2" x="1.0003" y="170.8981" width="86.449" height="86.449" transform="translate(88.4495 428.2453) rotate(180)"/><path class="cls-2" d="M86.4493,0V86.4491H0A86.4533,86.4533,0,0,1,86.4493,0Z"/><path class="cls-2" d="M0,85.4493H86.4491v86.449A86.4533,86.4533,0,0,1,0,85.4493Z"/><path class="cls-1" d="M257.3461,85.4491v86.449h-86.449A86.4532,86.4532,0,0,1,257.3461,85.4491Z"/><path class="cls-1" d="M341.7944,171.8981h-86.449V85.4491A86.4532,86.4532,0,0,1,341.7944,171.8981Z"/><path class="cls-4" d="M255.3454,257.3472v-86.449h86.449A86.4532,86.4532,0,0,1,255.3454,257.3472Z"/><path class="cls-1" d="M170.8971,170.8982h86.449v86.449A86.4532,86.4532,0,0,1,170.8971,170.8982Z"/><rect class="cls-2" x="430.2431" y="343.7962" width="86.449" height="86.449" transform="translate(946.9353 774.0414) rotate(180)"/><rect class="cls-2" x="343.7946" y="343.7962" width="86.449" height="86.449" transform="translate(774.0382 774.0415) rotate(180)"/><rect class="cls-1" x="343.7948" y="430.2453" width="86.449" height="86.449" transform="translate(774.0387 946.9395) rotate(180)"/><path class="cls-4" d="M430.2435,344.7962v86.4491H343.7944A86.4533,86.4533,0,0,1,430.2435,344.7962Z"/><path class="cls-3" d="M516.6918,431.2453H430.2427V344.7962A86.4533,86.4533,0,0,1,516.6918,431.2453Z"/><path class="cls-4" d="M429.2427,516.6943v-86.449h86.4491A86.4532,86.4532,0,0,1,429.2427,516.6943Z"/><path class="cls-4" d="M343.7944,430.2453h86.4491v86.449A86.4533,86.4533,0,0,1,343.7944,430.2453Z"/><path class="cls-1" d="M85.4485,171.8981V85.4491h86.4491A86.4532,86.4532,0,0,1,85.4485,171.8981Z"/><polygon class="cls-1" points="86.449 85.449 86.449 171.898 0 171.898 86.449 85.449"/><rect class="cls-3" x="170.8978" y="257.3472" width="86.449" height="86.449" transform="translate(428.2447 601.1434) rotate(180)"/><rect class="cls-1" x="86.4495" y="257.3472" width="86.449" height="86.449" transform="translate(259.3481 601.1434) rotate(180)"/><rect class="cls-2" x="257.3461" y="343.7962" width="86.449" height="86.449" transform="translate(601.1413 774.0414) rotate(180)"/><rect class="cls-4" y="428.7955" width="86.449" height="87.8988" transform="translate(86.4491 945.4897) rotate(180)"/><path class="cls-4" d="M258.3469,257.3471v86.4491H171.8978A86.4533,86.4533,0,0,1,258.3469,257.3471Z"/><path class="cls-4" d="M171.8978,343.7965h86.4491v86.449A86.4533,86.4533,0,0,1,171.8978,343.7965Z"/><path class="cls-1" d="M257.3461,430.2453V343.7962h86.4491A86.4533,86.4533,0,0,1,257.3461,430.2453Z"/><polygon class="cls-1" points="258.347 343.796 258.347 431.245 171.898 431.245 258.347 343.796"/><circle class="cls-2" cx="257.3454" cy="170.8982" r="21.6123"/><circle class="cls-2" cx="430.2438" cy="430.7823" r="21.6123"/><rect class="cls-2" x="86.4492" y="430.2452" width="86.449" height="86.449" transform="translate(259.3473 946.9394) rotate(180)"/><rect class="cls-2" x="0.001" y="343.7962" width="86.449" height="86.449" transform="translate(86.451 774.0414) rotate(180)"/><path class="cls-1" d="M86.45,343.7962v86.449H.0008A86.4533,86.4533,0,0,1,86.45,343.7962Z"/><path class="cls-2" d="M171.8976,86.4491H85.4486V0A86.4533,86.4533,0,0,1,171.8976,86.4491Z"/><rect class="cls-1" x="171.8978" y="430.2452" width="86.449" height="86.449" transform="translate(430.2447 946.9395) rotate(180)"/><path class="cls-4" d="M343.7952,343.7942H257.3461V257.3451A86.4533,86.4533,0,0,1,343.7952,343.7942Z"/></g></g></svg>