<svg xmlns="http://www.w3.org/2000/svg" viewBox="0 0 344.7944 172.8981"><defs><style>.cls-1{fill:#de5f39;}.cls-2{fill:#e5ae24;}.cls-3{fill:#0a5d62;}.cls-4{fill:#6c352f;}</style></defs><g id="Layer_2" data-name="Layer 2"><g id="Layer_1-2" data-name="Layer 1"><path class="cls-1" d="M0,0H86.4491v86.449A86.4533,86.4533,0,0,1,0,0Z"/><rect class="cls-2" x="258.3453" width="86.449" height="86.449" transform="translate(603.1397 86.4491) rotate(180)"/><rect class="cls-2" x="171.8968" width="86.449" height="86.449" transform="translate(430.2426 86.4491) rotate(180)"/><rect class="cls-3" x="172.897" y="86.4491" width="86.449" height="86.449" transform="translate(432.2431 259.3472) rotate(180)"/><path class="cls-1" d="M258.3457,0V86.4491H171.8966A86.4533,86.4533,0,0,1,258.3457,0Z"/><rect class="cls-2" x="86.4483" width="86.449" height="86.449" transform="translate(259.3457 86.449) rotate(180)"/><rect class="cls-3" y="86.4491" width="86.449" height="86.449" transform="translate(86.4491 259.3472) rotate(180)"/><path class="cls-3" d="M86.4483,86.4491V0h86.4491A86.4533,86.4533,0,0,1,86.4483,86.4491Z"/><rect class="cls-4" x="258.3449" y="86.449" width="86.449" height="86.449" transform="translate(603.1389 259.3471) rotate(180)"/></g></g></svg>